  0
SECTION
  2
HEADER
  9
$ACADVER
  1
AC1009
  9
$EXTMIN
 10
0.0
 20
0.0
 30
0.0
  9
$EXTMAX
 10
1000.0
 20
1000.0
 30
0.0
  9
$FILLMODE
 70
 0
  9
$SPLFRAME
 70
 1
  0
ENDSEC
  0
SECTION
  2
TABLES
  0
TABLE
  2
LAYER
 70
1
  0
LAYER
  2
0
 70
     0
 62
     7
  6
CONTINUOUS
  0
ENDTAB
  0
ENDSEC
  0
SECTION
  2
ENTITIES
  0
LINE
  8
0
 62
     0
 10
283.607
 20
95.1618
 30
0.0
 11
283.764
 21
95.1548
 31
0.0
  0
LINE
  8
0
 62
     0
 10
283.764
 20
95.1548
 30
0.0
 11
283.921
 21
95.1385
 31
0.0
  0
LINE
  8
0
 62
     0
 10
283.921
 20
95.1385
 30
0.0
 11
284.074
 21
95.1068
 31
0.0
  0
LINE
  8
0
 62
     0
 10
284.074
 20
95.1068
 30
0.0
 11
284.226
 21
95.0641
 31
0.0
  0
LINE
  8
0
 62
     0
 10
284.226
 20
95.0641
 30
0.0
 11
284.373
 21
95.0101
 31
0.0
  0
LINE
  8
0
 62
     0
 10
284.373
 20
95.0101
 30
0.0
 11
284.515
 21
94.9456
 31
0.0
  0
LINE
  8
0
 62
     0
 10
284.515
 20
94.9456
 30
0.0
 11
284.652
 21
94.8683
 31
0.0
  0
LINE
  8
0
 62
     0
 10
284.652
 20
94.8683
 30
0.0
 11
284.784
 21
94.7801
 31
0.0
  0
LINE
  8
0
 62
     0
 10
284.784
 20
94.7801
 30
0.0
 11
284.907
 21
94.6838
 31
0.0
  0
LINE
  8
0
 62
     0
 10
284.907
 20
94.6838
 30
0.0
 11
285.023
 21
94.5776
 31
0.0
  0
LINE
  8
0
 62
     0
 10
285.023
 20
94.5776
 30
0.0
 11
285.127
 21
94.4605
 31
0.0
  0
LINE
  8
0
 62
     0
 10
285.127
 20
94.4605
 30
0.0
 11
285.226
 21
94.3377
 31
0.0
  0
LINE
  8
0
 62
     0
 10
285.226
 20
94.3377
 30
0.0
 11
285.313
 21
94.2068
 31
0.0
  0
LINE
  8
0
 62
     0
 10
285.313
 20
94.2068
 30
0.0
 11
285.39
 21
94.0703
 31
0.0
  0
LINE
  8
0
 62
     0
 10
285.39
 20
94.0703
 30
0.0
 11
285.455
 21
93.9285
 31
0.0
  0
LINE
  8
0
 62
     0
 10
285.455
 20
93.9285
 30
0.0
 11
285.51
 21
93.7796
 31
0.0
  0
LINE
  8
0
 62
     0
 10
285.51
 20
93.7796
 30
0.0
 11
285.553
 21
93.6279
 31
0.0
  0
LINE
  8
0
 62
     0
 10
285.553
 20
93.6279
 30
0.0
 11
285.583
 21
93.4738
 31
0.0
  0
LINE
  8
0
 62
     0
 10
285.583
 20
93.4738
 30
0.0
 11
285.601
 21
93.3193
 31
0.0
  0
LINE
  8
0
 62
     0
 10
285.601
 20
93.3193
 30
0.0
 11
285.608
 21
93.1623
 31
0.0
  0
LINE
  8
0
 62
     0
 10
285.608
 20
93.1623
 30
0.0
 11
285.608
 21
40.8492
 31
0.0
  0
LINE
  8
0
 62
     0
 10
285.608
 20
40.8492
 30
0.0
 11
282.107
 21
40.8506
 31
0.0
  0
LINE
  8
0
 62
     0
 10
282.107
 20
40.8506
 30
0.0
 11
281.357
 21
40.7307
 31
0.0
  0
LINE
  8
0
 62
     0
 10
281.357
 20
40.7307
 30
0.0
 11
280.683
 21
40.386
 31
0.0
  0
LINE
  8
0
 62
     0
 10
280.683
 20
40.386
 30
0.0
 11
280.144
 21
39.8501
 31
0.0
  0
LINE
  8
0
 62
     0
 10
280.144
 20
39.8501
 30
0.0
 11
279.801
 21
39.1735
 31
0.0
  0
LINE
  8
0
 62
     0
 10
279.801
 20
39.1735
 30
0.0
 11
279.683
 21
38.4238
 31
0.0
  0
LINE
  8
0
 62
     0
 10
279.683
 20
38.4238
 30
0.0
 11
279.801
 21
37.6742
 31
0.0
  0
LINE
  8
0
 62
     0
 10
279.801
 20
37.6742
 30
0.0
 11
280.144
 21
36.999
 31
0.0
  0
LINE
  8
0
 62
     0
 10
280.144
 20
36.999
 30
0.0
 11
280.683
 21
36.4613
 31
0.0
  0
LINE
  8
0
 62
     0
 10
280.683
 20
36.4613
 30
0.0
 11
281.357
 21
36.1184
 31
0.0
  0
LINE
  8
0
 62
     0
 10
281.357
 20
36.1184
 30
0.0
 11
282.107
 21
35.9985
 31
0.0
  0
LINE
  8
0
 62
     0
 10
282.107
 20
35.9985
 30
0.0
 11
285.608
 21
35.9985
 31
0.0
  0
LINE
  8
0
 62
     0
 10
285.608
 20
35.9985
 30
0.0
 11
285.608
 21
2.08635
 31
0.0
  0
LINE
  8
0
 62
     0
 10
285.608
 20
2.08635
 30
0.0
 11
285.601
 21
1.93063
 31
0.0
  0
LINE
  8
0
 62
     0
 10
285.601
 20
1.93063
 30
0.0
 11
285.583
 21
1.77353
 31
0.0
  0
LINE
  8
0
 62
     0
 10
285.583
 20
1.77353
 30
0.0
 11
285.553
 21
1.62057
 31
0.0
  0
LINE
  8
0
 62
     0
 10
285.553
 20
1.62057
 30
0.0
 11
285.51
 21
1.46761
 31
0.0
  0
LINE
  8
0
 62
     0
 10
285.51
 20
1.46761
 30
0.0
 11
285.455
 21
1.32154
 31
0.0
  0
LINE
  8
0
 62
     0
 10
285.455
 20
1.32154
 30
0.0
 11
285.39
 21
1.17822
 31
0.0
  0
LINE
  8
0
 62
     0
 10
285.39
 20
1.17822
 30
0.0
 11
285.313
 21
1.04042
 31
0.0
  0
LINE
  8
0
 62
     0
 10
285.313
 20
1.04042
 30
0.0
 11
285.226
 21
0.909507
 31
0.0
  0
LINE
  8
0
 62
     0
 10
285.226
 20
0.909507
 30
0.0
 11
285.127
 21
0.78824
 31
0.0
  0
LINE
  8
0
 62
     0
 10
285.127
 20
0.78824
 30
0.0
 11
285.023
 21
0.672483
 31
0.0
  0
LINE
  8
0
 62
     0
 10
285.023
 20
0.672483
 30
0.0
 11
284.907
 21
0.566374
 31
0.0
  0
LINE
  8
0
 62
     0
 10
284.907
 20
0.566374
 30
0.0
 11
284.784
 21
0.468535
 31
0.0
  0
LINE
  8
0
 62
     0
 10
284.784
 20
0.468535
 30
0.0
 11
284.652
 21
0.38034
 31
0.0
  0
LINE
  8
0
 62
     0
 10
284.652
 20
0.38034
 30
0.0
 11
284.515
 21
0.303168
 31
0.0
  0
LINE
  8
0
 62
     0
 10
284.515
 20
0.303168
 30
0.0
 11
284.373
 21
0.238401
 31
0.0
  0
LINE
  8
0
 62
     0
 10
284.373
 20
0.238401
 30
0.0
 11
284.226
 21
0.184657
 31
0.0
  0
LINE
  8
0
 62
     0
 10
284.226
 20
0.184657
 30
0.0
 11
284.074
 21
0.141938
 31
0.0
  0
LINE
  8
0
 62
     0
 10
284.074
 20
0.141938
 30
0.0
 11
283.921
 21
0.111621
 31
0.0
  0
LINE
  8
0
 62
     0
 10
283.921
 20
0.111621
 30
0.0
 11
283.764
 21
0.0923286
 31
0.0
  0
LINE
  8
0
 62
     0
 10
283.764
 20
0.0923286
 30
0.0
 11
283.607
 21
0.0868165
 31
0.0
  0
LINE
  8
0
 62
     0
 10
283.607
 20
0.0868165
 30
0.0
 11
2.08221
 21
0.0854385
 31
0.0
  0
LINE
  8
0
 62
     0
 10
2.08221
 20
0.0854385
 30
0.0
 11
1.92512
 21
0.0923286
 31
0.0
  0
LINE
  8
0
 62
     0
 10
1.92512
 20
0.0923286
 30
0.0
 11
1.7694
 21
0.111621
 31
0.0
  0
LINE
  8
0
 62
     0
 10
1.7694
 20
0.111621
 30
0.0
 11
1.61644
 21
0.141938
 31
0.0
  0
LINE
  8
0
 62
     0
 10
1.61644
 20
0.141938
 30
0.0
 11
1.46348
 21
0.184657
 31
0.0
  0
LINE
  8
0
 62
     0
 10
1.46348
 20
0.184657
 30
0.0
 11
1.31741
 21
0.238401
 31
0.0
  0
LINE
  8
0
 62
     0
 10
1.31741
 20
0.238401
 30
0.0
 11
1.17409
 21
0.303168
 31
0.0
  0
LINE
  8
0
 62
     0
 10
1.17409
 20
0.303168
 30
0.0
 11
1.03766
 21
0.38034
 31
0.0
  0
LINE
  8
0
 62
     0
 10
1.03766
 20
0.38034
 30
0.0
 11
0.906748
 21
0.468535
 31
0.0
  0
LINE
  8
0
 62
     0
 10
0.906748
 20
0.468535
 30
0.0
 11
0.784105
 21
0.566374
 31
0.0
  0
LINE
  8
0
 62
     0
 10
0.784105
 20
0.566374
 30
0.0
 11
0.668348
 21
0.672483
 31
0.0
  0
LINE
  8
0
 62
     0
 10
0.668348
 20
0.672483
 30
0.0
 11
0.56224
 21
0.78824
 31
0.0
  0
LINE
  8
0
 62
     0
 10
0.56224
 20
0.78824
 30
0.0
 11
0.4644
 21
0.909507
 31
0.0
  0
LINE
  8
0
 62
     0
 10
0.4644
 20
0.909507
 30
0.0
 11
0.376206
 21
1.04042
 31
0.0
  0
LINE
  8
0
 62
     0
 10
0.376206
 20
1.04042
 30
0.0
 11
0.300412
 21
1.17822
 31
0.0
  0
LINE
  8
0
 62
     0
 10
0.300412
 20
1.17822
 30
0.0
 11
0.234267
 21
1.32154
 31
0.0
  0
LINE
  8
0
 62
     0
 10
0.234267
 20
1.32154
 30
0.0
 11
0.179145
 21
1.46761
 31
0.0
  0
LINE
  8
0
 62
     0
 10
0.179145
 20
1.46761
 30
0.0
 11
0.137804
 21
1.62057
 31
0.0
  0
LINE
  8
0
 62
     0
 10
0.137804
 20
1.62057
 30
0.0
 11
0.106109
 21
1.77353
 31
0.0
  0
LINE
  8
0
 62
     0
 10
0.106109
 20
1.77353
 30
0.0
 11
0.0881944
 21
1.93063
 31
0.0
  0
LINE
  8
0
 62
     0
 10
0.0881944
 20
1.93063
 30
0.0
 11
0.0813043
 21
2.08635
 31
0.0
  0
LINE
  8
0
 62
     0
 10
0.0813043
 20
2.08635
 30
0.0
 11
0.0813043
 21
35.9985
 31
0.0
  0
LINE
  8
0
 62
     0
 10
0.0813043
 20
35.9985
 30
0.0
 11
3.58429
 21
35.9985
 31
0.0
  0
LINE
  8
0
 62
     0
 10
3.58429
 20
35.9985
 30
0.0
 11
4.33257
 21
36.1184
 31
0.0
  0
LINE
  8
0
 62
     0
 10
4.33257
 20
36.1184
 30
0.0
 11
5.00779
 21
36.4613
 31
0.0
  0
LINE
  8
0
 62
     0
 10
5.00779
 20
36.4613
 30
0.0
 11
5.54524
 21
36.999
 31
0.0
  0
LINE
  8
0
 62
     0
 10
5.54524
 20
36.999
 30
0.0
 11
5.88836
 21
37.6742
 31
0.0
  0
LINE
  8
0
 62
     0
 10
5.88836
 20
37.6742
 30
0.0
 11
6.00826
 21
38.4224
 31
0.0
  0
LINE
  8
0
 62
     0
 10
6.00826
 20
38.4224
 30
0.0
 11
6.00826
 21
38.4238
 31
0.0
  0
LINE
  8
0
 62
     0
 10
6.00826
 20
38.4238
 30
0.0
 11
5.88836
 21
39.1735
 31
0.0
  0
LINE
  8
0
 62
     0
 10
5.88836
 20
39.1735
 30
0.0
 11
5.54524
 21
39.8501
 31
0.0
  0
LINE
  8
0
 62
     0
 10
5.54524
 20
39.8501
 30
0.0
 11
5.00779
 21
40.386
 31
0.0
  0
LINE
  8
0
 62
     0
 10
5.00779
 20
40.386
 30
0.0
 11
4.33257
 21
40.7307
 31
0.0
  0
LINE
  8
0
 62
     0
 10
4.33257
 20
40.7307
 30
0.0
 11
3.58429
 21
40.8492
 31
0.0
  0
LINE
  8
0
 62
     0
 10
3.58429
 20
40.8492
 30
0.0
 11
0.0813043
 21
40.8506
 31
0.0
  0
LINE
  8
0
 62
     0
 10
0.0813043
 20
40.8506
 30
0.0
 11
0.0826823
 21
93.1623
 31
0.0
  0
LINE
  8
0
 62
     0
 10
0.0826823
 20
93.1623
 30
0.0
 11
0.0881944
 21
93.3193
 31
0.0
  0
LINE
  8
0
 62
     0
 10
0.0881944
 20
93.3193
 30
0.0
 11
0.106109
 21
93.4738
 31
0.0
  0
LINE
  8
0
 62
     0
 10
0.106109
 20
93.4738
 30
0.0
 11
0.137804
 21
93.6279
 31
0.0
  0
LINE
  8
0
 62
     0
 10
0.137804
 20
93.6279
 30
0.0
 11
0.179145
 21
93.7796
 31
0.0
  0
LINE
  8
0
 62
     0
 10
0.179145
 20
93.7796
 30
0.0
 11
0.234267
 21
93.9285
 31
0.0
  0
LINE
  8
0
 62
     0
 10
0.234267
 20
93.9285
 30
0.0
 11
0.300412
 21
94.0703
 31
0.0
  0
LINE
  8
0
 62
     0
 10
0.300412
 20
94.0703
 30
0.0
 11
0.376206
 21
94.2068
 31
0.0
  0
LINE
  8
0
 62
     0
 10
0.376206
 20
94.2068
 30
0.0
 11
0.4644
 21
94.3377
 31
0.0
  0
LINE
  8
0
 62
     0
 10
0.4644
 20
94.3377
 30
0.0
 11
0.56224
 21
94.4605
 31
0.0
  0
LINE
  8
0
 62
     0
 10
0.56224
 20
94.4605
 30
0.0
 11
0.668348
 21
94.5776
 31
0.0
  0
LINE
  8
0
 62
     0
 10
0.668348
 20
94.5776
 30
0.0
 11
0.784105
 21
94.6838
 31
0.0
  0
LINE
  8
0
 62
     0
 10
0.784105
 20
94.6838
 30
0.0
 11
0.906748
 21
94.7801
 31
0.0
  0
LINE
  8
0
 62
     0
 10
0.906748
 20
94.7801
 30
0.0
 11
1.03766
 21
94.8683
 31
0.0
  0
LINE
  8
0
 62
     0
 10
1.03766
 20
94.8683
 30
0.0
 11
1.17409
 21
94.9456
 31
0.0
  0
LINE
  8
0
 62
     0
 10
1.17409
 20
94.9456
 30
0.0
 11
1.31741
 21
95.0101
 31
0.0
  0
LINE
  8
0
 62
     0
 10
1.31741
 20
95.0101
 30
0.0
 11
1.46348
 21
95.0641
 31
0.0
  0
LINE
  8
0
 62
     0
 10
1.46348
 20
95.0641
 30
0.0
 11
1.61644
 21
95.1068
 31
0.0
  0
LINE
  8
0
 62
     0
 10
1.61644
 20
95.1068
 30
0.0
 11
1.7694
 21
95.1385
 31
0.0
  0
LINE
  8
0
 62
     0
 10
1.7694
 20
95.1385
 30
0.0
 11
1.92512
 21
95.1548
 31
0.0
  0
LINE
  8
0
 62
     0
 10
1.92512
 20
95.1548
 30
0.0
 11
2.08221
 21
95.1632
 31
0.0
  0
LINE
  8
0
 62
     0
 10
2.08221
 20
95.1632
 30
0.0
 11
283.607
 21
95.1618
 31
0.0
  0
LINE
  8
0
 62
     0
 10
102.582
 20
16.4496
 30
0.0
 11
102.582
 21
15.4506
 31
0.0
  0
LINE
  8
0
 62
     0
 10
102.582
 20
15.4506
 30
0.0
 11
101.783
 21
15.4506
 31
0.0
  0
LINE
  8
0
 62
     0
 10
101.783
 20
15.4506
 30
0.0
 11
101.783
 21
12.4988
 31
0.0
  0
LINE
  8
0
 62
     0
 10
101.783
 20
12.4988
 30
0.0
 11
102.582
 21
12.4988
 31
0.0
  0
LINE
  8
0
 62
     0
 10
102.582
 20
12.4988
 30
0.0
 11
102.582
 21
11.7492
 31
0.0
  0
LINE
  8
0
 62
     0
 10
102.582
 20
11.7492
 30
0.0
 11
100.908
 21
11.7492
 31
0.0
  0
LINE
  8
0
 62
     0
 10
100.908
 20
11.7492
 30
0.0
 11
100.908
 21
14.9806
 31
0.0
  0
LINE
  8
0
 62
     0
 10
100.908
 20
14.9806
 30
0.0
 11
99.1817
 21
14.9806
 31
0.0
  0
LINE
  8
0
 62
     0
 10
99.1817
 20
14.9806
 30
0.0
 11
99.1817
 21
15.8998
 31
0.0
  0
LINE
  8
0
 62
     0
 10
99.1817
 20
15.8998
 30
0.0
 11
96.0314
 21
15.8998
 31
0.0
  0
LINE
  8
0
 62
     0
 10
96.0314
 20
15.8998
 30
0.0
 11
96.0314
 21
14.9806
 31
0.0
  0
LINE
  8
0
 62
     0
 10
96.0314
 20
14.9806
 30
0.0
 11
94.3074
 21
14.9806
 31
0.0
  0
LINE
  8
0
 62
     0
 10
94.3074
 20
14.9806
 30
0.0
 11
94.3074
 21
11.7492
 31
0.0
  0
LINE
  8
0
 62
     0
 10
94.3074
 20
11.7492
 30
0.0
 11
93.4819
 21
11.7492
 31
0.0
  0
LINE
  8
0
 62
     0
 10
93.4819
 20
11.7492
 30
0.0
 11
93.4819
 21
9.10057
 31
0.0
  0
LINE
  8
0
 62
     0
 10
93.4819
 20
9.10057
 30
0.0
 11
94.3074
 21
9.10057
 31
0.0
  0
LINE
  8
0
 62
     0
 10
94.3074
 20
9.10057
 30
0.0
 11
94.3074
 21
2.83049
 31
0.0
  0
LINE
  8
0
 62
     0
 10
94.3074
 20
2.83049
 30
0.0
 11
96.0314
 21
2.83049
 31
0.0
  0
LINE
  8
0
 62
     0
 10
96.0314
 20
2.83049
 30
0.0
 11
96.0314
 21
1.84933
 31
0.0
  0
LINE
  8
0
 62
     0
 10
96.0314
 20
1.84933
 30
0.0
 11
99.1817
 21
1.84933
 31
0.0
  0
LINE
  8
0
 62
     0
 10
99.1817
 20
1.84933
 30
0.0
 11
99.1817
 21
2.83049
 31
0.0
  0
LINE
  8
0
 62
     0
 10
99.1817
 20
2.83049
 30
0.0
 11
100.908
 21
2.83049
 31
0.0
  0
LINE
  8
0
 62
     0
 10
100.908
 20
2.83049
 30
0.0
 11
100.908
 21
7.29947
 31
0.0
  0
LINE
  8
0
 62
     0
 10
100.908
 20
7.29947
 30
0.0
 11
102.582
 21
7.29947
 31
0.0
  0
LINE
  8
0
 62
     0
 10
102.582
 20
7.29947
 30
0.0
 11
102.582
 21
6.54981
 31
0.0
  0
LINE
  8
0
 62
     0
 10
102.582
 20
6.54981
 30
0.0
 11
101.783
 21
6.54981
 31
0.0
  0
LINE
  8
0
 62
     0
 10
101.783
 20
6.54981
 30
0.0
 11
101.783
 21
3.59943
 31
0.0
  0
LINE
  8
0
 62
     0
 10
101.783
 20
3.59943
 30
0.0
 11
102.582
 21
3.59943
 31
0.0
  0
LINE
  8
0
 62
     0
 10
102.582
 20
3.59943
 30
0.0
 11
102.582
 21
2.60036
 31
0.0
  0
LINE
  8
0
 62
     0
 10
102.582
 20
2.60036
 30
0.0
 11
116.432
 21
2.60036
 31
0.0
  0
LINE
  8
0
 62
     0
 10
116.432
 20
2.60036
 30
0.0
 11
116.432
 21
3.59943
 31
0.0
  0
LINE
  8
0
 62
     0
 10
116.432
 20
3.59943
 30
0.0
 11
117.231
 21
3.59943
 31
0.0
  0
LINE
  8
0
 62
     0
 10
117.231
 20
3.59943
 30
0.0
 11
117.231
 21
6.54981
 31
0.0
  0
LINE
  8
0
 62
     0
 10
117.231
 20
6.54981
 30
0.0
 11
116.432
 21
6.54981
 31
0.0
  0
LINE
  8
0
 62
     0
 10
116.432
 20
6.54981
 30
0.0
 11
116.432
 21
7.29947
 31
0.0
  0
LINE
  8
0
 62
     0
 10
116.432
 20
7.29947
 30
0.0
 11
118.106
 21
7.29947
 31
0.0
  0
LINE
  8
0
 62
     0
 10
118.106
 20
7.29947
 30
0.0
 11
118.106
 21
2.83049
 31
0.0
  0
LINE
  8
0
 62
     0
 10
118.106
 20
2.83049
 30
0.0
 11
119.833
 21
2.83049
 31
0.0
  0
LINE
  8
0
 62
     0
 10
119.833
 20
2.83049
 30
0.0
 11
119.833
 21
1.84933
 31
0.0
  0
LINE
  8
0
 62
     0
 10
119.833
 20
1.84933
 30
0.0
 11
122.983
 21
1.84933
 31
0.0
  0
LINE
  8
0
 62
     0
 10
122.983
 20
1.84933
 30
0.0
 11
122.983
 21
2.83049
 31
0.0
  0
LINE
  8
0
 62
     0
 10
122.983
 20
2.83049
 30
0.0
 11
124.707
 21
2.83049
 31
0.0
  0
LINE
  8
0
 62
     0
 10
124.707
 20
2.83049
 30
0.0
 11
124.707
 21
9.10057
 31
0.0
  0
LINE
  8
0
 62
     0
 10
124.707
 20
9.10057
 30
0.0
 11
125.531
 21
9.10057
 31
0.0
  0
LINE
  8
0
 62
     0
 10
125.531
 20
9.10057
 30
0.0
 11
125.531
 21
11.7492
 31
0.0
  0
LINE
  8
0
 62
     0
 10
125.531
 20
11.7492
 30
0.0
 11
124.707
 21
11.7492
 31
0.0
  0
LINE
  8
0
 62
     0
 10
124.707
 20
11.7492
 30
0.0
 11
124.707
 21
14.9806
 31
0.0
  0
LINE
  8
0
 62
     0
 10
124.707
 20
14.9806
 30
0.0
 11
122.983
 21
14.9806
 31
0.0
  0
LINE
  8
0
 62
     0
 10
122.983
 20
14.9806
 30
0.0
 11
122.983
 21
15.8998
 31
0.0
  0
LINE
  8
0
 62
     0
 10
122.983
 20
15.8998
 30
0.0
 11
119.833
 21
15.8998
 31
0.0
  0
LINE
  8
0
 62
     0
 10
119.833
 20
15.8998
 30
0.0
 11
119.833
 21
14.9806
 31
0.0
  0
LINE
  8
0
 62
     0
 10
119.833
 20
14.9806
 30
0.0
 11
118.106
 21
14.9806
 31
0.0
  0
LINE
  8
0
 62
     0
 10
118.106
 20
14.9806
 30
0.0
 11
118.106
 21
11.7492
 31
0.0
  0
LINE
  8
0
 62
     0
 10
118.106
 20
11.7492
 30
0.0
 11
116.432
 21
11.7492
 31
0.0
  0
LINE
  8
0
 62
     0
 10
116.432
 20
11.7492
 30
0.0
 11
116.432
 21
12.4988
 31
0.0
  0
LINE
  8
0
 62
     0
 10
116.432
 20
12.4988
 30
0.0
 11
117.231
 21
12.4988
 31
0.0
  0
LINE
  8
0
 62
     0
 10
117.231
 20
12.4988
 30
0.0
 11
117.231
 21
15.4506
 31
0.0
  0
LINE
  8
0
 62
     0
 10
117.231
 20
15.4506
 30
0.0
 11
116.432
 21
15.4506
 31
0.0
  0
LINE
  8
0
 62
     0
 10
116.432
 20
15.4506
 30
0.0
 11
116.432
 21
16.4496
 31
0.0
  0
LINE
  8
0
 62
     0
 10
116.432
 20
16.4496
 30
0.0
 11
102.582
 21
16.4496
 31
0.0
  0
LINE
  8
0
 62
     0
 10
140.682
 20
16.4496
 30
0.0
 11
140.682
 21
15.4506
 31
0.0
  0
LINE
  8
0
 62
     0
 10
140.682
 20
15.4506
 30
0.0
 11
139.882
 21
15.4506
 31
0.0
  0
LINE
  8
0
 62
     0
 10
139.882
 20
15.4506
 30
0.0
 11
139.882
 21
12.4988
 31
0.0
  0
LINE
  8
0
 62
     0
 10
139.882
 20
12.4988
 30
0.0
 11
140.682
 21
12.4988
 31
0.0
  0
LINE
  8
0
 62
     0
 10
140.682
 20
12.4988
 30
0.0
 11
140.682
 21
11.7492
 31
0.0
  0
LINE
  8
0
 62
     0
 10
140.682
 20
11.7492
 30
0.0
 11
139.007
 21
11.7492
 31
0.0
  0
LINE
  8
0
 62
     0
 10
139.007
 20
11.7492
 30
0.0
 11
139.007
 21
14.9806
 31
0.0
  0
LINE
  8
0
 62
     0
 10
139.007
 20
14.9806
 30
0.0
 11
137.282
 21
14.9806
 31
0.0
  0
LINE
  8
0
 62
     0
 10
137.282
 20
14.9806
 30
0.0
 11
137.282
 21
15.8998
 31
0.0
  0
LINE
  8
0
 62
     0
 10
137.282
 20
15.8998
 30
0.0
 11
134.131
 21
15.8998
 31
0.0
  0
LINE
  8
0
 62
     0
 10
134.131
 20
15.8998
 30
0.0
 11
134.131
 21
14.9806
 31
0.0
  0
LINE
  8
0
 62
     0
 10
134.131
 20
14.9806
 30
0.0
 11
132.407
 21
14.9806
 31
0.0
  0
LINE
  8
0
 62
     0
 10
132.407
 20
14.9806
 30
0.0
 11
132.407
 21
11.7492
 31
0.0
  0
LINE
  8
0
 62
     0
 10
132.407
 20
11.7492
 30
0.0
 11
131.582
 21
11.7492
 31
0.0
  0
LINE
  8
0
 62
     0
 10
131.582
 20
11.7492
 30
0.0
 11
131.582
 21
9.10057
 31
0.0
  0
LINE
  8
0
 62
     0
 10
131.582
 20
9.10057
 30
0.0
 11
132.407
 21
9.10057
 31
0.0
  0
LINE
  8
0
 62
     0
 10
132.407
 20
9.10057
 30
0.0
 11
132.407
 21
2.83049
 31
0.0
  0
LINE
  8
0
 62
     0
 10
132.407
 20
2.83049
 30
0.0
 11
134.131
 21
2.83049
 31
0.0
  0
LINE
  8
0
 62
     0
 10
134.131
 20
2.83049
 30
0.0
 11
134.131
 21
1.84933
 31
0.0
  0
LINE
  8
0
 62
     0
 10
134.131
 20
1.84933
 30
0.0
 11
137.282
 21
1.84933
 31
0.0
  0
LINE
  8
0
 62
     0
 10
137.282
 20
1.84933
 30
0.0
 11
137.282
 21
2.83049
 31
0.0
  0
LINE
  8
0
 62
     0
 10
137.282
 20
2.83049
 30
0.0
 11
139.007
 21
2.83049
 31
0.0
  0
LINE
  8
0
 62
     0
 10
139.007
 20
2.83049
 30
0.0
 11
139.007
 21
7.29947
 31
0.0
  0
LINE
  8
0
 62
     0
 10
139.007
 20
7.29947
 30
0.0
 11
140.682
 21
7.29947
 31
0.0
  0
LINE
  8
0
 62
     0
 10
140.682
 20
7.29947
 30
0.0
 11
140.682
 21
6.54981
 31
0.0
  0
LINE
  8
0
 62
     0
 10
140.682
 20
6.54981
 30
0.0
 11
139.882
 21
6.54981
 31
0.0
  0
LINE
  8
0
 62
     0
 10
139.882
 20
6.54981
 30
0.0
 11
139.882
 21
3.59943
 31
0.0
  0
LINE
  8
0
 62
     0
 10
139.882
 20
3.59943
 30
0.0
 11
140.682
 21
3.59943
 31
0.0
  0
LINE
  8
0
 62
     0
 10
140.682
 20
3.59943
 30
0.0
 11
140.682
 21
2.60036
 31
0.0
  0
LINE
  8
0
 62
     0
 10
140.682
 20
2.60036
 30
0.0
 11
154.532
 21
2.60036
 31
0.0
  0
LINE
  8
0
 62
     0
 10
154.532
 20
2.60036
 30
0.0
 11
154.532
 21
3.59943
 31
0.0
  0
LINE
  8
0
 62
     0
 10
154.532
 20
3.59943
 30
0.0
 11
155.331
 21
3.59943
 31
0.0
  0
LINE
  8
0
 62
     0
 10
155.331
 20
3.59943
 30
0.0
 11
155.331
 21
6.54981
 31
0.0
  0
LINE
  8
0
 62
     0
 10
155.331
 20
6.54981
 30
0.0
 11
154.532
 21
6.54981
 31
0.0
  0
LINE
  8
0
 62
     0
 10
154.532
 20
6.54981
 30
0.0
 11
154.532
 21
7.29947
 31
0.0
  0
LINE
  8
0
 62
     0
 10
154.532
 20
7.29947
 30
0.0
 11
156.206
 21
7.29947
 31
0.0
  0
LINE
  8
0
 62
     0
 10
156.206
 20
7.29947
 30
0.0
 11
156.206
 21
2.83049
 31
0.0
  0
LINE
  8
0
 62
     0
 10
156.206
 20
2.83049
 30
0.0
 11
157.933
 21
2.83049
 31
0.0
  0
LINE
  8
0
 62
     0
 10
157.933
 20
2.83049
 30
0.0
 11
157.933
 21
1.84933
 31
0.0
  0
LINE
  8
0
 62
     0
 10
157.933
 20
1.84933
 30
0.0
 11
161.082
 21
1.84933
 31
0.0
  0
LINE
  8
0
 62
     0
 10
161.082
 20
1.84933
 30
0.0
 11
161.082
 21
2.83049
 31
0.0
  0
LINE
  8
0
 62
     0
 10
161.082
 20
2.83049
 30
0.0
 11
162.808
 21
2.83049
 31
0.0
  0
LINE
  8
0
 62
     0
 10
162.808
 20
2.83049
 30
0.0
 11
162.808
 21
9.10057
 31
0.0
  0
LINE
  8
0
 62
     0
 10
162.808
 20
9.10057
 30
0.0
 11
163.632
 21
9.10057
 31
0.0
  0
LINE
  8
0
 62
     0
 10
163.632
 20
9.10057
 30
0.0
 11
163.632
 21
11.7492
 31
0.0
  0
LINE
  8
0
 62
     0
 10
163.632
 20
11.7492
 30
0.0
 11
162.808
 21
11.7492
 31
0.0
  0
LINE
  8
0
 62
     0
 10
162.808
 20
11.7492
 30
0.0
 11
162.808
 21
14.9806
 31
0.0
  0
LINE
  8
0
 62
     0
 10
162.808
 20
14.9806
 30
0.0
 11
161.082
 21
14.9806
 31
0.0
  0
LINE
  8
0
 62
     0
 10
161.082
 20
14.9806
 30
0.0
 11
161.082
 21
15.8998
 31
0.0
  0
LINE
  8
0
 62
     0
 10
161.082
 20
15.8998
 30
0.0
 11
157.933
 21
15.8998
 31
0.0
  0
LINE
  8
0
 62
     0
 10
157.933
 20
15.8998
 30
0.0
 11
157.933
 21
14.9806
 31
0.0
  0
LINE
  8
0
 62
     0
 10
157.933
 20
14.9806
 30
0.0
 11
156.206
 21
14.9806
 31
0.0
  0
LINE
  8
0
 62
     0
 10
156.206
 20
14.9806
 30
0.0
 11
156.206
 21
11.7492
 31
0.0
  0
LINE
  8
0
 62
     0
 10
156.206
 20
11.7492
 30
0.0
 11
154.532
 21
11.7492
 31
0.0
  0
LINE
  8
0
 62
     0
 10
154.532
 20
11.7492
 30
0.0
 11
154.532
 21
12.4988
 31
0.0
  0
LINE
  8
0
 62
     0
 10
154.532
 20
12.4988
 30
0.0
 11
155.331
 21
12.4988
 31
0.0
  0
LINE
  8
0
 62
     0
 10
155.331
 20
12.4988
 30
0.0
 11
155.331
 21
15.4506
 31
0.0
  0
LINE
  8
0
 62
     0
 10
155.331
 20
15.4506
 30
0.0
 11
154.532
 21
15.4506
 31
0.0
  0
LINE
  8
0
 62
     0
 10
154.532
 20
15.4506
 30
0.0
 11
154.532
 21
16.4496
 31
0.0
  0
LINE
  8
0
 62
     0
 10
154.532
 20
16.4496
 30
0.0
 11
140.682
 21
16.4496
 31
0.0
  0
LINE
  8
0
 62
     0
 10
24.0013
 20
16.4496
 30
0.0
 11
24.0013
 21
15.4506
 31
0.0
  0
LINE
  8
0
 62
     0
 10
24.0013
 20
15.4506
 30
0.0
 11
23.2006
 21
15.4506
 31
0.0
  0
LINE
  8
0
 62
     0
 10
23.2006
 20
15.4506
 30
0.0
 11
23.2006
 21
12.4988
 31
0.0
  0
LINE
  8
0
 62
     0
 10
23.2006
 20
12.4988
 30
0.0
 11
24.0013
 21
12.4988
 31
0.0
  0
LINE
  8
0
 62
     0
 10
24.0013
 20
12.4988
 30
0.0
 11
24.0013
 21
6.54981
 31
0.0
  0
LINE
  8
0
 62
     0
 10
24.0013
 20
6.54981
 30
0.0
 11
23.2006
 21
6.54981
 31
0.0
  0
LINE
  8
0
 62
     0
 10
23.2006
 20
6.54981
 30
0.0
 11
23.2006
 21
3.59943
 31
0.0
  0
LINE
  8
0
 62
     0
 10
23.2006
 20
3.59943
 30
0.0
 11
24.0013
 21
3.59943
 31
0.0
  0
LINE
  8
0
 62
     0
 10
24.0013
 20
3.59943
 30
0.0
 11
24.0013
 21
2.60036
 31
0.0
  0
LINE
  8
0
 62
     0
 10
24.0013
 20
2.60036
 30
0.0
 11
37.8506
 21
2.60036
 31
0.0
  0
LINE
  8
0
 62
     0
 10
37.8506
 20
2.60036
 30
0.0
 11
37.8506
 21
3.59943
 31
0.0
  0
LINE
  8
0
 62
     0
 10
37.8506
 20
3.59943
 30
0.0
 11
38.65
 21
3.59943
 31
0.0
  0
LINE
  8
0
 62
     0
 10
38.65
 20
3.59943
 30
0.0
 11
38.65
 21
6.54981
 31
0.0
  0
LINE
  8
0
 62
     0
 10
38.65
 20
6.54981
 30
0.0
 11
37.8506
 21
6.54981
 31
0.0
  0
LINE
  8
0
 62
     0
 10
37.8506
 20
6.54981
 30
0.0
 11
37.8506
 21
12.4988
 31
0.0
  0
LINE
  8
0
 62
     0
 10
37.8506
 20
12.4988
 30
0.0
 11
38.65
 21
12.4988
 31
0.0
  0
LINE
  8
0
 62
     0
 10
38.65
 20
12.4988
 30
0.0
 11
38.65
 21
15.4506
 31
0.0
  0
LINE
  8
0
 62
     0
 10
38.65
 20
15.4506
 30
0.0
 11
37.8506
 21
15.4506
 31
0.0
  0
LINE
  8
0
 62
     0
 10
37.8506
 20
15.4506
 30
0.0
 11
37.8506
 21
16.4496
 31
0.0
  0
LINE
  8
0
 62
     0
 10
37.8506
 20
16.4496
 30
0.0
 11
24.0013
 21
16.4496
 31
0.0
  0
LINE
  8
0
 62
     0
 10
47.8137
 20
16.4496
 30
0.0
 11
47.8137
 21
15.4506
 31
0.0
  0
LINE
  8
0
 62
     0
 10
47.8137
 20
15.4506
 30
0.0
 11
47.0133
 21
15.4506
 31
0.0
  0
LINE
  8
0
 62
     0
 10
47.0133
 20
15.4506
 30
0.0
 11
47.0133
 21
12.4988
 31
0.0
  0
LINE
  8
0
 62
     0
 10
47.0133
 20
12.4988
 30
0.0
 11
47.8137
 21
12.4988
 31
0.0
  0
LINE
  8
0
 62
     0
 10
47.8137
 20
12.4988
 30
0.0
 11
47.8137
 21
6.54981
 31
0.0
  0
LINE
  8
0
 62
     0
 10
47.8137
 20
6.54981
 30
0.0
 11
47.0133
 21
6.54981
 31
0.0
  0
LINE
  8
0
 62
     0
 10
47.0133
 20
6.54981
 30
0.0
 11
47.0133
 21
3.59943
 31
0.0
  0
LINE
  8
0
 62
     0
 10
47.0133
 20
3.59943
 30
0.0
 11
47.8137
 21
3.59943
 31
0.0
  0
LINE
  8
0
 62
     0
 10
47.8137
 20
3.59943
 30
0.0
 11
47.8137
 21
2.60036
 31
0.0
  0
LINE
  8
0
 62
     0
 10
47.8137
 20
2.60036
 30
0.0
 11
61.6631
 21
2.60036
 31
0.0
  0
LINE
  8
0
 62
     0
 10
61.6631
 20
2.60036
 30
0.0
 11
61.6631
 21
3.59943
 31
0.0
  0
LINE
  8
0
 62
     0
 10
61.6631
 20
3.59943
 30
0.0
 11
62.4639
 21
3.59943
 31
0.0
  0
LINE
  8
0
 62
     0
 10
62.4639
 20
3.59943
 30
0.0
 11
62.4639
 21
6.54981
 31
0.0
  0
LINE
  8
0
 62
     0
 10
62.4639
 20
6.54981
 30
0.0
 11
61.6631
 21
6.54981
 31
0.0
  0
LINE
  8
0
 62
     0
 10
61.6631
 20
6.54981
 30
0.0
 11
61.6631
 21
12.4988
 31
0.0
  0
LINE
  8
0
 62
     0
 10
61.6631
 20
12.4988
 30
0.0
 11
62.4639
 21
12.4988
 31
0.0
  0
LINE
  8
0
 62
     0
 10
62.4639
 20
12.4988
 30
0.0
 11
62.4639
 21
15.4506
 31
0.0
  0
LINE
  8
0
 62
     0
 10
62.4639
 20
15.4506
 30
0.0
 11
61.6631
 21
15.4506
 31
0.0
  0
LINE
  8
0
 62
     0
 10
61.6631
 20
15.4506
 30
0.0
 11
61.6631
 21
16.4496
 31
0.0
  0
LINE
  8
0
 62
     0
 10
61.6631
 20
16.4496
 30
0.0
 11
47.8137
 21
16.4496
 31
0.0
  0
LINE
  8
0
 62
     0
 10
71.6262
 20
16.4496
 30
0.0
 11
71.6262
 21
15.4506
 31
0.0
  0
LINE
  8
0
 62
     0
 10
71.6262
 20
15.4506
 30
0.0
 11
70.8244
 21
15.4506
 31
0.0
  0
LINE
  8
0
 62
     0
 10
70.8244
 20
15.4506
 30
0.0
 11
70.8244
 21
12.4988
 31
0.0
  0
LINE
  8
0
 62
     0
 10
70.8244
 20
12.4988
 30
0.0
 11
71.6262
 21
12.4988
 31
0.0
  0
LINE
  8
0
 62
     0
 10
71.6262
 20
12.4988
 30
0.0
 11
71.6262
 21
6.54981
 31
0.0
  0
LINE
  8
0
 62
     0
 10
71.6262
 20
6.54981
 30
0.0
 11
70.8244
 21
6.54981
 31
0.0
  0
LINE
  8
0
 62
     0
 10
70.8244
 20
6.54981
 30
0.0
 11
70.8244
 21
3.59943
 31
0.0
  0
LINE
  8
0
 62
     0
 10
70.8244
 20
3.59943
 30
0.0
 11
71.6262
 21
3.59943
 31
0.0
  0
LINE
  8
0
 62
     0
 10
71.6262
 20
3.59943
 30
0.0
 11
71.6262
 21
2.60036
 31
0.0
  0
LINE
  8
0
 62
     0
 10
71.6262
 20
2.60036
 30
0.0
 11
85.4756
 21
2.60036
 31
0.0
  0
LINE
  8
0
 62
     0
 10
85.4756
 20
2.60036
 30
0.0
 11
85.4756
 21
3.59943
 31
0.0
  0
LINE
  8
0
 62
     0
 10
85.4756
 20
3.59943
 30
0.0
 11
86.275
 21
3.59943
 31
0.0
  0
LINE
  8
0
 62
     0
 10
86.275
 20
3.59943
 30
0.0
 11
86.275
 21
6.54981
 31
0.0
  0
LINE
  8
0
 62
     0
 10
86.275
 20
6.54981
 30
0.0
 11
85.4756
 21
6.54981
 31
0.0
  0
LINE
  8
0
 62
     0
 10
85.4756
 20
6.54981
 30
0.0
 11
85.4756
 21
12.4988
 31
0.0
  0
LINE
  8
0
 62
     0
 10
85.4756
 20
12.4988
 30
0.0
 11
86.275
 21
12.4988
 31
0.0
  0
LINE
  8
0
 62
     0
 10
86.275
 20
12.4988
 30
0.0
 11
86.275
 21
15.4506
 31
0.0
  0
LINE
  8
0
 62
     0
 10
86.275
 20
15.4506
 30
0.0
 11
85.4756
 21
15.4506
 31
0.0
  0
LINE
  8
0
 62
     0
 10
85.4756
 20
15.4506
 30
0.0
 11
85.4756
 21
16.4496
 31
0.0
  0
LINE
  8
0
 62
     0
 10
85.4756
 20
16.4496
 30
0.0
 11
71.6262
 21
16.4496
 31
0.0
  0
LINE
  8
0
 62
     0
 10
171.639
 20
16.4496
 30
0.0
 11
171.639
 21
15.4506
 31
0.0
  0
LINE
  8
0
 62
     0
 10
171.639
 20
15.4506
 30
0.0
 11
170.838
 21
15.4506
 31
0.0
  0
LINE
  8
0
 62
     0
 10
170.838
 20
15.4506
 30
0.0
 11
170.838
 21
12.4988
 31
0.0
  0
LINE
  8
0
 62
     0
 10
170.838
 20
12.4988
 30
0.0
 11
171.639
 21
12.4988
 31
0.0
  0
LINE
  8
0
 62
     0
 10
171.639
 20
12.4988
 30
0.0
 11
171.639
 21
6.54981
 31
0.0
  0
LINE
  8
0
 62
     0
 10
171.639
 20
6.54981
 30
0.0
 11
170.838
 21
6.54981
 31
0.0
  0
LINE
  8
0
 62
     0
 10
170.838
 20
6.54981
 30
0.0
 11
170.838
 21
3.59943
 31
0.0
  0
LINE
  8
0
 62
     0
 10
170.838
 20
3.59943
 30
0.0
 11
171.639
 21
3.59943
 31
0.0
  0
LINE
  8
0
 62
     0
 10
171.639
 20
3.59943
 30
0.0
 11
171.639
 21
2.60036
 31
0.0
  0
LINE
  8
0
 62
     0
 10
171.639
 20
2.60036
 30
0.0
 11
185.488
 21
2.60036
 31
0.0
  0
LINE
  8
0
 62
     0
 10
185.488
 20
2.60036
 30
0.0
 11
185.488
 21
3.59943
 31
0.0
  0
LINE
  8
0
 62
     0
 10
185.488
 20
3.59943
 30
0.0
 11
186.289
 21
3.59943
 31
0.0
  0
LINE
  8
0
 62
     0
 10
186.289
 20
3.59943
 30
0.0
 11
186.289
 21
6.54981
 31
0.0
  0
LINE
  8
0
 62
     0
 10
186.289
 20
6.54981
 30
0.0
 11
185.488
 21
6.54981
 31
0.0
  0
LINE
  8
0
 62
     0
 10
185.488
 20
6.54981
 30
0.0
 11
185.488
 21
12.4988
 31
0.0
  0
LINE
  8
0
 62
     0
 10
185.488
 20
12.4988
 30
0.0
 11
186.289
 21
12.4988
 31
0.0
  0
LINE
  8
0
 62
     0
 10
186.289
 20
12.4988
 30
0.0
 11
186.289
 21
15.4506
 31
0.0
  0
LINE
  8
0
 62
     0
 10
186.289
 20
15.4506
 30
0.0
 11
185.488
 21
15.4506
 31
0.0
  0
LINE
  8
0
 62
     0
 10
185.488
 20
15.4506
 30
0.0
 11
185.488
 21
16.4496
 31
0.0
  0
LINE
  8
0
 62
     0
 10
185.488
 20
16.4496
 30
0.0
 11
171.639
 21
16.4496
 31
0.0
  0
LINE
  8
0
 62
     0
 10
193.07
 20
16.4496
 30
0.0
 11
193.07
 21
15.4506
 31
0.0
  0
LINE
  8
0
 62
     0
 10
193.07
 20
15.4506
 30
0.0
 11
192.27
 21
15.4506
 31
0.0
  0
LINE
  8
0
 62
     0
 10
192.27
 20
15.4506
 30
0.0
 11
192.27
 21
12.4988
 31
0.0
  0
LINE
  8
0
 62
     0
 10
192.27
 20
12.4988
 30
0.0
 11
193.07
 21
12.4988
 31
0.0
  0
LINE
  8
0
 62
     0
 10
193.07
 20
12.4988
 30
0.0
 11
193.07
 21
10.6343
 31
0.0
  0
LINE
  8
0
 62
     0
 10
193.07
 20
10.6343
 30
0.0
 11
192.805
 21
11.1497
 31
0.0
  0
LINE
  8
0
 62
     0
 10
192.805
 20
11.1497
 30
0.0
 11
192.27
 21
11.6858
 31
0.0
  0
LINE
  8
0
 62
     0
 10
192.27
 20
11.6858
 30
0.0
 11
191.594
 21
12.0317
 31
0.0
  0
LINE
  8
0
 62
     0
 10
191.594
 20
12.0317
 30
0.0
 11
190.846
 21
12.1502
 31
0.0
  0
LINE
  8
0
 62
     0
 10
190.846
 20
12.1502
 30
0.0
 11
190.096
 21
12.0317
 31
0.0
  0
LINE
  8
0
 62
     0
 10
190.096
 20
12.0317
 30
0.0
 11
189.418
 21
11.6858
 31
0.0
  0
LINE
  8
0
 62
     0
 10
189.418
 20
11.6858
 30
0.0
 11
188.882
 21
11.1497
 31
0.0
  0
LINE
  8
0
 62
     0
 10
188.882
 20
11.1497
 30
0.0
 11
188.539
 21
10.4745
 31
0.0
  0
LINE
  8
0
 62
     0
 10
188.539
 20
10.4745
 30
0.0
 11
188.42
 21
9.72344
 31
0.0
  0
LINE
  8
0
 62
     0
 10
188.42
 20
9.72344
 30
0.0
 11
188.539
 21
8.97516
 31
0.0
  0
LINE
  8
0
 62
     0
 10
188.539
 20
8.97516
 30
0.0
 11
188.882
 21
8.29853
 31
0.0
  0
LINE
  8
0
 62
     0
 10
188.882
 20
8.29853
 30
0.0
 11
189.418
 21
7.76249
 31
0.0
  0
LINE
  8
0
 62
     0
 10
189.418
 20
7.76249
 30
0.0
 11
190.096
 21
7.41796
 31
0.0
  0
LINE
  8
0
 62
     0
 10
190.096
 20
7.41796
 30
0.0
 11
190.846
 21
7.29947
 31
0.0
  0
LINE
  8
0
 62
     0
 10
190.846
 20
7.29947
 30
0.0
 11
191.594
 21
7.41796
 31
0.0
  0
LINE
  8
0
 62
     0
 10
191.594
 20
7.41796
 30
0.0
 11
192.27
 21
7.76249
 31
0.0
  0
LINE
  8
0
 62
     0
 10
192.27
 20
7.76249
 30
0.0
 11
192.805
 21
8.29853
 31
0.0
  0
LINE
  8
0
 62
     0
 10
192.805
 20
8.29853
 30
0.0
 11
193.07
 21
8.81394
 31
0.0
  0
LINE
  8
0
 62
     0
 10
193.07
 20
8.81394
 30
0.0
 11
193.07
 21
6.54981
 31
0.0
  0
LINE
  8
0
 62
     0
 10
193.07
 20
6.54981
 30
0.0
 11
192.27
 21
6.54981
 31
0.0
  0
LINE
  8
0
 62
     0
 10
192.27
 20
6.54981
 30
0.0
 11
192.27
 21
3.59943
 31
0.0
  0
LINE
  8
0
 62
     0
 10
192.27
 20
3.59943
 30
0.0
 11
193.07
 21
3.59943
 31
0.0
  0
LINE
  8
0
 62
     0
 10
193.07
 20
3.59943
 30
0.0
 11
193.07
 21
2.60036
 31
0.0
  0
LINE
  8
0
 62
     0
 10
193.07
 20
2.60036
 30
0.0
 11
206.919
 21
2.60036
 31
0.0
  0
LINE
  8
0
 62
     0
 10
206.919
 20
2.60036
 30
0.0
 11
206.919
 21
3.59943
 31
0.0
  0
LINE
  8
0
 62
     0
 10
206.919
 20
3.59943
 30
0.0
 11
207.719
 21
3.59943
 31
0.0
  0
LINE
  8
0
 62
     0
 10
207.719
 20
3.59943
 30
0.0
 11
207.719
 21
6.54981
 31
0.0
  0
LINE
  8
0
 62
     0
 10
207.719
 20
6.54981
 30
0.0
 11
206.919
 21
6.54981
 31
0.0
  0
LINE
  8
0
 62
     0
 10
206.919
 20
6.54981
 30
0.0
 11
206.919
 21
12.4988
 31
0.0
  0
LINE
  8
0
 62
     0
 10
206.919
 20
12.4988
 30
0.0
 11
207.719
 21
12.4988
 31
0.0
  0
LINE
  8
0
 62
     0
 10
207.719
 20
12.4988
 30
0.0
 11
207.719
 21
15.4506
 31
0.0
  0
LINE
  8
0
 62
     0
 10
207.719
 20
15.4506
 30
0.0
 11
206.919
 21
15.4506
 31
0.0
  0
LINE
  8
0
 62
     0
 10
206.919
 20
15.4506
 30
0.0
 11
206.919
 21
16.4496
 31
0.0
  0
LINE
  8
0
 62
     0
 10
206.919
 20
16.4496
 30
0.0
 11
193.07
 21
16.4496
 31
0.0
  0
LINE
  8
0
 62
     0
 10
212.12
 20
16.4496
 30
0.0
 11
212.12
 21
15.4506
 31
0.0
  0
LINE
  8
0
 62
     0
 10
212.12
 20
15.4506
 30
0.0
 11
211.32
 21
15.4506
 31
0.0
  0
LINE
  8
0
 62
     0
 10
211.32
 20
15.4506
 30
0.0
 11
211.32
 21
12.4988
 31
0.0
  0
LINE
  8
0
 62
     0
 10
211.32
 20
12.4988
 30
0.0
 11
212.12
 21
12.4988
 31
0.0
  0
LINE
  8
0
 62
     0
 10
212.12
 20
12.4988
 30
0.0
 11
212.12
 21
6.54981
 31
0.0
  0
LINE
  8
0
 62
     0
 10
212.12
 20
6.54981
 30
0.0
 11
211.32
 21
6.54981
 31
0.0
  0
LINE
  8
0
 62
     0
 10
211.32
 20
6.54981
 30
0.0
 11
211.32
 21
3.59943
 31
0.0
  0
LINE
  8
0
 62
     0
 10
211.32
 20
3.59943
 30
0.0
 11
212.12
 21
3.59943
 31
0.0
  0
LINE
  8
0
 62
     0
 10
212.12
 20
3.59943
 30
0.0
 11
212.12
 21
2.60036
 31
0.0
  0
LINE
  8
0
 62
     0
 10
212.12
 20
2.60036
 30
0.0
 11
225.969
 21
2.60036
 31
0.0
  0
LINE
  8
0
 62
     0
 10
225.969
 20
2.60036
 30
0.0
 11
225.969
 21
3.59943
 31
0.0
  0
LINE
  8
0
 62
     0
 10
225.969
 20
3.59943
 30
0.0
 11
226.769
 21
3.59943
 31
0.0
  0
LINE
  8
0
 62
     0
 10
226.769
 20
3.59943
 30
0.0
 11
226.769
 21
6.54981
 31
0.0
  0
LINE
  8
0
 62
     0
 10
226.769
 20
6.54981
 30
0.0
 11
225.969
 21
6.54981
 31
0.0
  0
LINE
  8
0
 62
     0
 10
225.969
 20
6.54981
 30
0.0
 11
225.969
 21
12.4988
 31
0.0
  0
LINE
  8
0
 62
     0
 10
225.969
 20
12.4988
 30
0.0
 11
226.769
 21
12.4988
 31
0.0
  0
LINE
  8
0
 62
     0
 10
226.769
 20
12.4988
 30
0.0
 11
226.769
 21
15.4506
 31
0.0
  0
LINE
  8
0
 62
     0
 10
226.769
 20
15.4506
 30
0.0
 11
225.969
 21
15.4506
 31
0.0
  0
LINE
  8
0
 62
     0
 10
225.969
 20
15.4506
 30
0.0
 11
225.969
 21
16.4496
 31
0.0
  0
LINE
  8
0
 62
     0
 10
225.969
 20
16.4496
 30
0.0
 11
212.12
 21
16.4496
 31
0.0
  0
LINE
  8
0
 62
     0
 10
231.169
 20
16.4496
 30
0.0
 11
231.169
 21
15.4506
 31
0.0
  0
LINE
  8
0
 62
     0
 10
231.169
 20
15.4506
 30
0.0
 11
230.37
 21
15.4506
 31
0.0
  0
LINE
  8
0
 62
     0
 10
230.37
 20
15.4506
 30
0.0
 11
230.37
 21
12.4988
 31
0.0
  0
LINE
  8
0
 62
     0
 10
230.37
 20
12.4988
 30
0.0
 11
231.169
 21
12.4988
 31
0.0
  0
LINE
  8
0
 62
     0
 10
231.169
 20
12.4988
 30
0.0
 11
231.169
 21
6.54981
 31
0.0
  0
LINE
  8
0
 62
     0
 10
231.169
 20
6.54981
 30
0.0
 11
230.37
 21
6.54981
 31
0.0
  0
LINE
  8
0
 62
     0
 10
230.37
 20
6.54981
 30
0.0
 11
230.37
 21
3.59943
 31
0.0
  0
LINE
  8
0
 62
     0
 10
230.37
 20
3.59943
 30
0.0
 11
231.169
 21
3.59943
 31
0.0
  0
LINE
  8
0
 62
     0
 10
231.169
 20
3.59943
 30
0.0
 11
231.169
 21
2.60036
 31
0.0
  0
LINE
  8
0
 62
     0
 10
231.169
 20
2.60036
 30
0.0
 11
245.019
 21
2.60036
 31
0.0
  0
LINE
  8
0
 62
     0
 10
245.019
 20
2.60036
 30
0.0
 11
245.019
 21
3.59943
 31
0.0
  0
LINE
  8
0
 62
     0
 10
245.019
 20
3.59943
 30
0.0
 11
245.82
 21
3.59943
 31
0.0
  0
LINE
  8
0
 62
     0
 10
245.82
 20
3.59943
 30
0.0
 11
245.82
 21
6.54981
 31
0.0
  0
LINE
  8
0
 62
     0
 10
245.82
 20
6.54981
 30
0.0
 11
245.019
 21
6.54981
 31
0.0
  0
LINE
  8
0
 62
     0
 10
245.019
 20
6.54981
 30
0.0
 11
245.019
 21
12.4988
 31
0.0
  0
LINE
  8
0
 62
     0
 10
245.019
 20
12.4988
 30
0.0
 11
245.82
 21
12.4988
 31
0.0
  0
LINE
  8
0
 62
     0
 10
245.82
 20
12.4988
 30
0.0
 11
245.82
 21
15.4506
 31
0.0
  0
LINE
  8
0
 62
     0
 10
245.82
 20
15.4506
 30
0.0
 11
245.019
 21
15.4506
 31
0.0
  0
LINE
  8
0
 62
     0
 10
245.019
 20
15.4506
 30
0.0
 11
245.019
 21
16.4496
 31
0.0
  0
LINE
  8
0
 62
     0
 10
245.019
 20
16.4496
 30
0.0
 11
231.169
 21
16.4496
 31
0.0
  0
LINE
  8
0
 62
     0
 10
250.219
 20
16.4496
 30
0.0
 11
250.219
 21
15.4506
 31
0.0
  0
LINE
  8
0
 62
     0
 10
250.219
 20
15.4506
 30
0.0
 11
249.42
 21
15.4506
 31
0.0
  0
LINE
  8
0
 62
     0
 10
249.42
 20
15.4506
 30
0.0
 11
249.42
 21
12.4988
 31
0.0
  0
LINE
  8
0
 62
     0
 10
249.42
 20
12.4988
 30
0.0
 11
250.219
 21
12.4988
 31
0.0
  0
LINE
  8
0
 62
     0
 10
250.219
 20
12.4988
 30
0.0
 11
250.219
 21
6.54981
 31
0.0
  0
LINE
  8
0
 62
     0
 10
250.219
 20
6.54981
 30
0.0
 11
249.42
 21
6.54981
 31
0.0
  0
LINE
  8
0
 62
     0
 10
249.42
 20
6.54981
 30
0.0
 11
249.42
 21
3.59943
 31
0.0
  0
LINE
  8
0
 62
     0
 10
249.42
 20
3.59943
 30
0.0
 11
250.219
 21
3.59943
 31
0.0
  0
LINE
  8
0
 62
     0
 10
250.219
 20
3.59943
 30
0.0
 11
250.219
 21
2.60036
 31
0.0
  0
LINE
  8
0
 62
     0
 10
250.219
 20
2.60036
 30
0.0
 11
264.069
 21
2.60036
 31
0.0
  0
LINE
  8
0
 62
     0
 10
264.069
 20
2.60036
 30
0.0
 11
264.069
 21
3.59943
 31
0.0
  0
LINE
  8
0
 62
     0
 10
264.069
 20
3.59943
 30
0.0
 11
264.869
 21
3.59943
 31
0.0
  0
LINE
  8
0
 62
     0
 10
264.869
 20
3.59943
 30
0.0
 11
264.869
 21
6.54981
 31
0.0
  0
LINE
  8
0
 62
     0
 10
264.869
 20
6.54981
 30
0.0
 11
264.069
 21
6.54981
 31
0.0
  0
LINE
  8
0
 62
     0
 10
264.069
 20
6.54981
 30
0.0
 11
264.069
 21
12.4988
 31
0.0
  0
LINE
  8
0
 62
     0
 10
264.069
 20
12.4988
 30
0.0
 11
264.869
 21
12.4988
 31
0.0
  0
LINE
  8
0
 62
     0
 10
264.869
 20
12.4988
 30
0.0
 11
264.869
 21
15.4506
 31
0.0
  0
LINE
  8
0
 62
     0
 10
264.869
 20
15.4506
 30
0.0
 11
264.069
 21
15.4506
 31
0.0
  0
LINE
  8
0
 62
     0
 10
264.069
 20
15.4506
 30
0.0
 11
264.069
 21
16.4496
 31
0.0
  0
LINE
  8
0
 62
     0
 10
264.069
 20
16.4496
 30
0.0
 11
250.219
 21
16.4496
 31
0.0
  0
LINE
  8
0
 62
     0
 10
24.0013
 20
35.4997
 30
0.0
 11
24.0013
 21
34.4992
 31
0.0
  0
LINE
  8
0
 62
     0
 10
24.0013
 20
34.4992
 30
0.0
 11
23.2006
 21
34.4992
 31
0.0
  0
LINE
  8
0
 62
     0
 10
23.2006
 20
34.4992
 30
0.0
 11
23.2006
 21
31.5502
 31
0.0
  0
LINE
  8
0
 62
     0
 10
23.2006
 20
31.5502
 30
0.0
 11
24.0013
 21
31.5502
 31
0.0
  0
LINE
  8
0
 62
     0
 10
24.0013
 20
31.5502
 30
0.0
 11
24.0013
 21
25.5998
 31
0.0
  0
LINE
  8
0
 62
     0
 10
24.0013
 20
25.5998
 30
0.0
 11
23.2006
 21
25.5998
 31
0.0
  0
LINE
  8
0
 62
     0
 10
23.2006
 20
25.5998
 30
0.0
 11
23.2006
 21
22.6494
 31
0.0
  0
LINE
  8
0
 62
     0
 10
23.2006
 20
22.6494
 30
0.0
 11
24.0013
 21
22.6494
 31
0.0
  0
LINE
  8
0
 62
     0
 10
24.0013
 20
22.6494
 30
0.0
 11
24.0013
 21
21.6504
 31
0.0
  0
LINE
  8
0
 62
     0
 10
24.0013
 20
21.6504
 30
0.0
 11
37.8506
 21
21.6504
 31
0.0
  0
LINE
  8
0
 62
     0
 10
37.8506
 20
21.6504
 30
0.0
 11
37.8506
 21
22.6494
 31
0.0
  0
LINE
  8
0
 62
     0
 10
37.8506
 20
22.6494
 30
0.0
 11
38.65
 21
22.6494
 31
0.0
  0
LINE
  8
0
 62
     0
 10
38.65
 20
22.6494
 30
0.0
 11
38.65
 21
25.5998
 31
0.0
  0
LINE
  8
0
 62
     0
 10
38.65
 20
25.5998
 30
0.0
 11
37.8506
 21
25.5998
 31
0.0
  0
LINE
  8
0
 62
     0
 10
37.8506
 20
25.5998
 30
0.0
 11
37.8506
 21
31.5502
 31
0.0
  0
LINE
  8
0
 62
     0
 10
37.8506
 20
31.5502
 30
0.0
 11
38.65
 21
31.5502
 31
0.0
  0
LINE
  8
0
 62
     0
 10
38.65
 20
31.5502
 30
0.0
 11
38.65
 21
34.4992
 31
0.0
  0
LINE
  8
0
 62
     0
 10
38.65
 20
34.4992
 30
0.0
 11
37.8506
 21
34.4992
 31
0.0
  0
LINE
  8
0
 62
     0
 10
37.8506
 20
34.4992
 30
0.0
 11
37.8506
 21
35.4997
 31
0.0
  0
LINE
  8
0
 62
     0
 10
37.8506
 20
35.4997
 30
0.0
 11
24.0013
 21
35.4997
 31
0.0
  0
LINE
  8
0
 62
     0
 10
45.4325
 20
35.4997
 30
0.0
 11
45.4325
 21
34.4992
 31
0.0
  0
LINE
  8
0
 62
     0
 10
45.4325
 20
34.4992
 30
0.0
 11
44.632
 21
34.4992
 31
0.0
  0
LINE
  8
0
 62
     0
 10
44.632
 20
34.4992
 30
0.0
 11
44.632
 21
31.5502
 31
0.0
  0
LINE
  8
0
 62
     0
 10
44.632
 20
31.5502
 30
0.0
 11
45.4325
 21
31.5502
 31
0.0
  0
LINE
  8
0
 62
     0
 10
45.4325
 20
31.5502
 30
0.0
 11
45.4325
 21
25.5998
 31
0.0
  0
LINE
  8
0
 62
     0
 10
45.4325
 20
25.5998
 30
0.0
 11
44.632
 21
25.5998
 31
0.0
  0
LINE
  8
0
 62
     0
 10
44.632
 20
25.5998
 30
0.0
 11
44.632
 21
22.6494
 31
0.0
  0
LINE
  8
0
 62
     0
 10
44.632
 20
22.6494
 30
0.0
 11
45.4325
 21
22.6494
 31
0.0
  0
LINE
  8
0
 62
     0
 10
45.4325
 20
22.6494
 30
0.0
 11
45.4325
 21
21.6504
 31
0.0
  0
LINE
  8
0
 62
     0
 10
45.4325
 20
21.6504
 30
0.0
 11
59.2832
 21
21.6504
 31
0.0
  0
LINE
  8
0
 62
     0
 10
59.2832
 20
21.6504
 30
0.0
 11
59.2832
 21
22.6494
 31
0.0
  0
LINE
  8
0
 62
     0
 10
59.2832
 20
22.6494
 30
0.0
 11
60.0826
 21
22.6494
 31
0.0
  0
LINE
  8
0
 62
     0
 10
60.0826
 20
22.6494
 30
0.0
 11
60.0826
 21
25.5998
 31
0.0
  0
LINE
  8
0
 62
     0
 10
60.0826
 20
25.5998
 30
0.0
 11
59.2832
 21
25.5998
 31
0.0
  0
LINE
  8
0
 62
     0
 10
59.2832
 20
25.5998
 30
0.0
 11
59.2832
 21
31.5502
 31
0.0
  0
LINE
  8
0
 62
     0
 10
59.2832
 20
31.5502
 30
0.0
 11
60.0826
 21
31.5502
 31
0.0
  0
LINE
  8
0
 62
     0
 10
60.0826
 20
31.5502
 30
0.0
 11
60.0826
 21
34.4992
 31
0.0
  0
LINE
  8
0
 62
     0
 10
60.0826
 20
34.4992
 30
0.0
 11
59.2832
 21
34.4992
 31
0.0
  0
LINE
  8
0
 62
     0
 10
59.2832
 20
34.4992
 30
0.0
 11
59.2832
 21
35.4997
 31
0.0
  0
LINE
  8
0
 62
     0
 10
59.2832
 20
35.4997
 30
0.0
 11
45.4325
 21
35.4997
 31
0.0
  0
LINE
  8
0
 62
     0
 10
64.4825
 20
35.4997
 30
0.0
 11
64.4825
 21
34.4992
 31
0.0
  0
LINE
  8
0
 62
     0
 10
64.4825
 20
34.4992
 30
0.0
 11
63.682
 21
34.4992
 31
0.0
  0
LINE
  8
0
 62
     0
 10
63.682
 20
34.4992
 30
0.0
 11
63.682
 21
31.5502
 31
0.0
  0
LINE
  8
0
 62
     0
 10
63.682
 20
31.5502
 30
0.0
 11
64.4825
 21
31.5502
 31
0.0
  0
LINE
  8
0
 62
     0
 10
64.4825
 20
31.5502
 30
0.0
 11
64.4825
 21
25.5998
 31
0.0
  0
LINE
  8
0
 62
     0
 10
64.4825
 20
25.5998
 30
0.0
 11
63.682
 21
25.5998
 31
0.0
  0
LINE
  8
0
 62
     0
 10
63.682
 20
25.5998
 30
0.0
 11
63.682
 21
22.6494
 31
0.0
  0
LINE
  8
0
 62
     0
 10
63.682
 20
22.6494
 30
0.0
 11
64.4825
 21
22.6494
 31
0.0
  0
LINE
  8
0
 62
     0
 10
64.4825
 20
22.6494
 30
0.0
 11
64.4825
 21
21.6504
 31
0.0
  0
LINE
  8
0
 62
     0
 10
64.4825
 20
21.6504
 30
0.0
 11
78.3332
 21
21.6504
 31
0.0
  0
LINE
  8
0
 62
     0
 10
78.3332
 20
21.6504
 30
0.0
 11
78.3332
 21
22.6494
 31
0.0
  0
LINE
  8
0
 62
     0
 10
78.3332
 20
22.6494
 30
0.0
 11
79.1312
 21
22.6494
 31
0.0
  0
LINE
  8
0
 62
     0
 10
79.1312
 20
22.6494
 30
0.0
 11
79.1312
 21
25.5998
 31
0.0
  0
LINE
  8
0
 62
     0
 10
79.1312
 20
25.5998
 30
0.0
 11
78.3332
 21
25.5998
 31
0.0
  0
LINE
  8
0
 62
     0
 10
78.3332
 20
25.5998
 30
0.0
 11
78.3332
 21
31.5502
 31
0.0
  0
LINE
  8
0
 62
     0
 10
78.3332
 20
31.5502
 30
0.0
 11
79.1312
 21
31.5502
 31
0.0
  0
LINE
  8
0
 62
     0
 10
79.1312
 20
31.5502
 30
0.0
 11
79.1312
 21
34.4992
 31
0.0
  0
LINE
  8
0
 62
     0
 10
79.1312
 20
34.4992
 30
0.0
 11
78.3332
 21
34.4992
 31
0.0
  0
LINE
  8
0
 62
     0
 10
78.3332
 20
34.4992
 30
0.0
 11
78.3332
 21
35.4997
 31
0.0
  0
LINE
  8
0
 62
     0
 10
78.3332
 20
35.4997
 30
0.0
 11
64.4825
 21
35.4997
 31
0.0
  0
LINE
  8
0
 62
     0
 10
83.5325
 20
35.4997
 30
0.0
 11
83.5325
 21
34.4992
 31
0.0
  0
LINE
  8
0
 62
     0
 10
83.5325
 20
34.4992
 30
0.0
 11
82.7334
 21
34.4992
 31
0.0
  0
LINE
  8
0
 62
     0
 10
82.7334
 20
34.4992
 30
0.0
 11
82.7334
 21
31.5502
 31
0.0
  0
LINE
  8
0
 62
     0
 10
82.7334
 20
31.5502
 30
0.0
 11
83.5325
 21
31.5502
 31
0.0
  0
LINE
  8
0
 62
     0
 10
83.5325
 20
31.5502
 30
0.0
 11
83.5325
 21
25.5998
 31
0.0
  0
LINE
  8
0
 62
     0
 10
83.5325
 20
25.5998
 30
0.0
 11
82.7334
 21
25.5998
 31
0.0
  0
LINE
  8
0
 62
     0
 10
82.7334
 20
25.5998
 30
0.0
 11
82.7334
 21
22.6494
 31
0.0
  0
LINE
  8
0
 62
     0
 10
82.7334
 20
22.6494
 30
0.0
 11
83.5325
 21
22.6494
 31
0.0
  0
LINE
  8
0
 62
     0
 10
83.5325
 20
22.6494
 30
0.0
 11
83.5325
 21
21.6504
 31
0.0
  0
LINE
  8
0
 62
     0
 10
83.5325
 20
21.6504
 30
0.0
 11
97.3818
 21
21.6504
 31
0.0
  0
LINE
  8
0
 62
     0
 10
97.3818
 20
21.6504
 30
0.0
 11
97.3818
 21
22.6494
 31
0.0
  0
LINE
  8
0
 62
     0
 10
97.3818
 20
22.6494
 30
0.0
 11
98.1812
 21
22.6494
 31
0.0
  0
LINE
  8
0
 62
     0
 10
98.1812
 20
22.6494
 30
0.0
 11
98.1812
 21
25.5998
 31
0.0
  0
LINE
  8
0
 62
     0
 10
98.1812
 20
25.5998
 30
0.0
 11
97.3818
 21
25.5998
 31
0.0
  0
LINE
  8
0
 62
     0
 10
97.3818
 20
25.5998
 30
0.0
 11
97.3818
 21
31.5502
 31
0.0
  0
LINE
  8
0
 62
     0
 10
97.3818
 20
31.5502
 30
0.0
 11
98.1812
 21
31.5502
 31
0.0
  0
LINE
  8
0
 62
     0
 10
98.1812
 20
31.5502
 30
0.0
 11
98.1812
 21
34.4992
 31
0.0
  0
LINE
  8
0
 62
     0
 10
98.1812
 20
34.4992
 30
0.0
 11
97.3818
 21
34.4992
 31
0.0
  0
LINE
  8
0
 62
     0
 10
97.3818
 20
34.4992
 30
0.0
 11
97.3818
 21
35.4997
 31
0.0
  0
LINE
  8
0
 62
     0
 10
97.3818
 20
35.4997
 30
0.0
 11
83.5325
 21
35.4997
 31
0.0
  0
LINE
  8
0
 62
     0
 10
102.582
 20
35.4997
 30
0.0
 11
102.582
 21
34.4992
 31
0.0
  0
LINE
  8
0
 62
     0
 10
102.582
 20
34.4992
 30
0.0
 11
101.783
 21
34.4992
 31
0.0
  0
LINE
  8
0
 62
     0
 10
101.783
 20
34.4992
 30
0.0
 11
101.783
 21
31.5502
 31
0.0
  0
LINE
  8
0
 62
     0
 10
101.783
 20
31.5502
 30
0.0
 11
102.582
 21
31.5502
 31
0.0
  0
LINE
  8
0
 62
     0
 10
102.582
 20
31.5502
 30
0.0
 11
102.582
 21
25.5998
 31
0.0
  0
LINE
  8
0
 62
     0
 10
102.582
 20
25.5998
 30
0.0
 11
101.783
 21
25.5998
 31
0.0
  0
LINE
  8
0
 62
     0
 10
101.783
 20
25.5998
 30
0.0
 11
101.783
 21
22.6494
 31
0.0
  0
LINE
  8
0
 62
     0
 10
101.783
 20
22.6494
 30
0.0
 11
102.582
 21
22.6494
 31
0.0
  0
LINE
  8
0
 62
     0
 10
102.582
 20
22.6494
 30
0.0
 11
102.582
 21
21.6504
 31
0.0
  0
LINE
  8
0
 62
     0
 10
102.582
 20
21.6504
 30
0.0
 11
116.432
 21
21.6504
 31
0.0
  0
LINE
  8
0
 62
     0
 10
116.432
 20
21.6504
 30
0.0
 11
116.432
 21
22.6494
 31
0.0
  0
LINE
  8
0
 62
     0
 10
116.432
 20
22.6494
 30
0.0
 11
117.231
 21
22.6494
 31
0.0
  0
LINE
  8
0
 62
     0
 10
117.231
 20
22.6494
 30
0.0
 11
117.231
 21
25.5998
 31
0.0
  0
LINE
  8
0
 62
     0
 10
117.231
 20
25.5998
 30
0.0
 11
116.432
 21
25.5998
 31
0.0
  0
LINE
  8
0
 62
     0
 10
116.432
 20
25.5998
 30
0.0
 11
116.432
 21
31.5502
 31
0.0
  0
LINE
  8
0
 62
     0
 10
116.432
 20
31.5502
 30
0.0
 11
117.231
 21
31.5502
 31
0.0
  0
LINE
  8
0
 62
     0
 10
117.231
 20
31.5502
 30
0.0
 11
117.231
 21
34.4992
 31
0.0
  0
LINE
  8
0
 62
     0
 10
117.231
 20
34.4992
 30
0.0
 11
116.432
 21
34.4992
 31
0.0
  0
LINE
  8
0
 62
     0
 10
116.432
 20
34.4992
 30
0.0
 11
116.432
 21
35.4997
 31
0.0
  0
LINE
  8
0
 62
     0
 10
116.432
 20
35.4997
 30
0.0
 11
102.582
 21
35.4997
 31
0.0
  0
LINE
  8
0
 62
     0
 10
121.631
 20
35.4997
 30
0.0
 11
121.631
 21
34.4992
 31
0.0
  0
LINE
  8
0
 62
     0
 10
121.631
 20
34.4992
 30
0.0
 11
120.833
 21
34.4992
 31
0.0
  0
LINE
  8
0
 62
     0
 10
120.833
 20
34.4992
 30
0.0
 11
120.833
 21
31.5502
 31
0.0
  0
LINE
  8
0
 62
     0
 10
120.833
 20
31.5502
 30
0.0
 11
121.631
 21
31.5502
 31
0.0
  0
LINE
  8
0
 62
     0
 10
121.631
 20
31.5502
 30
0.0
 11
121.631
 21
25.5998
 31
0.0
  0
LINE
  8
0
 62
     0
 10
121.631
 20
25.5998
 30
0.0
 11
120.833
 21
25.5998
 31
0.0
  0
LINE
  8
0
 62
     0
 10
120.833
 20
25.5998
 30
0.0
 11
120.833
 21
22.6494
 31
0.0
  0
LINE
  8
0
 62
     0
 10
120.833
 20
22.6494
 30
0.0
 11
121.631
 21
22.6494
 31
0.0
  0
LINE
  8
0
 62
     0
 10
121.631
 20
22.6494
 30
0.0
 11
121.631
 21
21.6504
 31
0.0
  0
LINE
  8
0
 62
     0
 10
121.631
 20
21.6504
 30
0.0
 11
135.483
 21
21.6504
 31
0.0
  0
LINE
  8
0
 62
     0
 10
135.483
 20
21.6504
 30
0.0
 11
135.483
 21
22.6494
 31
0.0
  0
LINE
  8
0
 62
     0
 10
135.483
 20
22.6494
 30
0.0
 11
136.281
 21
22.6494
 31
0.0
  0
LINE
  8
0
 62
     0
 10
136.281
 20
22.6494
 30
0.0
 11
136.281
 21
25.5998
 31
0.0
  0
LINE
  8
0
 62
     0
 10
136.281
 20
25.5998
 30
0.0
 11
135.483
 21
25.5998
 31
0.0
  0
LINE
  8
0
 62
     0
 10
135.483
 20
25.5998
 30
0.0
 11
135.483
 21
31.5502
 31
0.0
  0
LINE
  8
0
 62
     0
 10
135.483
 20
31.5502
 30
0.0
 11
136.281
 21
31.5502
 31
0.0
  0
LINE
  8
0
 62
     0
 10
136.281
 20
31.5502
 30
0.0
 11
136.281
 21
34.4992
 31
0.0
  0
LINE
  8
0
 62
     0
 10
136.281
 20
34.4992
 30
0.0
 11
135.483
 21
34.4992
 31
0.0
  0
LINE
  8
0
 62
     0
 10
135.483
 20
34.4992
 30
0.0
 11
135.483
 21
35.4997
 31
0.0
  0
LINE
  8
0
 62
     0
 10
135.483
 20
35.4997
 30
0.0
 11
121.631
 21
35.4997
 31
0.0
  0
LINE
  8
0
 62
     0
 10
140.682
 20
35.4997
 30
0.0
 11
140.682
 21
34.4992
 31
0.0
  0
LINE
  8
0
 62
     0
 10
140.682
 20
34.4992
 30
0.0
 11
139.882
 21
34.4992
 31
0.0
  0
LINE
  8
0
 62
     0
 10
139.882
 20
34.4992
 30
0.0
 11
139.882
 21
31.5502
 31
0.0
  0
LINE
  8
0
 62
     0
 10
139.882
 20
31.5502
 30
0.0
 11
140.682
 21
31.5502
 31
0.0
  0
LINE
  8
0
 62
     0
 10
140.682
 20
31.5502
 30
0.0
 11
140.682
 21
25.5998
 31
0.0
  0
LINE
  8
0
 62
     0
 10
140.682
 20
25.5998
 30
0.0
 11
139.882
 21
25.5998
 31
0.0
  0
LINE
  8
0
 62
     0
 10
139.882
 20
25.5998
 30
0.0
 11
139.882
 21
22.6494
 31
0.0
  0
LINE
  8
0
 62
     0
 10
139.882
 20
22.6494
 30
0.0
 11
140.682
 21
22.6494
 31
0.0
  0
LINE
  8
0
 62
     0
 10
140.682
 20
22.6494
 30
0.0
 11
140.682
 21
21.6504
 31
0.0
  0
LINE
  8
0
 62
     0
 10
140.682
 20
21.6504
 30
0.0
 11
154.532
 21
21.6504
 31
0.0
  0
LINE
  8
0
 62
     0
 10
154.532
 20
21.6504
 30
0.0
 11
154.532
 21
22.6494
 31
0.0
  0
LINE
  8
0
 62
     0
 10
154.532
 20
22.6494
 30
0.0
 11
155.331
 21
22.6494
 31
0.0
  0
LINE
  8
0
 62
     0
 10
155.331
 20
22.6494
 30
0.0
 11
155.331
 21
25.5998
 31
0.0
  0
LINE
  8
0
 62
     0
 10
155.331
 20
25.5998
 30
0.0
 11
154.532
 21
25.5998
 31
0.0
  0
LINE
  8
0
 62
     0
 10
154.532
 20
25.5998
 30
0.0
 11
154.532
 21
31.5502
 31
0.0
  0
LINE
  8
0
 62
     0
 10
154.532
 20
31.5502
 30
0.0
 11
155.331
 21
31.5502
 31
0.0
  0
LINE
  8
0
 62
     0
 10
155.331
 20
31.5502
 30
0.0
 11
155.331
 21
34.4992
 31
0.0
  0
LINE
  8
0
 62
     0
 10
155.331
 20
34.4992
 30
0.0
 11
154.532
 21
34.4992
 31
0.0
  0
LINE
  8
0
 62
     0
 10
154.532
 20
34.4992
 30
0.0
 11
154.532
 21
35.4997
 31
0.0
  0
LINE
  8
0
 62
     0
 10
154.532
 20
35.4997
 30
0.0
 11
140.682
 21
35.4997
 31
0.0
  0
LINE
  8
0
 62
     0
 10
159.732
 20
35.4997
 30
0.0
 11
159.732
 21
34.4992
 31
0.0
  0
LINE
  8
0
 62
     0
 10
159.732
 20
34.4992
 30
0.0
 11
158.933
 21
34.4992
 31
0.0
  0
LINE
  8
0
 62
     0
 10
158.933
 20
34.4992
 30
0.0
 11
158.933
 21
31.5502
 31
0.0
  0
LINE
  8
0
 62
     0
 10
158.933
 20
31.5502
 30
0.0
 11
159.732
 21
31.5502
 31
0.0
  0
LINE
  8
0
 62
     0
 10
159.732
 20
31.5502
 30
0.0
 11
159.732
 21
25.5998
 31
0.0
  0
LINE
  8
0
 62
     0
 10
159.732
 20
25.5998
 30
0.0
 11
158.933
 21
25.5998
 31
0.0
  0
LINE
  8
0
 62
     0
 10
158.933
 20
25.5998
 30
0.0
 11
158.933
 21
22.6494
 31
0.0
  0
LINE
  8
0
 62
     0
 10
158.933
 20
22.6494
 30
0.0
 11
159.732
 21
22.6494
 31
0.0
  0
LINE
  8
0
 62
     0
 10
159.732
 20
22.6494
 30
0.0
 11
159.732
 21
21.6504
 31
0.0
  0
LINE
  8
0
 62
     0
 10
159.732
 20
21.6504
 30
0.0
 11
173.582
 21
21.6504
 31
0.0
  0
LINE
  8
0
 62
     0
 10
173.582
 20
21.6504
 30
0.0
 11
173.582
 21
22.6494
 31
0.0
  0
LINE
  8
0
 62
     0
 10
173.582
 20
22.6494
 30
0.0
 11
174.381
 21
22.6494
 31
0.0
  0
LINE
  8
0
 62
     0
 10
174.381
 20
22.6494
 30
0.0
 11
174.381
 21
25.5998
 31
0.0
  0
LINE
  8
0
 62
     0
 10
174.381
 20
25.5998
 30
0.0
 11
173.582
 21
25.5998
 31
0.0
  0
LINE
  8
0
 62
     0
 10
173.582
 20
25.5998
 30
0.0
 11
173.582
 21
31.5502
 31
0.0
  0
LINE
  8
0
 62
     0
 10
173.582
 20
31.5502
 30
0.0
 11
174.381
 21
31.5502
 31
0.0
  0
LINE
  8
0
 62
     0
 10
174.381
 20
31.5502
 30
0.0
 11
174.381
 21
34.4992
 31
0.0
  0
LINE
  8
0
 62
     0
 10
174.381
 20
34.4992
 30
0.0
 11
173.582
 21
34.4992
 31
0.0
  0
LINE
  8
0
 62
     0
 10
173.582
 20
34.4992
 30
0.0
 11
173.582
 21
35.4997
 31
0.0
  0
LINE
  8
0
 62
     0
 10
173.582
 20
35.4997
 30
0.0
 11
159.732
 21
35.4997
 31
0.0
  0
LINE
  8
0
 62
     0
 10
178.781
 20
35.4997
 30
0.0
 11
178.781
 21
34.4992
 31
0.0
  0
LINE
  8
0
 62
     0
 10
178.781
 20
34.4992
 30
0.0
 11
177.983
 21
34.4992
 31
0.0
  0
LINE
  8
0
 62
     0
 10
177.983
 20
34.4992
 30
0.0
 11
177.983
 21
31.5502
 31
0.0
  0
LINE
  8
0
 62
     0
 10
177.983
 20
31.5502
 30
0.0
 11
178.781
 21
31.5502
 31
0.0
  0
LINE
  8
0
 62
     0
 10
178.781
 20
31.5502
 30
0.0
 11
178.781
 21
25.5998
 31
0.0
  0
LINE
  8
0
 62
     0
 10
178.781
 20
25.5998
 30
0.0
 11
177.983
 21
25.5998
 31
0.0
  0
LINE
  8
0
 62
     0
 10
177.983
 20
25.5998
 30
0.0
 11
177.983
 21
22.6494
 31
0.0
  0
LINE
  8
0
 62
     0
 10
177.983
 20
22.6494
 30
0.0
 11
178.781
 21
22.6494
 31
0.0
  0
LINE
  8
0
 62
     0
 10
178.781
 20
22.6494
 30
0.0
 11
178.781
 21
21.6504
 31
0.0
  0
LINE
  8
0
 62
     0
 10
178.781
 20
21.6504
 30
0.0
 11
192.632
 21
21.6504
 31
0.0
  0
LINE
  8
0
 62
     0
 10
192.632
 20
21.6504
 30
0.0
 11
192.632
 21
22.6494
 31
0.0
  0
LINE
  8
0
 62
     0
 10
192.632
 20
22.6494
 30
0.0
 11
193.433
 21
22.6494
 31
0.0
  0
LINE
  8
0
 62
     0
 10
193.433
 20
22.6494
 30
0.0
 11
193.433
 21
25.5998
 31
0.0
  0
LINE
  8
0
 62
     0
 10
193.433
 20
25.5998
 30
0.0
 11
192.632
 21
25.5998
 31
0.0
  0
LINE
  8
0
 62
     0
 10
192.632
 20
25.5998
 30
0.0
 11
192.632
 21
31.5502
 31
0.0
  0
LINE
  8
0
 62
     0
 10
192.632
 20
31.5502
 30
0.0
 11
193.433
 21
31.5502
 31
0.0
  0
LINE
  8
0
 62
     0
 10
193.433
 20
31.5502
 30
0.0
 11
193.433
 21
34.4992
 31
0.0
  0
LINE
  8
0
 62
     0
 10
193.433
 20
34.4992
 30
0.0
 11
192.632
 21
34.4992
 31
0.0
  0
LINE
  8
0
 62
     0
 10
192.632
 20
34.4992
 30
0.0
 11
192.632
 21
35.4997
 31
0.0
  0
LINE
  8
0
 62
     0
 10
192.632
 20
35.4997
 30
0.0
 11
178.781
 21
35.4997
 31
0.0
  0
LINE
  8
0
 62
     0
 10
197.831
 20
35.4997
 30
0.0
 11
197.831
 21
34.4992
 31
0.0
  0
LINE
  8
0
 62
     0
 10
197.831
 20
34.4992
 30
0.0
 11
197.032
 21
34.4992
 31
0.0
  0
LINE
  8
0
 62
     0
 10
197.032
 20
34.4992
 30
0.0
 11
197.032
 21
31.5502
 31
0.0
  0
LINE
  8
0
 62
     0
 10
197.032
 20
31.5502
 30
0.0
 11
197.831
 21
31.5502
 31
0.0
  0
LINE
  8
0
 62
     0
 10
197.831
 20
31.5502
 30
0.0
 11
197.831
 21
25.5998
 31
0.0
  0
LINE
  8
0
 62
     0
 10
197.831
 20
25.5998
 30
0.0
 11
197.032
 21
25.5998
 31
0.0
  0
LINE
  8
0
 62
     0
 10
197.032
 20
25.5998
 30
0.0
 11
197.032
 21
22.6494
 31
0.0
  0
LINE
  8
0
 62
     0
 10
197.032
 20
22.6494
 30
0.0
 11
197.831
 21
22.6494
 31
0.0
  0
LINE
  8
0
 62
     0
 10
197.831
 20
22.6494
 30
0.0
 11
197.831
 21
21.6504
 31
0.0
  0
LINE
  8
0
 62
     0
 10
197.831
 20
21.6504
 30
0.0
 11
211.683
 21
21.6504
 31
0.0
  0
LINE
  8
0
 62
     0
 10
211.683
 20
21.6504
 30
0.0
 11
211.683
 21
22.6494
 31
0.0
  0
LINE
  8
0
 62
     0
 10
211.683
 20
22.6494
 30
0.0
 11
212.483
 21
22.6494
 31
0.0
  0
LINE
  8
0
 62
     0
 10
212.483
 20
22.6494
 30
0.0
 11
212.483
 21
25.5998
 31
0.0
  0
LINE
  8
0
 62
     0
 10
212.483
 20
25.5998
 30
0.0
 11
211.683
 21
25.5998
 31
0.0
  0
LINE
  8
0
 62
     0
 10
211.683
 20
25.5998
 30
0.0
 11
211.683
 21
31.5502
 31
0.0
  0
LINE
  8
0
 62
     0
 10
211.683
 20
31.5502
 30
0.0
 11
212.483
 21
31.5502
 31
0.0
  0
LINE
  8
0
 62
     0
 10
212.483
 20
31.5502
 30
0.0
 11
212.483
 21
34.4992
 31
0.0
  0
LINE
  8
0
 62
     0
 10
212.483
 20
34.4992
 30
0.0
 11
211.683
 21
34.4992
 31
0.0
  0
LINE
  8
0
 62
     0
 10
211.683
 20
34.4992
 30
0.0
 11
211.683
 21
35.4997
 31
0.0
  0
LINE
  8
0
 62
     0
 10
211.683
 20
35.4997
 30
0.0
 11
197.831
 21
35.4997
 31
0.0
  0
LINE
  8
0
 62
     0
 10
216.881
 20
35.4997
 30
0.0
 11
216.881
 21
34.4992
 31
0.0
  0
LINE
  8
0
 62
     0
 10
216.881
 20
34.4992
 30
0.0
 11
216.082
 21
34.4992
 31
0.0
  0
LINE
  8
0
 62
     0
 10
216.082
 20
34.4992
 30
0.0
 11
216.082
 21
31.5502
 31
0.0
  0
LINE
  8
0
 62
     0
 10
216.082
 20
31.5502
 30
0.0
 11
216.881
 21
31.5502
 31
0.0
  0
LINE
  8
0
 62
     0
 10
216.881
 20
31.5502
 30
0.0
 11
216.881
 21
25.5998
 31
0.0
  0
LINE
  8
0
 62
     0
 10
216.881
 20
25.5998
 30
0.0
 11
216.082
 21
25.5998
 31
0.0
  0
LINE
  8
0
 62
     0
 10
216.082
 20
25.5998
 30
0.0
 11
216.082
 21
22.6494
 31
0.0
  0
LINE
  8
0
 62
     0
 10
216.082
 20
22.6494
 30
0.0
 11
216.881
 21
22.6494
 31
0.0
  0
LINE
  8
0
 62
     0
 10
216.881
 20
22.6494
 30
0.0
 11
216.881
 21
21.6504
 31
0.0
  0
LINE
  8
0
 62
     0
 10
216.881
 20
21.6504
 30
0.0
 11
230.733
 21
21.6504
 31
0.0
  0
LINE
  8
0
 62
     0
 10
230.733
 20
21.6504
 30
0.0
 11
230.733
 21
22.6494
 31
0.0
  0
LINE
  8
0
 62
     0
 10
230.733
 20
22.6494
 30
0.0
 11
231.531
 21
22.6494
 31
0.0
  0
LINE
  8
0
 62
     0
 10
231.531
 20
22.6494
 30
0.0
 11
231.531
 21
25.5998
 31
0.0
  0
LINE
  8
0
 62
     0
 10
231.531
 20
25.5998
 30
0.0
 11
230.733
 21
25.5998
 31
0.0
  0
LINE
  8
0
 62
     0
 10
230.733
 20
25.5998
 30
0.0
 11
230.733
 21
31.5502
 31
0.0
  0
LINE
  8
0
 62
     0
 10
230.733
 20
31.5502
 30
0.0
 11
231.531
 21
31.5502
 31
0.0
  0
LINE
  8
0
 62
     0
 10
231.531
 20
31.5502
 30
0.0
 11
231.531
 21
34.4992
 31
0.0
  0
LINE
  8
0
 62
     0
 10
231.531
 20
34.4992
 30
0.0
 11
230.733
 21
34.4992
 31
0.0
  0
LINE
  8
0
 62
     0
 10
230.733
 20
34.4992
 30
0.0
 11
230.733
 21
35.4997
 31
0.0
  0
LINE
  8
0
 62
     0
 10
230.733
 20
35.4997
 30
0.0
 11
216.881
 21
35.4997
 31
0.0
  0
LINE
  8
0
 62
     0
 10
243.075
 20
35.4997
 30
0.0
 11
243.075
 21
34.4992
 31
0.0
  0
LINE
  8
0
 62
     0
 10
243.075
 20
34.4992
 30
0.0
 11
242.276
 21
34.4992
 31
0.0
  0
LINE
  8
0
 62
     0
 10
242.276
 20
34.4992
 30
0.0
 11
242.276
 21
31.5502
 31
0.0
  0
LINE
  8
0
 62
     0
 10
242.276
 20
31.5502
 30
0.0
 11
243.075
 21
31.5502
 31
0.0
  0
LINE
  8
0
 62
     0
 10
243.075
 20
31.5502
 30
0.0
 11
243.075
 21
25.5998
 31
0.0
  0
LINE
  8
0
 62
     0
 10
243.075
 20
25.5998
 30
0.0
 11
242.276
 21
25.5998
 31
0.0
  0
LINE
  8
0
 62
     0
 10
242.276
 20
25.5998
 30
0.0
 11
242.276
 21
22.6494
 31
0.0
  0
LINE
  8
0
 62
     0
 10
242.276
 20
22.6494
 30
0.0
 11
243.075
 21
22.6494
 31
0.0
  0
LINE
  8
0
 62
     0
 10
243.075
 20
22.6494
 30
0.0
 11
243.075
 21
21.6504
 31
0.0
  0
LINE
  8
0
 62
     0
 10
243.075
 20
21.6504
 30
0.0
 11
256.926
 21
21.6504
 31
0.0
  0
LINE
  8
0
 62
     0
 10
256.926
 20
21.6504
 30
0.0
 11
256.926
 21
22.6494
 31
0.0
  0
LINE
  8
0
 62
     0
 10
256.926
 20
22.6494
 30
0.0
 11
257.725
 21
22.6494
 31
0.0
  0
LINE
  8
0
 62
     0
 10
257.725
 20
22.6494
 30
0.0
 11
257.725
 21
25.5998
 31
0.0
  0
LINE
  8
0
 62
     0
 10
257.725
 20
25.5998
 30
0.0
 11
256.926
 21
25.5998
 31
0.0
  0
LINE
  8
0
 62
     0
 10
256.926
 20
25.5998
 30
0.0
 11
256.926
 21
31.5502
 31
0.0
  0
LINE
  8
0
 62
     0
 10
256.926
 20
31.5502
 30
0.0
 11
257.725
 21
31.5502
 31
0.0
  0
LINE
  8
0
 62
     0
 10
257.725
 20
31.5502
 30
0.0
 11
257.725
 21
34.4992
 31
0.0
  0
LINE
  8
0
 62
     0
 10
257.725
 20
34.4992
 30
0.0
 11
256.926
 21
34.4992
 31
0.0
  0
LINE
  8
0
 62
     0
 10
256.926
 20
34.4992
 30
0.0
 11
256.926
 21
35.4997
 31
0.0
  0
LINE
  8
0
 62
     0
 10
256.926
 20
35.4997
 30
0.0
 11
243.075
 21
35.4997
 31
0.0
  0
LINE
  8
0
 62
     0
 10
257.362
 20
54.5497
 30
0.0
 11
257.362
 21
53.5492
 31
0.0
  0
LINE
  8
0
 62
     0
 10
257.362
 20
53.5492
 30
0.0
 11
256.563
 21
53.5492
 31
0.0
  0
LINE
  8
0
 62
     0
 10
256.563
 20
53.5492
 30
0.0
 11
256.563
 21
50.6003
 31
0.0
  0
LINE
  8
0
 62
     0
 10
256.563
 20
50.6003
 30
0.0
 11
257.362
 21
50.6003
 31
0.0
  0
LINE
  8
0
 62
     0
 10
257.362
 20
50.6003
 30
0.0
 11
257.362
 21
49.8507
 31
0.0
  0
LINE
  8
0
 62
     0
 10
257.362
 20
49.8507
 30
0.0
 11
255.688
 21
49.8507
 31
0.0
  0
LINE
  8
0
 62
     0
 10
255.688
 20
49.8507
 30
0.0
 11
255.688
 21
53.0793
 31
0.0
  0
LINE
  8
0
 62
     0
 10
255.688
 20
53.0793
 30
0.0
 11
253.962
 21
53.0793
 31
0.0
  0
LINE
  8
0
 62
     0
 10
253.962
 20
53.0793
 30
0.0
 11
253.962
 21
53.9983
 31
0.0
  0
LINE
  8
0
 62
     0
 10
253.962
 20
53.9983
 30
0.0
 11
250.813
 21
53.9983
 31
0.0
  0
LINE
  8
0
 62
     0
 10
250.813
 20
53.9983
 30
0.0
 11
250.813
 21
53.0793
 31
0.0
  0
LINE
  8
0
 62
     0
 10
250.813
 20
53.0793
 30
0.0
 11
249.089
 21
53.0793
 31
0.0
  0
LINE
  8
0
 62
     0
 10
249.089
 20
53.0793
 30
0.0
 11
249.089
 21
49.8507
 31
0.0
  0
LINE
  8
0
 62
     0
 10
249.089
 20
49.8507
 30
0.0
 11
248.263
 21
49.8507
 31
0.0
  0
LINE
  8
0
 62
     0
 10
248.263
 20
49.8507
 30
0.0
 11
248.263
 21
47.2006
 31
0.0
  0
LINE
  8
0
 62
     0
 10
248.263
 20
47.2006
 30
0.0
 11
249.089
 21
47.2006
 31
0.0
  0
LINE
  8
0
 62
     0
 10
249.089
 20
47.2006
 30
0.0
 11
249.089
 21
40.9303
 31
0.0
  0
LINE
  8
0
 62
     0
 10
249.089
 20
40.9303
 30
0.0
 11
250.813
 21
40.9303
 31
0.0
  0
LINE
  8
0
 62
     0
 10
250.813
 20
40.9303
 30
0.0
 11
250.813
 21
39.9493
 31
0.0
  0
LINE
  8
0
 62
     0
 10
250.813
 20
39.9493
 30
0.0
 11
253.962
 21
39.9493
 31
0.0
  0
LINE
  8
0
 62
     0
 10
253.962
 20
39.9493
 30
0.0
 11
253.962
 21
40.9303
 31
0.0
  0
LINE
  8
0
 62
     0
 10
253.962
 20
40.9303
 30
0.0
 11
255.688
 21
40.9303
 31
0.0
  0
LINE
  8
0
 62
     0
 10
255.688
 20
40.9303
 30
0.0
 11
255.688
 21
45.3993
 31
0.0
  0
LINE
  8
0
 62
     0
 10
255.688
 20
45.3993
 30
0.0
 11
257.362
 21
45.3993
 31
0.0
  0
LINE
  8
0
 62
     0
 10
257.362
 20
45.3993
 30
0.0
 11
257.362
 21
44.6497
 31
0.0
  0
LINE
  8
0
 62
     0
 10
257.362
 20
44.6497
 30
0.0
 11
256.563
 21
44.6497
 31
0.0
  0
LINE
  8
0
 62
     0
 10
256.563
 20
44.6497
 30
0.0
 11
256.563
 21
41.6994
 31
0.0
  0
LINE
  8
0
 62
     0
 10
256.563
 20
41.6994
 30
0.0
 11
257.362
 21
41.6994
 31
0.0
  0
LINE
  8
0
 62
     0
 10
257.362
 20
41.6994
 30
0.0
 11
257.362
 21
40.7003
 31
0.0
  0
LINE
  8
0
 62
     0
 10
257.362
 20
40.7003
 30
0.0
 11
271.213
 21
40.7003
 31
0.0
  0
LINE
  8
0
 62
     0
 10
271.213
 20
40.7003
 30
0.0
 11
271.213
 21
41.6994
 31
0.0
  0
LINE
  8
0
 62
     0
 10
271.213
 20
41.6994
 30
0.0
 11
272.012
 21
41.6994
 31
0.0
  0
LINE
  8
0
 62
     0
 10
272.012
 20
41.6994
 30
0.0
 11
272.012
 21
44.6497
 31
0.0
  0
LINE
  8
0
 62
     0
 10
272.012
 20
44.6497
 30
0.0
 11
271.213
 21
44.6497
 31
0.0
  0
LINE
  8
0
 62
     0
 10
271.213
 20
44.6497
 30
0.0
 11
271.213
 21
45.3993
 31
0.0
  0
LINE
  8
0
 62
     0
 10
271.213
 20
45.3993
 30
0.0
 11
272.887
 21
45.3993
 31
0.0
  0
LINE
  8
0
 62
     0
 10
272.887
 20
45.3993
 30
0.0
 11
272.887
 21
40.9303
 31
0.0
  0
LINE
  8
0
 62
     0
 10
272.887
 20
40.9303
 30
0.0
 11
274.613
 21
40.9303
 31
0.0
  0
LINE
  8
0
 62
     0
 10
274.613
 20
40.9303
 30
0.0
 11
274.613
 21
39.9493
 31
0.0
  0
LINE
  8
0
 62
     0
 10
274.613
 20
39.9493
 30
0.0
 11
277.763
 21
39.9493
 31
0.0
  0
LINE
  8
0
 62
     0
 10
277.763
 20
39.9493
 30
0.0
 11
277.763
 21
40.9303
 31
0.0
  0
LINE
  8
0
 62
     0
 10
277.763
 20
40.9303
 30
0.0
 11
279.488
 21
40.9303
 31
0.0
  0
LINE
  8
0
 62
     0
 10
279.488
 20
40.9303
 30
0.0
 11
279.488
 21
47.2006
 31
0.0
  0
LINE
  8
0
 62
     0
 10
279.488
 20
47.2006
 30
0.0
 11
280.312
 21
47.2006
 31
0.0
  0
LINE
  8
0
 62
     0
 10
280.312
 20
47.2006
 30
0.0
 11
280.312
 21
49.8507
 31
0.0
  0
LINE
  8
0
 62
     0
 10
280.312
 20
49.8507
 30
0.0
 11
279.488
 21
49.8507
 31
0.0
  0
LINE
  8
0
 62
     0
 10
279.488
 20
49.8507
 30
0.0
 11
279.488
 21
53.0793
 31
0.0
  0
LINE
  8
0
 62
     0
 10
279.488
 20
53.0793
 30
0.0
 11
277.763
 21
53.0793
 31
0.0
  0
LINE
  8
0
 62
     0
 10
277.763
 20
53.0793
 30
0.0
 11
277.763
 21
53.9983
 31
0.0
  0
LINE
  8
0
 62
     0
 10
277.763
 20
53.9983
 30
0.0
 11
274.613
 21
53.9983
 31
0.0
  0
LINE
  8
0
 62
     0
 10
274.613
 20
53.9983
 30
0.0
 11
274.613
 21
53.0793
 31
0.0
  0
LINE
  8
0
 62
     0
 10
274.613
 20
53.0793
 30
0.0
 11
272.887
 21
53.0793
 31
0.0
  0
LINE
  8
0
 62
     0
 10
272.887
 20
53.0793
 30
0.0
 11
272.887
 21
49.8507
 31
0.0
  0
LINE
  8
0
 62
     0
 10
272.887
 20
49.8507
 30
0.0
 11
271.213
 21
49.8507
 31
0.0
  0
LINE
  8
0
 62
     0
 10
271.213
 20
49.8507
 30
0.0
 11
271.213
 21
50.6003
 31
0.0
  0
LINE
  8
0
 62
     0
 10
271.213
 20
50.6003
 30
0.0
 11
272.012
 21
50.6003
 31
0.0
  0
LINE
  8
0
 62
     0
 10
272.012
 20
50.6003
 30
0.0
 11
272.012
 21
53.5492
 31
0.0
  0
LINE
  8
0
 62
     0
 10
272.012
 20
53.5492
 30
0.0
 11
271.213
 21
53.5492
 31
0.0
  0
LINE
  8
0
 62
     0
 10
271.213
 20
53.5492
 30
0.0
 11
271.213
 21
54.5497
 31
0.0
  0
LINE
  8
0
 62
     0
 10
271.213
 20
54.5497
 30
0.0
 11
257.362
 21
54.5497
 31
0.0
  0
LINE
  8
0
 62
     0
 10
9.71381
 20
54.5497
 30
0.0
 11
9.71381
 21
53.5492
 31
0.0
  0
LINE
  8
0
 62
     0
 10
9.71381
 20
53.5492
 30
0.0
 11
8.91314
 21
53.5492
 31
0.0
  0
LINE
  8
0
 62
     0
 10
8.91314
 20
53.5492
 30
0.0
 11
8.91314
 21
50.6003
 31
0.0
  0
LINE
  8
0
 62
     0
 10
8.91314
 20
50.6003
 30
0.0
 11
9.71381
 21
50.6003
 31
0.0
  0
LINE
  8
0
 62
     0
 10
9.71381
 20
50.6003
 30
0.0
 11
9.71381
 21
44.6497
 31
0.0
  0
LINE
  8
0
 62
     0
 10
9.71381
 20
44.6497
 30
0.0
 11
8.91314
 21
44.6497
 31
0.0
  0
LINE
  8
0
 62
     0
 10
8.91314
 20
44.6497
 30
0.0
 11
8.91314
 21
41.6994
 31
0.0
  0
LINE
  8
0
 62
     0
 10
8.91314
 20
41.6994
 30
0.0
 11
9.71381
 21
41.6994
 31
0.0
  0
LINE
  8
0
 62
     0
 10
9.71381
 20
41.6994
 30
0.0
 11
9.71381
 21
40.7003
 31
0.0
  0
LINE
  8
0
 62
     0
 10
9.71381
 20
40.7003
 30
0.0
 11
23.5631
 21
40.7003
 31
0.0
  0
LINE
  8
0
 62
     0
 10
23.5631
 20
40.7003
 30
0.0
 11
23.5631
 21
41.6994
 31
0.0
  0
LINE
  8
0
 62
     0
 10
23.5631
 20
41.6994
 30
0.0
 11
24.3637
 21
41.6994
 31
0.0
  0
LINE
  8
0
 62
     0
 10
24.3637
 20
41.6994
 30
0.0
 11
24.3637
 21
44.6497
 31
0.0
  0
LINE
  8
0
 62
     0
 10
24.3637
 20
44.6497
 30
0.0
 11
23.5631
 21
44.6497
 31
0.0
  0
LINE
  8
0
 62
     0
 10
23.5631
 20
44.6497
 30
0.0
 11
23.5631
 21
50.6003
 31
0.0
  0
LINE
  8
0
 62
     0
 10
23.5631
 20
50.6003
 30
0.0
 11
24.3637
 21
50.6003
 31
0.0
  0
LINE
  8
0
 62
     0
 10
24.3637
 20
50.6003
 30
0.0
 11
24.3637
 21
53.5492
 31
0.0
  0
LINE
  8
0
 62
     0
 10
24.3637
 20
53.5492
 30
0.0
 11
23.5631
 21
53.5492
 31
0.0
  0
LINE
  8
0
 62
     0
 10
23.5631
 20
53.5492
 30
0.0
 11
23.5631
 21
54.5497
 31
0.0
  0
LINE
  8
0
 62
     0
 10
23.5631
 20
54.5497
 30
0.0
 11
9.71381
 21
54.5497
 31
0.0
  0
LINE
  8
0
 62
     0
 10
35.9075
 20
54.5497
 30
0.0
 11
35.9075
 21
53.5492
 31
0.0
  0
LINE
  8
0
 62
     0
 10
35.9075
 20
53.5492
 30
0.0
 11
35.1083
 21
53.5492
 31
0.0
  0
LINE
  8
0
 62
     0
 10
35.1083
 20
53.5492
 30
0.0
 11
35.1083
 21
50.6003
 31
0.0
  0
LINE
  8
0
 62
     0
 10
35.1083
 20
50.6003
 30
0.0
 11
35.9075
 21
50.6003
 31
0.0
  0
LINE
  8
0
 62
     0
 10
35.9075
 20
50.6003
 30
0.0
 11
35.9075
 21
44.6497
 31
0.0
  0
LINE
  8
0
 62
     0
 10
35.9075
 20
44.6497
 30
0.0
 11
35.1083
 21
44.6497
 31
0.0
  0
LINE
  8
0
 62
     0
 10
35.1083
 20
44.6497
 30
0.0
 11
35.1083
 21
41.6994
 31
0.0
  0
LINE
  8
0
 62
     0
 10
35.1083
 20
41.6994
 30
0.0
 11
35.9075
 21
41.6994
 31
0.0
  0
LINE
  8
0
 62
     0
 10
35.9075
 20
41.6994
 30
0.0
 11
35.9075
 21
40.7003
 31
0.0
  0
LINE
  8
0
 62
     0
 10
35.9075
 20
40.7003
 30
0.0
 11
49.7568
 21
40.7003
 31
0.0
  0
LINE
  8
0
 62
     0
 10
49.7568
 20
40.7003
 30
0.0
 11
49.7568
 21
41.6994
 31
0.0
  0
LINE
  8
0
 62
     0
 10
49.7568
 20
41.6994
 30
0.0
 11
50.5576
 21
41.6994
 31
0.0
  0
LINE
  8
0
 62
     0
 10
50.5576
 20
41.6994
 30
0.0
 11
50.5576
 21
44.6497
 31
0.0
  0
LINE
  8
0
 62
     0
 10
50.5576
 20
44.6497
 30
0.0
 11
49.7568
 21
44.6497
 31
0.0
  0
LINE
  8
0
 62
     0
 10
49.7568
 20
44.6497
 30
0.0
 11
49.7568
 21
50.6003
 31
0.0
  0
LINE
  8
0
 62
     0
 10
49.7568
 20
50.6003
 30
0.0
 11
50.5576
 21
50.6003
 31
0.0
  0
LINE
  8
0
 62
     0
 10
50.5576
 20
50.6003
 30
0.0
 11
50.5576
 21
53.5492
 31
0.0
  0
LINE
  8
0
 62
     0
 10
50.5576
 20
53.5492
 30
0.0
 11
49.7568
 21
53.5492
 31
0.0
  0
LINE
  8
0
 62
     0
 10
49.7568
 20
53.5492
 30
0.0
 11
49.7568
 21
54.5497
 31
0.0
  0
LINE
  8
0
 62
     0
 10
49.7568
 20
54.5497
 30
0.0
 11
35.9075
 21
54.5497
 31
0.0
  0
LINE
  8
0
 62
     0
 10
54.9575
 20
54.5497
 30
0.0
 11
54.9575
 21
53.5492
 31
0.0
  0
LINE
  8
0
 62
     0
 10
54.9575
 20
53.5492
 30
0.0
 11
54.157
 21
53.5492
 31
0.0
  0
LINE
  8
0
 62
     0
 10
54.157
 20
53.5492
 30
0.0
 11
54.157
 21
50.6003
 31
0.0
  0
LINE
  8
0
 62
     0
 10
54.157
 20
50.6003
 30
0.0
 11
54.9575
 21
50.6003
 31
0.0
  0
LINE
  8
0
 62
     0
 10
54.9575
 20
50.6003
 30
0.0
 11
54.9575
 21
44.6497
 31
0.0
  0
LINE
  8
0
 62
     0
 10
54.9575
 20
44.6497
 30
0.0
 11
54.157
 21
44.6497
 31
0.0
  0
LINE
  8
0
 62
     0
 10
54.157
 20
44.6497
 30
0.0
 11
54.157
 21
41.6994
 31
0.0
  0
LINE
  8
0
 62
     0
 10
54.157
 20
41.6994
 30
0.0
 11
54.9575
 21
41.6994
 31
0.0
  0
LINE
  8
0
 62
     0
 10
54.9575
 20
41.6994
 30
0.0
 11
54.9575
 21
40.7003
 31
0.0
  0
LINE
  8
0
 62
     0
 10
54.9575
 20
40.7003
 30
0.0
 11
68.8068
 21
40.7003
 31
0.0
  0
LINE
  8
0
 62
     0
 10
68.8068
 20
40.7003
 30
0.0
 11
68.8068
 21
41.6994
 31
0.0
  0
LINE
  8
0
 62
     0
 10
68.8068
 20
41.6994
 30
0.0
 11
69.6062
 21
41.6994
 31
0.0
  0
LINE
  8
0
 62
     0
 10
69.6062
 20
41.6994
 30
0.0
 11
69.6062
 21
44.6497
 31
0.0
  0
LINE
  8
0
 62
     0
 10
69.6062
 20
44.6497
 30
0.0
 11
68.8068
 21
44.6497
 31
0.0
  0
LINE
  8
0
 62
     0
 10
68.8068
 20
44.6497
 30
0.0
 11
68.8068
 21
50.6003
 31
0.0
  0
LINE
  8
0
 62
     0
 10
68.8068
 20
50.6003
 30
0.0
 11
69.6062
 21
50.6003
 31
0.0
  0
LINE
  8
0
 62
     0
 10
69.6062
 20
50.6003
 30
0.0
 11
69.6062
 21
53.5492
 31
0.0
  0
LINE
  8
0
 62
     0
 10
69.6062
 20
53.5492
 30
0.0
 11
68.8068
 21
53.5492
 31
0.0
  0
LINE
  8
0
 62
     0
 10
68.8068
 20
53.5492
 30
0.0
 11
68.8068
 21
54.5497
 31
0.0
  0
LINE
  8
0
 62
     0
 10
68.8068
 20
54.5497
 30
0.0
 11
54.9575
 21
54.5497
 31
0.0
  0
LINE
  8
0
 62
     0
 10
74.0061
 20
54.5497
 30
0.0
 11
74.0061
 21
53.5492
 31
0.0
  0
LINE
  8
0
 62
     0
 10
74.0061
 20
53.5492
 30
0.0
 11
73.2084
 21
53.5492
 31
0.0
  0
LINE
  8
0
 62
     0
 10
73.2084
 20
53.5492
 30
0.0
 11
73.2084
 21
50.6003
 31
0.0
  0
LINE
  8
0
 62
     0
 10
73.2084
 20
50.6003
 30
0.0
 11
74.0061
 21
50.6003
 31
0.0
  0
LINE
  8
0
 62
     0
 10
74.0061
 20
50.6003
 30
0.0
 11
74.0061
 21
44.6497
 31
0.0
  0
LINE
  8
0
 62
     0
 10
74.0061
 20
44.6497
 30
0.0
 11
73.2084
 21
44.6497
 31
0.0
  0
LINE
  8
0
 62
     0
 10
73.2084
 20
44.6497
 30
0.0
 11
73.2084
 21
41.6994
 31
0.0
  0
LINE
  8
0
 62
     0
 10
73.2084
 20
41.6994
 30
0.0
 11
74.0061
 21
41.6994
 31
0.0
  0
LINE
  8
0
 62
     0
 10
74.0061
 20
41.6994
 30
0.0
 11
74.0061
 21
40.7003
 31
0.0
  0
LINE
  8
0
 62
     0
 10
74.0061
 20
40.7003
 30
0.0
 11
87.8568
 21
40.7003
 31
0.0
  0
LINE
  8
0
 62
     0
 10
87.8568
 20
40.7003
 30
0.0
 11
87.8568
 21
41.6994
 31
0.0
  0
LINE
  8
0
 62
     0
 10
87.8568
 20
41.6994
 30
0.0
 11
88.6562
 21
41.6994
 31
0.0
  0
LINE
  8
0
 62
     0
 10
88.6562
 20
41.6994
 30
0.0
 11
88.6562
 21
44.6497
 31
0.0
  0
LINE
  8
0
 62
     0
 10
88.6562
 20
44.6497
 30
0.0
 11
87.8568
 21
44.6497
 31
0.0
  0
LINE
  8
0
 62
     0
 10
87.8568
 20
44.6497
 30
0.0
 11
87.8568
 21
50.6003
 31
0.0
  0
LINE
  8
0
 62
     0
 10
87.8568
 20
50.6003
 30
0.0
 11
88.6562
 21
50.6003
 31
0.0
  0
LINE
  8
0
 62
     0
 10
88.6562
 20
50.6003
 30
0.0
 11
88.6562
 21
53.5492
 31
0.0
  0
LINE
  8
0
 62
     0
 10
88.6562
 20
53.5492
 30
0.0
 11
87.8568
 21
53.5492
 31
0.0
  0
LINE
  8
0
 62
     0
 10
87.8568
 20
53.5492
 30
0.0
 11
87.8568
 21
54.5497
 31
0.0
  0
LINE
  8
0
 62
     0
 10
87.8568
 20
54.5497
 30
0.0
 11
74.0061
 21
54.5497
 31
0.0
  0
LINE
  8
0
 62
     0
 10
93.0561
 20
54.5497
 30
0.0
 11
93.0561
 21
53.5492
 31
0.0
  0
LINE
  8
0
 62
     0
 10
93.0561
 20
53.5492
 30
0.0
 11
92.257
 21
53.5492
 31
0.0
  0
LINE
  8
0
 62
     0
 10
92.257
 20
53.5492
 30
0.0
 11
92.257
 21
50.6003
 31
0.0
  0
LINE
  8
0
 62
     0
 10
92.257
 20
50.6003
 30
0.0
 11
93.0561
 21
50.6003
 31
0.0
  0
LINE
  8
0
 62
     0
 10
93.0561
 20
50.6003
 30
0.0
 11
93.0561
 21
44.6497
 31
0.0
  0
LINE
  8
0
 62
     0
 10
93.0561
 20
44.6497
 30
0.0
 11
92.257
 21
44.6497
 31
0.0
  0
LINE
  8
0
 62
     0
 10
92.257
 20
44.6497
 30
0.0
 11
92.257
 21
41.6994
 31
0.0
  0
LINE
  8
0
 62
     0
 10
92.257
 20
41.6994
 30
0.0
 11
93.0561
 21
41.6994
 31
0.0
  0
LINE
  8
0
 62
     0
 10
93.0561
 20
41.6994
 30
0.0
 11
93.0561
 21
40.7003
 31
0.0
  0
LINE
  8
0
 62
     0
 10
93.0561
 20
40.7003
 30
0.0
 11
106.907
 21
40.7003
 31
0.0
  0
LINE
  8
0
 62
     0
 10
106.907
 20
40.7003
 30
0.0
 11
106.907
 21
41.6994
 31
0.0
  0
LINE
  8
0
 62
     0
 10
106.907
 20
41.6994
 30
0.0
 11
107.706
 21
41.6994
 31
0.0
  0
LINE
  8
0
 62
     0
 10
107.706
 20
41.6994
 30
0.0
 11
107.706
 21
44.6497
 31
0.0
  0
LINE
  8
0
 62
     0
 10
107.706
 20
44.6497
 30
0.0
 11
106.907
 21
44.6497
 31
0.0
  0
LINE
  8
0
 62
     0
 10
106.907
 20
44.6497
 30
0.0
 11
106.907
 21
50.6003
 31
0.0
  0
LINE
  8
0
 62
     0
 10
106.907
 20
50.6003
 30
0.0
 11
107.706
 21
50.6003
 31
0.0
  0
LINE
  8
0
 62
     0
 10
107.706
 20
50.6003
 30
0.0
 11
107.706
 21
53.5492
 31
0.0
  0
LINE
  8
0
 62
     0
 10
107.706
 20
53.5492
 30
0.0
 11
106.907
 21
53.5492
 31
0.0
  0
LINE
  8
0
 62
     0
 10
106.907
 20
53.5492
 30
0.0
 11
106.907
 21
54.5497
 31
0.0
  0
LINE
  8
0
 62
     0
 10
106.907
 20
54.5497
 30
0.0
 11
93.0561
 21
54.5497
 31
0.0
  0
LINE
  8
0
 62
     0
 10
112.106
 20
54.5497
 30
0.0
 11
112.106
 21
53.5492
 31
0.0
  0
LINE
  8
0
 62
     0
 10
112.106
 20
53.5492
 30
0.0
 11
111.307
 21
53.5492
 31
0.0
  0
LINE
  8
0
 62
     0
 10
111.307
 20
53.5492
 30
0.0
 11
111.307
 21
50.6003
 31
0.0
  0
LINE
  8
0
 62
     0
 10
111.307
 20
50.6003
 30
0.0
 11
112.106
 21
50.6003
 31
0.0
  0
LINE
  8
0
 62
     0
 10
112.106
 20
50.6003
 30
0.0
 11
112.106
 21
44.6497
 31
0.0
  0
LINE
  8
0
 62
     0
 10
112.106
 20
44.6497
 30
0.0
 11
111.307
 21
44.6497
 31
0.0
  0
LINE
  8
0
 62
     0
 10
111.307
 20
44.6497
 30
0.0
 11
111.307
 21
41.6994
 31
0.0
  0
LINE
  8
0
 62
     0
 10
111.307
 20
41.6994
 30
0.0
 11
112.106
 21
41.6994
 31
0.0
  0
LINE
  8
0
 62
     0
 10
112.106
 20
41.6994
 30
0.0
 11
112.106
 21
40.7003
 31
0.0
  0
LINE
  8
0
 62
     0
 10
112.106
 20
40.7003
 30
0.0
 11
125.957
 21
40.7003
 31
0.0
  0
LINE
  8
0
 62
     0
 10
125.957
 20
40.7003
 30
0.0
 11
125.957
 21
41.6994
 31
0.0
  0
LINE
  8
0
 62
     0
 10
125.957
 20
41.6994
 30
0.0
 11
126.756
 21
41.6994
 31
0.0
  0
LINE
  8
0
 62
     0
 10
126.756
 20
41.6994
 30
0.0
 11
126.756
 21
44.6497
 31
0.0
  0
LINE
  8
0
 62
     0
 10
126.756
 20
44.6497
 30
0.0
 11
125.957
 21
44.6497
 31
0.0
  0
LINE
  8
0
 62
     0
 10
125.957
 20
44.6497
 30
0.0
 11
125.957
 21
50.6003
 31
0.0
  0
LINE
  8
0
 62
     0
 10
125.957
 20
50.6003
 30
0.0
 11
126.756
 21
50.6003
 31
0.0
  0
LINE
  8
0
 62
     0
 10
126.756
 20
50.6003
 30
0.0
 11
126.756
 21
53.5492
 31
0.0
  0
LINE
  8
0
 62
     0
 10
126.756
 20
53.5492
 30
0.0
 11
125.957
 21
53.5492
 31
0.0
  0
LINE
  8
0
 62
     0
 10
125.957
 20
53.5492
 30
0.0
 11
125.957
 21
54.5497
 31
0.0
  0
LINE
  8
0
 62
     0
 10
125.957
 20
54.5497
 30
0.0
 11
112.106
 21
54.5497
 31
0.0
  0
LINE
  8
0
 62
     0
 10
131.156
 20
54.5497
 30
0.0
 11
131.156
 21
53.5492
 31
0.0
  0
LINE
  8
0
 62
     0
 10
131.156
 20
53.5492
 30
0.0
 11
130.358
 21
53.5492
 31
0.0
  0
LINE
  8
0
 62
     0
 10
130.358
 20
53.5492
 30
0.0
 11
130.358
 21
50.6003
 31
0.0
  0
LINE
  8
0
 62
     0
 10
130.358
 20
50.6003
 30
0.0
 11
131.156
 21
50.6003
 31
0.0
  0
LINE
  8
0
 62
     0
 10
131.156
 20
50.6003
 30
0.0
 11
131.156
 21
44.6497
 31
0.0
  0
LINE
  8
0
 62
     0
 10
131.156
 20
44.6497
 30
0.0
 11
130.358
 21
44.6497
 31
0.0
  0
LINE
  8
0
 62
     0
 10
130.358
 20
44.6497
 30
0.0
 11
130.358
 21
41.6994
 31
0.0
  0
LINE
  8
0
 62
     0
 10
130.358
 20
41.6994
 30
0.0
 11
131.156
 21
41.6994
 31
0.0
  0
LINE
  8
0
 62
     0
 10
131.156
 20
41.6994
 30
0.0
 11
131.156
 21
40.7003
 31
0.0
  0
LINE
  8
0
 62
     0
 10
131.156
 20
40.7003
 30
0.0
 11
145.007
 21
40.7003
 31
0.0
  0
LINE
  8
0
 62
     0
 10
145.007
 20
40.7003
 30
0.0
 11
145.007
 21
41.6994
 31
0.0
  0
LINE
  8
0
 62
     0
 10
145.007
 20
41.6994
 30
0.0
 11
145.808
 21
41.6994
 31
0.0
  0
LINE
  8
0
 62
     0
 10
145.808
 20
41.6994
 30
0.0
 11
145.808
 21
44.6497
 31
0.0
  0
LINE
  8
0
 62
     0
 10
145.808
 20
44.6497
 30
0.0
 11
145.007
 21
44.6497
 31
0.0
  0
LINE
  8
0
 62
     0
 10
145.007
 20
44.6497
 30
0.0
 11
145.007
 21
50.6003
 31
0.0
  0
LINE
  8
0
 62
     0
 10
145.007
 20
50.6003
 30
0.0
 11
145.808
 21
50.6003
 31
0.0
  0
LINE
  8
0
 62
     0
 10
145.808
 20
50.6003
 30
0.0
 11
145.808
 21
53.5492
 31
0.0
  0
LINE
  8
0
 62
     0
 10
145.808
 20
53.5492
 30
0.0
 11
145.007
 21
53.5492
 31
0.0
  0
LINE
  8
0
 62
     0
 10
145.007
 20
53.5492
 30
0.0
 11
145.007
 21
54.5497
 31
0.0
  0
LINE
  8
0
 62
     0
 10
145.007
 20
54.5497
 30
0.0
 11
131.156
 21
54.5497
 31
0.0
  0
LINE
  8
0
 62
     0
 10
150.206
 20
54.5497
 30
0.0
 11
150.206
 21
53.5492
 31
0.0
  0
LINE
  8
0
 62
     0
 10
150.206
 20
53.5492
 30
0.0
 11
149.407
 21
53.5492
 31
0.0
  0
LINE
  8
0
 62
     0
 10
149.407
 20
53.5492
 30
0.0
 11
149.407
 21
50.6003
 31
0.0
  0
LINE
  8
0
 62
     0
 10
149.407
 20
50.6003
 30
0.0
 11
150.206
 21
50.6003
 31
0.0
  0
LINE
  8
0
 62
     0
 10
150.206
 20
50.6003
 30
0.0
 11
150.206
 21
44.6497
 31
0.0
  0
LINE
  8
0
 62
     0
 10
150.206
 20
44.6497
 30
0.0
 11
149.407
 21
44.6497
 31
0.0
  0
LINE
  8
0
 62
     0
 10
149.407
 20
44.6497
 30
0.0
 11
149.407
 21
41.6994
 31
0.0
  0
LINE
  8
0
 62
     0
 10
149.407
 20
41.6994
 30
0.0
 11
150.206
 21
41.6994
 31
0.0
  0
LINE
  8
0
 62
     0
 10
150.206
 20
41.6994
 30
0.0
 11
150.206
 21
40.7003
 31
0.0
  0
LINE
  8
0
 62
     0
 10
150.206
 20
40.7003
 30
0.0
 11
164.058
 21
40.7003
 31
0.0
  0
LINE
  8
0
 62
     0
 10
164.058
 20
40.7003
 30
0.0
 11
164.058
 21
41.6994
 31
0.0
  0
LINE
  8
0
 62
     0
 10
164.058
 20
41.6994
 30
0.0
 11
164.858
 21
41.6994
 31
0.0
  0
LINE
  8
0
 62
     0
 10
164.858
 20
41.6994
 30
0.0
 11
164.858
 21
44.6497
 31
0.0
  0
LINE
  8
0
 62
     0
 10
164.858
 20
44.6497
 30
0.0
 11
164.058
 21
44.6497
 31
0.0
  0
LINE
  8
0
 62
     0
 10
164.058
 20
44.6497
 30
0.0
 11
164.058
 21
50.6003
 31
0.0
  0
LINE
  8
0
 62
     0
 10
164.058
 20
50.6003
 30
0.0
 11
164.858
 21
50.6003
 31
0.0
  0
LINE
  8
0
 62
     0
 10
164.858
 20
50.6003
 30
0.0
 11
164.858
 21
53.5492
 31
0.0
  0
LINE
  8
0
 62
     0
 10
164.858
 20
53.5492
 30
0.0
 11
164.058
 21
53.5492
 31
0.0
  0
LINE
  8
0
 62
     0
 10
164.058
 20
53.5492
 30
0.0
 11
164.058
 21
54.5497
 31
0.0
  0
LINE
  8
0
 62
     0
 10
164.058
 20
54.5497
 30
0.0
 11
150.206
 21
54.5497
 31
0.0
  0
LINE
  8
0
 62
     0
 10
169.256
 20
54.5497
 30
0.0
 11
169.256
 21
53.5492
 31
0.0
  0
LINE
  8
0
 62
     0
 10
169.256
 20
53.5492
 30
0.0
 11
168.457
 21
53.5492
 31
0.0
  0
LINE
  8
0
 62
     0
 10
168.457
 20
53.5492
 30
0.0
 11
168.457
 21
50.6003
 31
0.0
  0
LINE
  8
0
 62
     0
 10
168.457
 20
50.6003
 30
0.0
 11
169.256
 21
50.6003
 31
0.0
  0
LINE
  8
0
 62
     0
 10
169.256
 20
50.6003
 30
0.0
 11
169.256
 21
44.6497
 31
0.0
  0
LINE
  8
0
 62
     0
 10
169.256
 20
44.6497
 30
0.0
 11
168.457
 21
44.6497
 31
0.0
  0
LINE
  8
0
 62
     0
 10
168.457
 20
44.6497
 30
0.0
 11
168.457
 21
41.6994
 31
0.0
  0
LINE
  8
0
 62
     0
 10
168.457
 20
41.6994
 30
0.0
 11
169.256
 21
41.6994
 31
0.0
  0
LINE
  8
0
 62
     0
 10
169.256
 20
41.6994
 30
0.0
 11
169.256
 21
40.7003
 31
0.0
  0
LINE
  8
0
 62
     0
 10
169.256
 20
40.7003
 30
0.0
 11
183.108
 21
40.7003
 31
0.0
  0
LINE
  8
0
 62
     0
 10
183.108
 20
40.7003
 30
0.0
 11
183.108
 21
41.6994
 31
0.0
  0
LINE
  8
0
 62
     0
 10
183.108
 20
41.6994
 30
0.0
 11
183.906
 21
41.6994
 31
0.0
  0
LINE
  8
0
 62
     0
 10
183.906
 20
41.6994
 30
0.0
 11
183.906
 21
44.6497
 31
0.0
  0
LINE
  8
0
 62
     0
 10
183.906
 20
44.6497
 30
0.0
 11
183.108
 21
44.6497
 31
0.0
  0
LINE
  8
0
 62
     0
 10
183.108
 20
44.6497
 30
0.0
 11
183.108
 21
50.6003
 31
0.0
  0
LINE
  8
0
 62
     0
 10
183.108
 20
50.6003
 30
0.0
 11
183.906
 21
50.6003
 31
0.0
  0
LINE
  8
0
 62
     0
 10
183.906
 20
50.6003
 30
0.0
 11
183.906
 21
53.5492
 31
0.0
  0
LINE
  8
0
 62
     0
 10
183.906
 20
53.5492
 30
0.0
 11
183.108
 21
53.5492
 31
0.0
  0
LINE
  8
0
 62
     0
 10
183.108
 20
53.5492
 30
0.0
 11
183.108
 21
54.5497
 31
0.0
  0
LINE
  8
0
 62
     0
 10
183.108
 20
54.5497
 30
0.0
 11
169.256
 21
54.5497
 31
0.0
  0
LINE
  8
0
 62
     0
 10
188.307
 20
54.5497
 30
0.0
 11
188.307
 21
53.5492
 31
0.0
  0
LINE
  8
0
 62
     0
 10
188.307
 20
53.5492
 30
0.0
 11
187.507
 21
53.5492
 31
0.0
  0
LINE
  8
0
 62
     0
 10
187.507
 20
53.5492
 30
0.0
 11
187.507
 21
50.6003
 31
0.0
  0
LINE
  8
0
 62
     0
 10
187.507
 20
50.6003
 30
0.0
 11
188.307
 21
50.6003
 31
0.0
  0
LINE
  8
0
 62
     0
 10
188.307
 20
50.6003
 30
0.0
 11
188.307
 21
44.6497
 31
0.0
  0
LINE
  8
0
 62
     0
 10
188.307
 20
44.6497
 30
0.0
 11
187.507
 21
44.6497
 31
0.0
  0
LINE
  8
0
 62
     0
 10
187.507
 20
44.6497
 30
0.0
 11
187.507
 21
41.6994
 31
0.0
  0
LINE
  8
0
 62
     0
 10
187.507
 20
41.6994
 30
0.0
 11
188.307
 21
41.6994
 31
0.0
  0
LINE
  8
0
 62
     0
 10
188.307
 20
41.6994
 30
0.0
 11
188.307
 21
40.7003
 31
0.0
  0
LINE
  8
0
 62
     0
 10
188.307
 20
40.7003
 30
0.0
 11
202.157
 21
40.7003
 31
0.0
  0
LINE
  8
0
 62
     0
 10
202.157
 20
40.7003
 30
0.0
 11
202.157
 21
41.6994
 31
0.0
  0
LINE
  8
0
 62
     0
 10
202.157
 20
41.6994
 30
0.0
 11
202.956
 21
41.6994
 31
0.0
  0
LINE
  8
0
 62
     0
 10
202.956
 20
41.6994
 30
0.0
 11
202.956
 21
44.6497
 31
0.0
  0
LINE
  8
0
 62
     0
 10
202.956
 20
44.6497
 30
0.0
 11
202.157
 21
44.6497
 31
0.0
  0
LINE
  8
0
 62
     0
 10
202.157
 20
44.6497
 30
0.0
 11
202.157
 21
50.6003
 31
0.0
  0
LINE
  8
0
 62
     0
 10
202.157
 20
50.6003
 30
0.0
 11
202.956
 21
50.6003
 31
0.0
  0
LINE
  8
0
 62
     0
 10
202.956
 20
50.6003
 30
0.0
 11
202.956
 21
53.5492
 31
0.0
  0
LINE
  8
0
 62
     0
 10
202.956
 20
53.5492
 30
0.0
 11
202.157
 21
53.5492
 31
0.0
  0
LINE
  8
0
 62
     0
 10
202.157
 20
53.5492
 30
0.0
 11
202.157
 21
54.5497
 31
0.0
  0
LINE
  8
0
 62
     0
 10
202.157
 20
54.5497
 30
0.0
 11
188.307
 21
54.5497
 31
0.0
  0
LINE
  8
0
 62
     0
 10
207.357
 20
54.5497
 30
0.0
 11
207.357
 21
53.5492
 31
0.0
  0
LINE
  8
0
 62
     0
 10
207.357
 20
53.5492
 30
0.0
 11
206.558
 21
53.5492
 31
0.0
  0
LINE
  8
0
 62
     0
 10
206.558
 20
53.5492
 30
0.0
 11
206.558
 21
50.6003
 31
0.0
  0
LINE
  8
0
 62
     0
 10
206.558
 20
50.6003
 30
0.0
 11
207.357
 21
50.6003
 31
0.0
  0
LINE
  8
0
 62
     0
 10
207.357
 20
50.6003
 30
0.0
 11
207.357
 21
44.6497
 31
0.0
  0
LINE
  8
0
 62
     0
 10
207.357
 20
44.6497
 30
0.0
 11
206.558
 21
44.6497
 31
0.0
  0
LINE
  8
0
 62
     0
 10
206.558
 20
44.6497
 30
0.0
 11
206.558
 21
41.6994
 31
0.0
  0
LINE
  8
0
 62
     0
 10
206.558
 20
41.6994
 30
0.0
 11
207.357
 21
41.6994
 31
0.0
  0
LINE
  8
0
 62
     0
 10
207.357
 20
41.6994
 30
0.0
 11
207.357
 21
40.7003
 31
0.0
  0
LINE
  8
0
 62
     0
 10
207.357
 20
40.7003
 30
0.0
 11
221.207
 21
40.7003
 31
0.0
  0
LINE
  8
0
 62
     0
 10
221.207
 20
40.7003
 30
0.0
 11
221.207
 21
41.6994
 31
0.0
  0
LINE
  8
0
 62
     0
 10
221.207
 20
41.6994
 30
0.0
 11
222.006
 21
41.6994
 31
0.0
  0
LINE
  8
0
 62
     0
 10
222.006
 20
41.6994
 30
0.0
 11
222.006
 21
44.6497
 31
0.0
  0
LINE
  8
0
 62
     0
 10
222.006
 20
44.6497
 30
0.0
 11
221.207
 21
44.6497
 31
0.0
  0
LINE
  8
0
 62
     0
 10
221.207
 20
44.6497
 30
0.0
 11
221.207
 21
50.6003
 31
0.0
  0
LINE
  8
0
 62
     0
 10
221.207
 20
50.6003
 30
0.0
 11
222.006
 21
50.6003
 31
0.0
  0
LINE
  8
0
 62
     0
 10
222.006
 20
50.6003
 30
0.0
 11
222.006
 21
53.5492
 31
0.0
  0
LINE
  8
0
 62
     0
 10
222.006
 20
53.5492
 30
0.0
 11
221.207
 21
53.5492
 31
0.0
  0
LINE
  8
0
 62
     0
 10
221.207
 20
53.5492
 30
0.0
 11
221.207
 21
54.5497
 31
0.0
  0
LINE
  8
0
 62
     0
 10
221.207
 20
54.5497
 30
0.0
 11
207.357
 21
54.5497
 31
0.0
  0
LINE
  8
0
 62
     0
 10
226.406
 20
54.5497
 30
0.0
 11
226.406
 21
53.5492
 31
0.0
  0
LINE
  8
0
 62
     0
 10
226.406
 20
53.5492
 30
0.0
 11
225.608
 21
53.5492
 31
0.0
  0
LINE
  8
0
 62
     0
 10
225.608
 20
53.5492
 30
0.0
 11
225.608
 21
50.6003
 31
0.0
  0
LINE
  8
0
 62
     0
 10
225.608
 20
50.6003
 30
0.0
 11
226.406
 21
50.6003
 31
0.0
  0
LINE
  8
0
 62
     0
 10
226.406
 20
50.6003
 30
0.0
 11
226.406
 21
44.6497
 31
0.0
  0
LINE
  8
0
 62
     0
 10
226.406
 20
44.6497
 30
0.0
 11
225.608
 21
44.6497
 31
0.0
  0
LINE
  8
0
 62
     0
 10
225.608
 20
44.6497
 30
0.0
 11
225.608
 21
41.6994
 31
0.0
  0
LINE
  8
0
 62
     0
 10
225.608
 20
41.6994
 30
0.0
 11
226.406
 21
41.6994
 31
0.0
  0
LINE
  8
0
 62
     0
 10
226.406
 20
41.6994
 30
0.0
 11
226.406
 21
40.7003
 31
0.0
  0
LINE
  8
0
 62
     0
 10
226.406
 20
40.7003
 30
0.0
 11
240.257
 21
40.7003
 31
0.0
  0
LINE
  8
0
 62
     0
 10
240.257
 20
40.7003
 30
0.0
 11
240.257
 21
41.6994
 31
0.0
  0
LINE
  8
0
 62
     0
 10
240.257
 20
41.6994
 30
0.0
 11
241.058
 21
41.6994
 31
0.0
  0
LINE
  8
0
 62
     0
 10
241.058
 20
41.6994
 30
0.0
 11
241.058
 21
44.6497
 31
0.0
  0
LINE
  8
0
 62
     0
 10
241.058
 20
44.6497
 30
0.0
 11
240.257
 21
44.6497
 31
0.0
  0
LINE
  8
0
 62
     0
 10
240.257
 20
44.6497
 30
0.0
 11
240.257
 21
50.6003
 31
0.0
  0
LINE
  8
0
 62
     0
 10
240.257
 20
50.6003
 30
0.0
 11
241.058
 21
50.6003
 31
0.0
  0
LINE
  8
0
 62
     0
 10
241.058
 20
50.6003
 30
0.0
 11
241.058
 21
53.5492
 31
0.0
  0
LINE
  8
0
 62
     0
 10
241.058
 20
53.5492
 30
0.0
 11
240.257
 21
53.5492
 31
0.0
  0
LINE
  8
0
 62
     0
 10
240.257
 20
53.5492
 30
0.0
 11
240.257
 21
54.5497
 31
0.0
  0
LINE
  8
0
 62
     0
 10
240.257
 20
54.5497
 30
0.0
 11
226.406
 21
54.5497
 31
0.0
  0
LINE
  8
0
 62
     0
 10
127.795
 20
49.9304
 30
0.0
 11
127.12
 21
49.5847
 31
0.0
  0
LINE
  8
0
 62
     0
 10
127.12
 20
49.5847
 30
0.0
 11
126.584
 21
49.0485
 31
0.0
  0
LINE
  8
0
 62
     0
 10
126.584
 20
49.0485
 30
0.0
 11
126.238
 21
48.3747
 31
0.0
  0
LINE
  8
0
 62
     0
 10
126.238
 20
48.3747
 30
0.0
 11
126.119
 21
47.6236
 31
0.0
  0
LINE
  8
0
 62
     0
 10
126.119
 20
47.6236
 30
0.0
 11
126.238
 21
46.8739
 31
0.0
  0
LINE
  8
0
 62
     0
 10
126.238
 20
46.8739
 30
0.0
 11
126.584
 21
46.1973
 31
0.0
  0
LINE
  8
0
 62
     0
 10
126.584
 20
46.1973
 30
0.0
 11
127.12
 21
45.6629
 31
0.0
  0
LINE
  8
0
 62
     0
 10
127.12
 20
45.6629
 30
0.0
 11
127.795
 21
45.3168
 31
0.0
  0
LINE
  8
0
 62
     0
 10
127.795
 20
45.3168
 30
0.0
 11
128.546
 21
45.1997
 31
0.0
  0
LINE
  8
0
 62
     0
 10
128.546
 20
45.1997
 30
0.0
 11
129.294
 21
45.3168
 31
0.0
  0
LINE
  8
0
 62
     0
 10
129.294
 20
45.3168
 30
0.0
 11
129.971
 21
45.6629
 31
0.0
  0
LINE
  8
0
 62
     0
 10
129.971
 20
45.6629
 30
0.0
 11
130.507
 21
46.1973
 31
0.0
  0
LINE
  8
0
 62
     0
 10
130.507
 20
46.1973
 30
0.0
 11
130.85
 21
46.8739
 31
0.0
  0
LINE
  8
0
 62
     0
 10
130.85
 20
46.8739
 30
0.0
 11
130.97
 21
47.6236
 31
0.0
  0
LINE
  8
0
 62
     0
 10
130.97
 20
47.6236
 30
0.0
 11
130.85
 21
48.3747
 31
0.0
  0
LINE
  8
0
 62
     0
 10
130.85
 20
48.3747
 30
0.0
 11
130.507
 21
49.0485
 31
0.0
  0
LINE
  8
0
 62
     0
 10
130.507
 20
49.0485
 30
0.0
 11
129.971
 21
49.5847
 31
0.0
  0
LINE
  8
0
 62
     0
 10
129.971
 20
49.5847
 30
0.0
 11
129.294
 21
49.9304
 31
0.0
  0
LINE
  8
0
 62
     0
 10
129.294
 20
49.9304
 30
0.0
 11
128.546
 21
50.0489
 31
0.0
  0
LINE
  8
0
 62
     0
 10
128.546
 20
50.0489
 30
0.0
 11
127.795
 21
49.9304
 31
0.0
  0
LINE
  8
0
 62
     0
 10
7.33256
 20
73.5997
 30
0.0
 11
7.33256
 21
72.5992
 31
0.0
  0
LINE
  8
0
 62
     0
 10
7.33256
 20
72.5992
 30
0.0
 11
6.53327
 21
72.5992
 31
0.0
  0
LINE
  8
0
 62
     0
 10
6.53327
 20
72.5992
 30
0.0
 11
6.53327
 21
69.6489
 31
0.0
  0
LINE
  8
0
 62
     0
 10
6.53327
 20
69.6489
 30
0.0
 11
7.33256
 21
69.6489
 31
0.0
  0
LINE
  8
0
 62
     0
 10
7.33256
 20
69.6489
 30
0.0
 11
7.33256
 21
63.6997
 31
0.0
  0
LINE
  8
0
 62
     0
 10
7.33256
 20
63.6997
 30
0.0
 11
6.53327
 21
63.6997
 31
0.0
  0
LINE
  8
0
 62
     0
 10
6.53327
 20
63.6997
 30
0.0
 11
6.53327
 21
60.7494
 31
0.0
  0
LINE
  8
0
 62
     0
 10
6.53327
 20
60.7494
 30
0.0
 11
7.33256
 21
60.7494
 31
0.0
  0
LINE
  8
0
 62
     0
 10
7.33256
 20
60.7494
 30
0.0
 11
7.33256
 21
59.7489
 31
0.0
  0
LINE
  8
0
 62
     0
 10
7.33256
 20
59.7489
 30
0.0
 11
21.1832
 21
59.7489
 31
0.0
  0
LINE
  8
0
 62
     0
 10
21.1832
 20
59.7489
 30
0.0
 11
21.1832
 21
60.7494
 31
0.0
  0
LINE
  8
0
 62
     0
 10
21.1832
 20
60.7494
 30
0.0
 11
21.9825
 21
60.7494
 31
0.0
  0
LINE
  8
0
 62
     0
 10
21.9825
 20
60.7494
 30
0.0
 11
21.9825
 21
63.6997
 31
0.0
  0
LINE
  8
0
 62
     0
 10
21.9825
 20
63.6997
 30
0.0
 11
21.1832
 21
63.6997
 31
0.0
  0
LINE
  8
0
 62
     0
 10
21.1832
 20
63.6997
 30
0.0
 11
21.1832
 21
69.6489
 31
0.0
  0
LINE
  8
0
 62
     0
 10
21.1832
 20
69.6489
 30
0.0
 11
21.9825
 21
69.6489
 31
0.0
  0
LINE
  8
0
 62
     0
 10
21.9825
 20
69.6489
 30
0.0
 11
21.9825
 21
72.5992
 31
0.0
  0
LINE
  8
0
 62
     0
 10
21.9825
 20
72.5992
 30
0.0
 11
21.1832
 21
72.5992
 31
0.0
  0
LINE
  8
0
 62
     0
 10
21.1832
 20
72.5992
 30
0.0
 11
21.1832
 21
73.5997
 31
0.0
  0
LINE
  8
0
 62
     0
 10
21.1832
 20
73.5997
 30
0.0
 11
7.33256
 21
73.5997
 31
0.0
  0
LINE
  8
0
 62
     0
 10
31.1437
 20
73.5997
 30
0.0
 11
31.1437
 21
72.5992
 31
0.0
  0
LINE
  8
0
 62
     0
 10
31.1437
 20
72.5992
 30
0.0
 11
30.3444
 21
72.5992
 31
0.0
  0
LINE
  8
0
 62
     0
 10
30.3444
 20
72.5992
 30
0.0
 11
30.3444
 21
69.6489
 31
0.0
  0
LINE
  8
0
 62
     0
 10
30.3444
 20
69.6489
 30
0.0
 11
31.1437
 21
69.6489
 31
0.0
  0
LINE
  8
0
 62
     0
 10
31.1437
 20
69.6489
 30
0.0
 11
31.1437
 21
63.6997
 31
0.0
  0
LINE
  8
0
 62
     0
 10
31.1437
 20
63.6997
 30
0.0
 11
30.3444
 21
63.6997
 31
0.0
  0
LINE
  8
0
 62
     0
 10
30.3444
 20
63.6997
 30
0.0
 11
30.3444
 21
60.7494
 31
0.0
  0
LINE
  8
0
 62
     0
 10
30.3444
 20
60.7494
 30
0.0
 11
31.1437
 21
60.7494
 31
0.0
  0
LINE
  8
0
 62
     0
 10
31.1437
 20
60.7494
 30
0.0
 11
31.1437
 21
59.7489
 31
0.0
  0
LINE
  8
0
 62
     0
 10
31.1437
 20
59.7489
 30
0.0
 11
44.9943
 21
59.7489
 31
0.0
  0
LINE
  8
0
 62
     0
 10
44.9943
 20
59.7489
 30
0.0
 11
44.9943
 21
60.7494
 31
0.0
  0
LINE
  8
0
 62
     0
 10
44.9943
 20
60.7494
 30
0.0
 11
45.7951
 21
60.7494
 31
0.0
  0
LINE
  8
0
 62
     0
 10
45.7951
 20
60.7494
 30
0.0
 11
45.7951
 21
63.6997
 31
0.0
  0
LINE
  8
0
 62
     0
 10
45.7951
 20
63.6997
 30
0.0
 11
44.9943
 21
63.6997
 31
0.0
  0
LINE
  8
0
 62
     0
 10
44.9943
 20
63.6997
 30
0.0
 11
44.9943
 21
69.6489
 31
0.0
  0
LINE
  8
0
 62
     0
 10
44.9943
 20
69.6489
 30
0.0
 11
45.7951
 21
69.6489
 31
0.0
  0
LINE
  8
0
 62
     0
 10
45.7951
 20
69.6489
 30
0.0
 11
45.7951
 21
72.5992
 31
0.0
  0
LINE
  8
0
 62
     0
 10
45.7951
 20
72.5992
 30
0.0
 11
44.9943
 21
72.5992
 31
0.0
  0
LINE
  8
0
 62
     0
 10
44.9943
 20
72.5992
 30
0.0
 11
44.9943
 21
73.5997
 31
0.0
  0
LINE
  8
0
 62
     0
 10
44.9943
 20
73.5997
 30
0.0
 11
31.1437
 21
73.5997
 31
0.0
  0
LINE
  8
0
 62
     0
 10
50.195
 20
73.5997
 30
0.0
 11
50.195
 21
72.5992
 31
0.0
  0
LINE
  8
0
 62
     0
 10
50.195
 20
72.5992
 30
0.0
 11
49.3945
 21
72.5992
 31
0.0
  0
LINE
  8
0
 62
     0
 10
49.3945
 20
72.5992
 30
0.0
 11
49.3945
 21
69.6489
 31
0.0
  0
LINE
  8
0
 62
     0
 10
49.3945
 20
69.6489
 30
0.0
 11
50.195
 21
69.6489
 31
0.0
  0
LINE
  8
0
 62
     0
 10
50.195
 20
69.6489
 30
0.0
 11
50.195
 21
63.6997
 31
0.0
  0
LINE
  8
0
 62
     0
 10
50.195
 20
63.6997
 30
0.0
 11
49.3945
 21
63.6997
 31
0.0
  0
LINE
  8
0
 62
     0
 10
49.3945
 20
63.6997
 30
0.0
 11
49.3945
 21
60.7494
 31
0.0
  0
LINE
  8
0
 62
     0
 10
49.3945
 20
60.7494
 30
0.0
 11
50.195
 21
60.7494
 31
0.0
  0
LINE
  8
0
 62
     0
 10
50.195
 20
60.7494
 30
0.0
 11
50.195
 21
59.7489
 31
0.0
  0
LINE
  8
0
 62
     0
 10
50.195
 20
59.7489
 30
0.0
 11
64.0443
 21
59.7489
 31
0.0
  0
LINE
  8
0
 62
     0
 10
64.0443
 20
59.7489
 30
0.0
 11
64.0443
 21
60.7494
 31
0.0
  0
LINE
  8
0
 62
     0
 10
64.0443
 20
60.7494
 30
0.0
 11
64.8451
 21
60.7494
 31
0.0
  0
LINE
  8
0
 62
     0
 10
64.8451
 20
60.7494
 30
0.0
 11
64.8451
 21
63.6997
 31
0.0
  0
LINE
  8
0
 62
     0
 10
64.8451
 20
63.6997
 30
0.0
 11
64.0443
 21
63.6997
 31
0.0
  0
LINE
  8
0
 62
     0
 10
64.0443
 20
63.6997
 30
0.0
 11
64.0443
 21
69.6489
 31
0.0
  0
LINE
  8
0
 62
     0
 10
64.0443
 20
69.6489
 30
0.0
 11
64.8451
 21
69.6489
 31
0.0
  0
LINE
  8
0
 62
     0
 10
64.8451
 20
69.6489
 30
0.0
 11
64.8451
 21
72.5992
 31
0.0
  0
LINE
  8
0
 62
     0
 10
64.8451
 20
72.5992
 30
0.0
 11
64.0443
 21
72.5992
 31
0.0
  0
LINE
  8
0
 62
     0
 10
64.0443
 20
72.5992
 30
0.0
 11
64.0443
 21
73.5997
 31
0.0
  0
LINE
  8
0
 62
     0
 10
64.0443
 20
73.5997
 30
0.0
 11
50.195
 21
73.5997
 31
0.0
  0
LINE
  8
0
 62
     0
 10
69.245
 20
73.5997
 30
0.0
 11
69.245
 21
72.5992
 31
0.0
  0
LINE
  8
0
 62
     0
 10
69.245
 20
72.5992
 30
0.0
 11
68.4445
 21
72.5992
 31
0.0
  0
LINE
  8
0
 62
     0
 10
68.4445
 20
72.5992
 30
0.0
 11
68.4445
 21
69.6489
 31
0.0
  0
LINE
  8
0
 62
     0
 10
68.4445
 20
69.6489
 30
0.0
 11
69.245
 21
69.6489
 31
0.0
  0
LINE
  8
0
 62
     0
 10
69.245
 20
69.6489
 30
0.0
 11
69.245
 21
63.6997
 31
0.0
  0
LINE
  8
0
 62
     0
 10
69.245
 20
63.6997
 30
0.0
 11
68.4445
 21
63.6997
 31
0.0
  0
LINE
  8
0
 62
     0
 10
68.4445
 20
63.6997
 30
0.0
 11
68.4445
 21
60.7494
 31
0.0
  0
LINE
  8
0
 62
     0
 10
68.4445
 20
60.7494
 30
0.0
 11
69.245
 21
60.7494
 31
0.0
  0
LINE
  8
0
 62
     0
 10
69.245
 20
60.7494
 30
0.0
 11
69.245
 21
59.7489
 31
0.0
  0
LINE
  8
0
 62
     0
 10
69.245
 20
59.7489
 30
0.0
 11
83.0943
 21
59.7489
 31
0.0
  0
LINE
  8
0
 62
     0
 10
83.0943
 20
59.7489
 30
0.0
 11
83.0943
 21
60.7494
 31
0.0
  0
LINE
  8
0
 62
     0
 10
83.0943
 20
60.7494
 30
0.0
 11
83.8937
 21
60.7494
 31
0.0
  0
LINE
  8
0
 62
     0
 10
83.8937
 20
60.7494
 30
0.0
 11
83.8937
 21
63.6997
 31
0.0
  0
LINE
  8
0
 62
     0
 10
83.8937
 20
63.6997
 30
0.0
 11
83.0943
 21
63.6997
 31
0.0
  0
LINE
  8
0
 62
     0
 10
83.0943
 20
63.6997
 30
0.0
 11
83.0943
 21
69.6489
 31
0.0
  0
LINE
  8
0
 62
     0
 10
83.0943
 20
69.6489
 30
0.0
 11
83.8937
 21
69.6489
 31
0.0
  0
LINE
  8
0
 62
     0
 10
83.8937
 20
69.6489
 30
0.0
 11
83.8937
 21
72.5992
 31
0.0
  0
LINE
  8
0
 62
     0
 10
83.8937
 20
72.5992
 30
0.0
 11
83.0943
 21
72.5992
 31
0.0
  0
LINE
  8
0
 62
     0
 10
83.0943
 20
72.5992
 30
0.0
 11
83.0943
 21
73.5997
 31
0.0
  0
LINE
  8
0
 62
     0
 10
83.0943
 20
73.5997
 30
0.0
 11
69.245
 21
73.5997
 31
0.0
  0
LINE
  8
0
 62
     0
 10
88.295
 20
73.5997
 30
0.0
 11
88.295
 21
72.5992
 31
0.0
  0
LINE
  8
0
 62
     0
 10
88.295
 20
72.5992
 30
0.0
 11
87.4945
 21
72.5992
 31
0.0
  0
LINE
  8
0
 62
     0
 10
87.4945
 20
72.5992
 30
0.0
 11
87.4945
 21
69.6489
 31
0.0
  0
LINE
  8
0
 62
     0
 10
87.4945
 20
69.6489
 30
0.0
 11
88.295
 21
69.6489
 31
0.0
  0
LINE
  8
0
 62
     0
 10
88.295
 20
69.6489
 30
0.0
 11
88.295
 21
63.6997
 31
0.0
  0
LINE
  8
0
 62
     0
 10
88.295
 20
63.6997
 30
0.0
 11
87.4945
 21
63.6997
 31
0.0
  0
LINE
  8
0
 62
     0
 10
87.4945
 20
63.6997
 30
0.0
 11
87.4945
 21
60.7494
 31
0.0
  0
LINE
  8
0
 62
     0
 10
87.4945
 20
60.7494
 30
0.0
 11
88.295
 21
60.7494
 31
0.0
  0
LINE
  8
0
 62
     0
 10
88.295
 20
60.7494
 30
0.0
 11
88.295
 21
59.7489
 31
0.0
  0
LINE
  8
0
 62
     0
 10
88.295
 20
59.7489
 30
0.0
 11
102.144
 21
59.7489
 31
0.0
  0
LINE
  8
0
 62
     0
 10
102.144
 20
59.7489
 30
0.0
 11
102.144
 21
60.7494
 31
0.0
  0
LINE
  8
0
 62
     0
 10
102.144
 20
60.7494
 30
0.0
 11
102.944
 21
60.7494
 31
0.0
  0
LINE
  8
0
 62
     0
 10
102.944
 20
60.7494
 30
0.0
 11
102.944
 21
63.6997
 31
0.0
  0
LINE
  8
0
 62
     0
 10
102.944
 20
63.6997
 30
0.0
 11
102.144
 21
63.6997
 31
0.0
  0
LINE
  8
0
 62
     0
 10
102.144
 20
63.6997
 30
0.0
 11
102.144
 21
69.6489
 31
0.0
  0
LINE
  8
0
 62
     0
 10
102.144
 20
69.6489
 30
0.0
 11
102.944
 21
69.6489
 31
0.0
  0
LINE
  8
0
 62
     0
 10
102.944
 20
69.6489
 30
0.0
 11
102.944
 21
72.5992
 31
0.0
  0
LINE
  8
0
 62
     0
 10
102.944
 20
72.5992
 30
0.0
 11
102.144
 21
72.5992
 31
0.0
  0
LINE
  8
0
 62
     0
 10
102.144
 20
72.5992
 30
0.0
 11
102.144
 21
73.5997
 31
0.0
  0
LINE
  8
0
 62
     0
 10
102.144
 20
73.5997
 30
0.0
 11
88.295
 21
73.5997
 31
0.0
  0
LINE
  8
0
 62
     0
 10
107.345
 20
73.5997
 30
0.0
 11
107.345
 21
72.5992
 31
0.0
  0
LINE
  8
0
 62
     0
 10
107.345
 20
72.5992
 30
0.0
 11
106.545
 21
72.5992
 31
0.0
  0
LINE
  8
0
 62
     0
 10
106.545
 20
72.5992
 30
0.0
 11
106.545
 21
69.6489
 31
0.0
  0
LINE
  8
0
 62
     0
 10
106.545
 20
69.6489
 30
0.0
 11
107.345
 21
69.6489
 31
0.0
  0
LINE
  8
0
 62
     0
 10
107.345
 20
69.6489
 30
0.0
 11
107.345
 21
63.6997
 31
0.0
  0
LINE
  8
0
 62
     0
 10
107.345
 20
63.6997
 30
0.0
 11
106.545
 21
63.6997
 31
0.0
  0
LINE
  8
0
 62
     0
 10
106.545
 20
63.6997
 30
0.0
 11
106.545
 21
60.7494
 31
0.0
  0
LINE
  8
0
 62
     0
 10
106.545
 20
60.7494
 30
0.0
 11
107.345
 21
60.7494
 31
0.0
  0
LINE
  8
0
 62
     0
 10
107.345
 20
60.7494
 30
0.0
 11
107.345
 21
59.7489
 31
0.0
  0
LINE
  8
0
 62
     0
 10
107.345
 20
59.7489
 30
0.0
 11
121.194
 21
59.7489
 31
0.0
  0
LINE
  8
0
 62
     0
 10
121.194
 20
59.7489
 30
0.0
 11
121.194
 21
60.7494
 31
0.0
  0
LINE
  8
0
 62
     0
 10
121.194
 20
60.7494
 30
0.0
 11
121.995
 21
60.7494
 31
0.0
  0
LINE
  8
0
 62
     0
 10
121.995
 20
60.7494
 30
0.0
 11
121.995
 21
63.6997
 31
0.0
  0
LINE
  8
0
 62
     0
 10
121.995
 20
63.6997
 30
0.0
 11
121.194
 21
63.6997
 31
0.0
  0
LINE
  8
0
 62
     0
 10
121.194
 20
63.6997
 30
0.0
 11
121.194
 21
69.6489
 31
0.0
  0
LINE
  8
0
 62
     0
 10
121.194
 20
69.6489
 30
0.0
 11
121.995
 21
69.6489
 31
0.0
  0
LINE
  8
0
 62
     0
 10
121.995
 20
69.6489
 30
0.0
 11
121.995
 21
72.5992
 31
0.0
  0
LINE
  8
0
 62
     0
 10
121.995
 20
72.5992
 30
0.0
 11
121.194
 21
72.5992
 31
0.0
  0
LINE
  8
0
 62
     0
 10
121.194
 20
72.5992
 30
0.0
 11
121.194
 21
73.5997
 31
0.0
  0
LINE
  8
0
 62
     0
 10
121.194
 20
73.5997
 30
0.0
 11
107.345
 21
73.5997
 31
0.0
  0
LINE
  8
0
 62
     0
 10
126.394
 20
73.5997
 30
0.0
 11
126.394
 21
72.5992
 31
0.0
  0
LINE
  8
0
 62
     0
 10
126.394
 20
72.5992
 30
0.0
 11
125.595
 21
72.5992
 31
0.0
  0
LINE
  8
0
 62
     0
 10
125.595
 20
72.5992
 30
0.0
 11
125.595
 21
69.6489
 31
0.0
  0
LINE
  8
0
 62
     0
 10
125.595
 20
69.6489
 30
0.0
 11
126.394
 21
69.6489
 31
0.0
  0
LINE
  8
0
 62
     0
 10
126.394
 20
69.6489
 30
0.0
 11
126.394
 21
63.6997
 31
0.0
  0
LINE
  8
0
 62
     0
 10
126.394
 20
63.6997
 30
0.0
 11
125.595
 21
63.6997
 31
0.0
  0
LINE
  8
0
 62
     0
 10
125.595
 20
63.6997
 30
0.0
 11
125.595
 21
60.7494
 31
0.0
  0
LINE
  8
0
 62
     0
 10
125.595
 20
60.7494
 30
0.0
 11
126.394
 21
60.7494
 31
0.0
  0
LINE
  8
0
 62
     0
 10
126.394
 20
60.7494
 30
0.0
 11
126.394
 21
59.7489
 31
0.0
  0
LINE
  8
0
 62
     0
 10
126.394
 20
59.7489
 30
0.0
 11
140.244
 21
59.7489
 31
0.0
  0
LINE
  8
0
 62
     0
 10
140.244
 20
59.7489
 30
0.0
 11
140.244
 21
60.7494
 31
0.0
  0
LINE
  8
0
 62
     0
 10
140.244
 20
60.7494
 30
0.0
 11
141.044
 21
60.7494
 31
0.0
  0
LINE
  8
0
 62
     0
 10
141.044
 20
60.7494
 30
0.0
 11
141.044
 21
63.6997
 31
0.0
  0
LINE
  8
0
 62
     0
 10
141.044
 20
63.6997
 30
0.0
 11
140.244
 21
63.6997
 31
0.0
  0
LINE
  8
0
 62
     0
 10
140.244
 20
63.6997
 30
0.0
 11
140.244
 21
69.6489
 31
0.0
  0
LINE
  8
0
 62
     0
 10
140.244
 20
69.6489
 30
0.0
 11
141.044
 21
69.6489
 31
0.0
  0
LINE
  8
0
 62
     0
 10
141.044
 20
69.6489
 30
0.0
 11
141.044
 21
72.5992
 31
0.0
  0
LINE
  8
0
 62
     0
 10
141.044
 20
72.5992
 30
0.0
 11
140.244
 21
72.5992
 31
0.0
  0
LINE
  8
0
 62
     0
 10
140.244
 20
72.5992
 30
0.0
 11
140.244
 21
73.5997
 31
0.0
  0
LINE
  8
0
 62
     0
 10
140.244
 20
73.5997
 30
0.0
 11
126.394
 21
73.5997
 31
0.0
  0
LINE
  8
0
 62
     0
 10
145.445
 20
73.5997
 30
0.0
 11
145.445
 21
72.5992
 31
0.0
  0
LINE
  8
0
 62
     0
 10
145.445
 20
72.5992
 30
0.0
 11
144.645
 21
72.5992
 31
0.0
  0
LINE
  8
0
 62
     0
 10
144.645
 20
72.5992
 30
0.0
 11
144.645
 21
69.6489
 31
0.0
  0
LINE
  8
0
 62
     0
 10
144.645
 20
69.6489
 30
0.0
 11
145.445
 21
69.6489
 31
0.0
  0
LINE
  8
0
 62
     0
 10
145.445
 20
69.6489
 30
0.0
 11
145.445
 21
63.6997
 31
0.0
  0
LINE
  8
0
 62
     0
 10
145.445
 20
63.6997
 30
0.0
 11
144.645
 21
63.6997
 31
0.0
  0
LINE
  8
0
 62
     0
 10
144.645
 20
63.6997
 30
0.0
 11
144.645
 21
60.7494
 31
0.0
  0
LINE
  8
0
 62
     0
 10
144.645
 20
60.7494
 30
0.0
 11
145.445
 21
60.7494
 31
0.0
  0
LINE
  8
0
 62
     0
 10
145.445
 20
60.7494
 30
0.0
 11
145.445
 21
59.7489
 31
0.0
  0
LINE
  8
0
 62
     0
 10
145.445
 20
59.7489
 30
0.0
 11
159.294
 21
59.7489
 31
0.0
  0
LINE
  8
0
 62
     0
 10
159.294
 20
59.7489
 30
0.0
 11
159.294
 21
60.7494
 31
0.0
  0
LINE
  8
0
 62
     0
 10
159.294
 20
60.7494
 30
0.0
 11
160.094
 21
60.7494
 31
0.0
  0
LINE
  8
0
 62
     0
 10
160.094
 20
60.7494
 30
0.0
 11
160.094
 21
63.6997
 31
0.0
  0
LINE
  8
0
 62
     0
 10
160.094
 20
63.6997
 30
0.0
 11
159.294
 21
63.6997
 31
0.0
  0
LINE
  8
0
 62
     0
 10
159.294
 20
63.6997
 30
0.0
 11
159.294
 21
69.6489
 31
0.0
  0
LINE
  8
0
 62
     0
 10
159.294
 20
69.6489
 30
0.0
 11
160.094
 21
69.6489
 31
0.0
  0
LINE
  8
0
 62
     0
 10
160.094
 20
69.6489
 30
0.0
 11
160.094
 21
72.5992
 31
0.0
  0
LINE
  8
0
 62
     0
 10
160.094
 20
72.5992
 30
0.0
 11
159.294
 21
72.5992
 31
0.0
  0
LINE
  8
0
 62
     0
 10
159.294
 20
72.5992
 30
0.0
 11
159.294
 21
73.5997
 31
0.0
  0
LINE
  8
0
 62
     0
 10
159.294
 20
73.5997
 30
0.0
 11
145.445
 21
73.5997
 31
0.0
  0
LINE
  8
0
 62
     0
 10
164.495
 20
73.5997
 30
0.0
 11
164.495
 21
72.5992
 31
0.0
  0
LINE
  8
0
 62
     0
 10
164.495
 20
72.5992
 30
0.0
 11
163.695
 21
72.5992
 31
0.0
  0
LINE
  8
0
 62
     0
 10
163.695
 20
72.5992
 30
0.0
 11
163.695
 21
69.6489
 31
0.0
  0
LINE
  8
0
 62
     0
 10
163.695
 20
69.6489
 30
0.0
 11
164.495
 21
69.6489
 31
0.0
  0
LINE
  8
0
 62
     0
 10
164.495
 20
69.6489
 30
0.0
 11
164.495
 21
63.6997
 31
0.0
  0
LINE
  8
0
 62
     0
 10
164.495
 20
63.6997
 30
0.0
 11
163.695
 21
63.6997
 31
0.0
  0
LINE
  8
0
 62
     0
 10
163.695
 20
63.6997
 30
0.0
 11
163.695
 21
60.7494
 31
0.0
  0
LINE
  8
0
 62
     0
 10
163.695
 20
60.7494
 30
0.0
 11
164.495
 21
60.7494
 31
0.0
  0
LINE
  8
0
 62
     0
 10
164.495
 20
60.7494
 30
0.0
 11
164.495
 21
59.7489
 31
0.0
  0
LINE
  8
0
 62
     0
 10
164.495
 20
59.7489
 30
0.0
 11
178.344
 21
59.7489
 31
0.0
  0
LINE
  8
0
 62
     0
 10
178.344
 20
59.7489
 30
0.0
 11
178.344
 21
60.7494
 31
0.0
  0
LINE
  8
0
 62
     0
 10
178.344
 20
60.7494
 30
0.0
 11
179.144
 21
60.7494
 31
0.0
  0
LINE
  8
0
 62
     0
 10
179.144
 20
60.7494
 30
0.0
 11
179.144
 21
63.6997
 31
0.0
  0
LINE
  8
0
 62
     0
 10
179.144
 20
63.6997
 30
0.0
 11
178.344
 21
63.6997
 31
0.0
  0
LINE
  8
0
 62
     0
 10
178.344
 20
63.6997
 30
0.0
 11
178.344
 21
69.6489
 31
0.0
  0
LINE
  8
0
 62
     0
 10
178.344
 20
69.6489
 30
0.0
 11
179.144
 21
69.6489
 31
0.0
  0
LINE
  8
0
 62
     0
 10
179.144
 20
69.6489
 30
0.0
 11
179.144
 21
72.5992
 31
0.0
  0
LINE
  8
0
 62
     0
 10
179.144
 20
72.5992
 30
0.0
 11
178.344
 21
72.5992
 31
0.0
  0
LINE
  8
0
 62
     0
 10
178.344
 20
72.5992
 30
0.0
 11
178.344
 21
73.5997
 31
0.0
  0
LINE
  8
0
 62
     0
 10
178.344
 20
73.5997
 30
0.0
 11
164.495
 21
73.5997
 31
0.0
  0
LINE
  8
0
 62
     0
 10
183.544
 20
73.5997
 30
0.0
 11
183.544
 21
72.5992
 31
0.0
  0
LINE
  8
0
 62
     0
 10
183.544
 20
72.5992
 30
0.0
 11
182.745
 21
72.5992
 31
0.0
  0
LINE
  8
0
 62
     0
 10
182.745
 20
72.5992
 30
0.0
 11
182.745
 21
69.6489
 31
0.0
  0
LINE
  8
0
 62
     0
 10
182.745
 20
69.6489
 30
0.0
 11
183.544
 21
69.6489
 31
0.0
  0
LINE
  8
0
 62
     0
 10
183.544
 20
69.6489
 30
0.0
 11
183.544
 21
63.6997
 31
0.0
  0
LINE
  8
0
 62
     0
 10
183.544
 20
63.6997
 30
0.0
 11
182.745
 21
63.6997
 31
0.0
  0
LINE
  8
0
 62
     0
 10
182.745
 20
63.6997
 30
0.0
 11
182.745
 21
60.7494
 31
0.0
  0
LINE
  8
0
 62
     0
 10
182.745
 20
60.7494
 30
0.0
 11
183.544
 21
60.7494
 31
0.0
  0
LINE
  8
0
 62
     0
 10
183.544
 20
60.7494
 30
0.0
 11
183.544
 21
59.7489
 31
0.0
  0
LINE
  8
0
 62
     0
 10
183.544
 20
59.7489
 30
0.0
 11
197.394
 21
59.7489
 31
0.0
  0
LINE
  8
0
 62
     0
 10
197.394
 20
59.7489
 30
0.0
 11
197.394
 21
60.7494
 31
0.0
  0
LINE
  8
0
 62
     0
 10
197.394
 20
60.7494
 30
0.0
 11
198.195
 21
60.7494
 31
0.0
  0
LINE
  8
0
 62
     0
 10
198.195
 20
60.7494
 30
0.0
 11
198.195
 21
63.6997
 31
0.0
  0
LINE
  8
0
 62
     0
 10
198.195
 20
63.6997
 30
0.0
 11
197.394
 21
63.6997
 31
0.0
  0
LINE
  8
0
 62
     0
 10
197.394
 20
63.6997
 30
0.0
 11
197.394
 21
69.6489
 31
0.0
  0
LINE
  8
0
 62
     0
 10
197.394
 20
69.6489
 30
0.0
 11
198.195
 21
69.6489
 31
0.0
  0
LINE
  8
0
 62
     0
 10
198.195
 20
69.6489
 30
0.0
 11
198.195
 21
72.5992
 31
0.0
  0
LINE
  8
0
 62
     0
 10
198.195
 20
72.5992
 30
0.0
 11
197.394
 21
72.5992
 31
0.0
  0
LINE
  8
0
 62
     0
 10
197.394
 20
72.5992
 30
0.0
 11
197.394
 21
73.5997
 31
0.0
  0
LINE
  8
0
 62
     0
 10
197.394
 20
73.5997
 30
0.0
 11
183.544
 21
73.5997
 31
0.0
  0
LINE
  8
0
 62
     0
 10
202.594
 20
73.5997
 30
0.0
 11
202.594
 21
72.5992
 31
0.0
  0
LINE
  8
0
 62
     0
 10
202.594
 20
72.5992
 30
0.0
 11
201.795
 21
72.5992
 31
0.0
  0
LINE
  8
0
 62
     0
 10
201.795
 20
72.5992
 30
0.0
 11
201.795
 21
69.6489
 31
0.0
  0
LINE
  8
0
 62
     0
 10
201.795
 20
69.6489
 30
0.0
 11
202.594
 21
69.6489
 31
0.0
  0
LINE
  8
0
 62
     0
 10
202.594
 20
69.6489
 30
0.0
 11
202.594
 21
63.6997
 31
0.0
  0
LINE
  8
0
 62
     0
 10
202.594
 20
63.6997
 30
0.0
 11
201.795
 21
63.6997
 31
0.0
  0
LINE
  8
0
 62
     0
 10
201.795
 20
63.6997
 30
0.0
 11
201.795
 21
60.7494
 31
0.0
  0
LINE
  8
0
 62
     0
 10
201.795
 20
60.7494
 30
0.0
 11
202.594
 21
60.7494
 31
0.0
  0
LINE
  8
0
 62
     0
 10
202.594
 20
60.7494
 30
0.0
 11
202.594
 21
59.7489
 31
0.0
  0
LINE
  8
0
 62
     0
 10
202.594
 20
59.7489
 30
0.0
 11
216.444
 21
59.7489
 31
0.0
  0
LINE
  8
0
 62
     0
 10
216.444
 20
59.7489
 30
0.0
 11
216.444
 21
60.7494
 31
0.0
  0
LINE
  8
0
 62
     0
 10
216.444
 20
60.7494
 30
0.0
 11
217.245
 21
60.7494
 31
0.0
  0
LINE
  8
0
 62
     0
 10
217.245
 20
60.7494
 30
0.0
 11
217.245
 21
63.6997
 31
0.0
  0
LINE
  8
0
 62
     0
 10
217.245
 20
63.6997
 30
0.0
 11
216.444
 21
63.6997
 31
0.0
  0
LINE
  8
0
 62
     0
 10
216.444
 20
63.6997
 30
0.0
 11
216.444
 21
69.6489
 31
0.0
  0
LINE
  8
0
 62
     0
 10
216.444
 20
69.6489
 30
0.0
 11
217.245
 21
69.6489
 31
0.0
  0
LINE
  8
0
 62
     0
 10
217.245
 20
69.6489
 30
0.0
 11
217.245
 21
72.5992
 31
0.0
  0
LINE
  8
0
 62
     0
 10
217.245
 20
72.5992
 30
0.0
 11
216.444
 21
72.5992
 31
0.0
  0
LINE
  8
0
 62
     0
 10
216.444
 20
72.5992
 30
0.0
 11
216.444
 21
73.5997
 31
0.0
  0
LINE
  8
0
 62
     0
 10
216.444
 20
73.5997
 30
0.0
 11
202.594
 21
73.5997
 31
0.0
  0
LINE
  8
0
 62
     0
 10
221.644
 20
73.5997
 30
0.0
 11
221.644
 21
72.5992
 31
0.0
  0
LINE
  8
0
 62
     0
 10
221.644
 20
72.5992
 30
0.0
 11
220.845
 21
72.5992
 31
0.0
  0
LINE
  8
0
 62
     0
 10
220.845
 20
72.5992
 30
0.0
 11
220.845
 21
69.6489
 31
0.0
  0
LINE
  8
0
 62
     0
 10
220.845
 20
69.6489
 30
0.0
 11
221.644
 21
69.6489
 31
0.0
  0
LINE
  8
0
 62
     0
 10
221.644
 20
69.6489
 30
0.0
 11
221.644
 21
63.6997
 31
0.0
  0
LINE
  8
0
 62
     0
 10
221.644
 20
63.6997
 30
0.0
 11
220.845
 21
63.6997
 31
0.0
  0
LINE
  8
0
 62
     0
 10
220.845
 20
63.6997
 30
0.0
 11
220.845
 21
60.7494
 31
0.0
  0
LINE
  8
0
 62
     0
 10
220.845
 20
60.7494
 30
0.0
 11
221.644
 21
60.7494
 31
0.0
  0
LINE
  8
0
 62
     0
 10
221.644
 20
60.7494
 30
0.0
 11
221.644
 21
59.7489
 31
0.0
  0
LINE
  8
0
 62
     0
 10
221.644
 20
59.7489
 30
0.0
 11
235.494
 21
59.7489
 31
0.0
  0
LINE
  8
0
 62
     0
 10
235.494
 20
59.7489
 30
0.0
 11
235.494
 21
60.7494
 31
0.0
  0
LINE
  8
0
 62
     0
 10
235.494
 20
60.7494
 30
0.0
 11
236.294
 21
60.7494
 31
0.0
  0
LINE
  8
0
 62
     0
 10
236.294
 20
60.7494
 30
0.0
 11
236.294
 21
63.6997
 31
0.0
  0
LINE
  8
0
 62
     0
 10
236.294
 20
63.6997
 30
0.0
 11
235.494
 21
63.6997
 31
0.0
  0
LINE
  8
0
 62
     0
 10
235.494
 20
63.6997
 30
0.0
 11
235.494
 21
69.6489
 31
0.0
  0
LINE
  8
0
 62
     0
 10
235.494
 20
69.6489
 30
0.0
 11
236.294
 21
69.6489
 31
0.0
  0
LINE
  8
0
 62
     0
 10
236.294
 20
69.6489
 30
0.0
 11
236.294
 21
72.5992
 31
0.0
  0
LINE
  8
0
 62
     0
 10
236.294
 20
72.5992
 30
0.0
 11
235.494
 21
72.5992
 31
0.0
  0
LINE
  8
0
 62
     0
 10
235.494
 20
72.5992
 30
0.0
 11
235.494
 21
73.5997
 31
0.0
  0
LINE
  8
0
 62
     0
 10
235.494
 20
73.5997
 30
0.0
 11
221.644
 21
73.5997
 31
0.0
  0
LINE
  8
0
 62
     0
 10
240.695
 20
73.5997
 30
0.0
 11
240.695
 21
72.5992
 31
0.0
  0
LINE
  8
0
 62
     0
 10
240.695
 20
72.5992
 30
0.0
 11
239.895
 21
72.5992
 31
0.0
  0
LINE
  8
0
 62
     0
 10
239.895
 20
72.5992
 30
0.0
 11
239.895
 21
69.6489
 31
0.0
  0
LINE
  8
0
 62
     0
 10
239.895
 20
69.6489
 30
0.0
 11
240.695
 21
69.6489
 31
0.0
  0
LINE
  8
0
 62
     0
 10
240.695
 20
69.6489
 30
0.0
 11
240.695
 21
63.6997
 31
0.0
  0
LINE
  8
0
 62
     0
 10
240.695
 20
63.6997
 30
0.0
 11
239.895
 21
63.6997
 31
0.0
  0
LINE
  8
0
 62
     0
 10
239.895
 20
63.6997
 30
0.0
 11
239.895
 21
60.7494
 31
0.0
  0
LINE
  8
0
 62
     0
 10
239.895
 20
60.7494
 30
0.0
 11
240.695
 21
60.7494
 31
0.0
  0
LINE
  8
0
 62
     0
 10
240.695
 20
60.7494
 30
0.0
 11
240.695
 21
59.7489
 31
0.0
  0
LINE
  8
0
 62
     0
 10
240.695
 20
59.7489
 30
0.0
 11
254.544
 21
59.7489
 31
0.0
  0
LINE
  8
0
 62
     0
 10
254.544
 20
59.7489
 30
0.0
 11
254.544
 21
60.7494
 31
0.0
  0
LINE
  8
0
 62
     0
 10
254.544
 20
60.7494
 30
0.0
 11
255.344
 21
60.7494
 31
0.0
  0
LINE
  8
0
 62
     0
 10
255.344
 20
60.7494
 30
0.0
 11
255.344
 21
63.6997
 31
0.0
  0
LINE
  8
0
 62
     0
 10
255.344
 20
63.6997
 30
0.0
 11
254.544
 21
63.6997
 31
0.0
  0
LINE
  8
0
 62
     0
 10
254.544
 20
63.6997
 30
0.0
 11
254.544
 21
69.6489
 31
0.0
  0
LINE
  8
0
 62
     0
 10
254.544
 20
69.6489
 30
0.0
 11
255.344
 21
69.6489
 31
0.0
  0
LINE
  8
0
 62
     0
 10
255.344
 20
69.6489
 30
0.0
 11
255.344
 21
72.5992
 31
0.0
  0
LINE
  8
0
 62
     0
 10
255.344
 20
72.5992
 30
0.0
 11
254.544
 21
72.5992
 31
0.0
  0
LINE
  8
0
 62
     0
 10
254.544
 20
72.5992
 30
0.0
 11
254.544
 21
73.5997
 31
0.0
  0
LINE
  8
0
 62
     0
 10
254.544
 20
73.5997
 30
0.0
 11
240.695
 21
73.5997
 31
0.0
  0
LINE
  8
0
 62
     0
 10
264.506
 20
73.5997
 30
0.0
 11
264.506
 21
72.5992
 31
0.0
  0
LINE
  8
0
 62
     0
 10
264.506
 20
72.5992
 30
0.0
 11
263.707
 21
72.5992
 31
0.0
  0
LINE
  8
0
 62
     0
 10
263.707
 20
72.5992
 30
0.0
 11
263.707
 21
69.6489
 31
0.0
  0
LINE
  8
0
 62
     0
 10
263.707
 20
69.6489
 30
0.0
 11
264.506
 21
69.6489
 31
0.0
  0
LINE
  8
0
 62
     0
 10
264.506
 20
69.6489
 30
0.0
 11
264.506
 21
63.6997
 31
0.0
  0
LINE
  8
0
 62
     0
 10
264.506
 20
63.6997
 30
0.0
 11
263.707
 21
63.6997
 31
0.0
  0
LINE
  8
0
 62
     0
 10
263.707
 20
63.6997
 30
0.0
 11
263.707
 21
60.7494
 31
0.0
  0
LINE
  8
0
 62
     0
 10
263.707
 20
60.7494
 30
0.0
 11
264.506
 21
60.7494
 31
0.0
  0
LINE
  8
0
 62
     0
 10
264.506
 20
60.7494
 30
0.0
 11
264.506
 21
59.7489
 31
0.0
  0
LINE
  8
0
 62
     0
 10
264.506
 20
59.7489
 30
0.0
 11
278.357
 21
59.7489
 31
0.0
  0
LINE
  8
0
 62
     0
 10
278.357
 20
59.7489
 30
0.0
 11
278.357
 21
60.7494
 31
0.0
  0
LINE
  8
0
 62
     0
 10
278.357
 20
60.7494
 30
0.0
 11
279.156
 21
60.7494
 31
0.0
  0
LINE
  8
0
 62
     0
 10
279.156
 20
60.7494
 30
0.0
 11
279.156
 21
63.6997
 31
0.0
  0
LINE
  8
0
 62
     0
 10
279.156
 20
63.6997
 30
0.0
 11
278.357
 21
63.6997
 31
0.0
  0
LINE
  8
0
 62
     0
 10
278.357
 20
63.6997
 30
0.0
 11
278.357
 21
69.6489
 31
0.0
  0
LINE
  8
0
 62
     0
 10
278.357
 20
69.6489
 30
0.0
 11
279.156
 21
69.6489
 31
0.0
  0
LINE
  8
0
 62
     0
 10
279.156
 20
69.6489
 30
0.0
 11
279.156
 21
72.5992
 31
0.0
  0
LINE
  8
0
 62
     0
 10
279.156
 20
72.5992
 30
0.0
 11
278.357
 21
72.5992
 31
0.0
  0
LINE
  8
0
 62
     0
 10
278.357
 20
72.5992
 30
0.0
 11
278.357
 21
73.5997
 31
0.0
  0
LINE
  8
0
 62
     0
 10
278.357
 20
73.5997
 30
0.0
 11
264.506
 21
73.5997
 31
0.0
  0
LINE
  8
0
 62
     0
 10
24.7964
 20
69.3304
 30
0.0
 11
24.1198
 21
68.986
 31
0.0
  0
LINE
  8
0
 62
     0
 10
24.1198
 20
68.986
 30
0.0
 11
23.5838
 21
68.4498
 31
0.0
  0
LINE
  8
0
 62
     0
 10
23.5838
 20
68.4498
 30
0.0
 11
23.2392
 21
67.7746
 31
0.0
  0
LINE
  8
0
 62
     0
 10
23.2392
 20
67.7746
 30
0.0
 11
23.1207
 21
67.0235
 31
0.0
  0
LINE
  8
0
 62
     0
 10
23.1207
 20
67.0235
 30
0.0
 11
23.2392
 21
66.2753
 31
0.0
  0
LINE
  8
0
 62
     0
 10
23.2392
 20
66.2753
 30
0.0
 11
23.5838
 21
65.5987
 31
0.0
  0
LINE
  8
0
 62
     0
 10
23.5838
 20
65.5987
 30
0.0
 11
24.1198
 21
65.0614
 31
0.0
  0
LINE
  8
0
 62
     0
 10
24.1198
 20
65.0614
 30
0.0
 11
24.7964
 21
64.7181
 31
0.0
  0
LINE
  8
0
 62
     0
 10
24.7964
 20
64.7181
 30
0.0
 11
25.5461
 21
64.5996
 31
0.0
  0
LINE
  8
0
 62
     0
 10
25.5461
 20
64.5996
 30
0.0
 11
26.2944
 21
64.7181
 31
0.0
  0
LINE
  8
0
 62
     0
 10
26.2944
 20
64.7181
 30
0.0
 11
26.971
 21
65.0614
 31
0.0
  0
LINE
  8
0
 62
     0
 10
26.971
 20
65.0614
 30
0.0
 11
27.507
 21
65.5987
 31
0.0
  0
LINE
  8
0
 62
     0
 10
27.507
 20
65.5987
 30
0.0
 11
27.8515
 21
66.2753
 31
0.0
  0
LINE
  8
0
 62
     0
 10
27.8515
 20
66.2753
 30
0.0
 11
27.9714
 21
67.0235
 31
0.0
  0
LINE
  8
0
 62
     0
 10
27.9714
 20
67.0235
 30
0.0
 11
27.8515
 21
67.7746
 31
0.0
  0
LINE
  8
0
 62
     0
 10
27.8515
 20
67.7746
 30
0.0
 11
27.507
 21
68.4498
 31
0.0
  0
LINE
  8
0
 62
     0
 10
27.507
 20
68.4498
 30
0.0
 11
26.971
 21
68.986
 31
0.0
  0
LINE
  8
0
 62
     0
 10
26.971
 20
68.986
 30
0.0
 11
26.2944
 21
69.3304
 31
0.0
  0
LINE
  8
0
 62
     0
 10
26.2944
 20
69.3304
 30
0.0
 11
25.5461
 21
69.4503
 31
0.0
  0
LINE
  8
0
 62
     0
 10
25.5461
 20
69.4503
 30
0.0
 11
24.7964
 21
69.3304
 31
0.0
  0
LINE
  8
0
 62
     0
 10
259.644
 20
69.3304
 30
0.0
 11
258.969
 21
68.986
 31
0.0
  0
LINE
  8
0
 62
     0
 10
258.969
 20
68.986
 30
0.0
 11
258.433
 21
68.4498
 31
0.0
  0
LINE
  8
0
 62
     0
 10
258.433
 20
68.4498
 30
0.0
 11
258.087
 21
67.7746
 31
0.0
  0
LINE
  8
0
 62
     0
 10
258.087
 20
67.7746
 30
0.0
 11
257.97
 21
67.0235
 31
0.0
  0
LINE
  8
0
 62
     0
 10
257.97
 20
67.0235
 30
0.0
 11
258.087
 21
66.2753
 31
0.0
  0
LINE
  8
0
 62
     0
 10
258.087
 20
66.2753
 30
0.0
 11
258.433
 21
65.5987
 31
0.0
  0
LINE
  8
0
 62
     0
 10
258.433
 20
65.5987
 30
0.0
 11
258.969
 21
65.0614
 31
0.0
  0
LINE
  8
0
 62
     0
 10
258.969
 20
65.0614
 30
0.0
 11
259.644
 21
64.7181
 31
0.0
  0
LINE
  8
0
 62
     0
 10
259.644
 20
64.7181
 30
0.0
 11
260.394
 21
64.5996
 31
0.0
  0
LINE
  8
0
 62
     0
 10
260.394
 20
64.5996
 30
0.0
 11
261.144
 21
64.7181
 31
0.0
  0
LINE
  8
0
 62
     0
 10
261.144
 20
64.7181
 30
0.0
 11
261.82
 21
65.0614
 31
0.0
  0
LINE
  8
0
 62
     0
 10
261.82
 20
65.0614
 30
0.0
 11
262.357
 21
65.5987
 31
0.0
  0
LINE
  8
0
 62
     0
 10
262.357
 20
65.5987
 30
0.0
 11
262.702
 21
66.2753
 31
0.0
  0
LINE
  8
0
 62
     0
 10
262.702
 20
66.2753
 30
0.0
 11
262.819
 21
67.0235
 31
0.0
  0
LINE
  8
0
 62
     0
 10
262.819
 20
67.0235
 30
0.0
 11
262.702
 21
67.7746
 31
0.0
  0
LINE
  8
0
 62
     0
 10
262.702
 20
67.7746
 30
0.0
 11
262.357
 21
68.4498
 31
0.0
  0
LINE
  8
0
 62
     0
 10
262.357
 20
68.4498
 30
0.0
 11
261.82
 21
68.986
 31
0.0
  0
LINE
  8
0
 62
     0
 10
261.82
 20
68.986
 30
0.0
 11
261.144
 21
69.3304
 31
0.0
  0
LINE
  8
0
 62
     0
 10
261.144
 20
69.3304
 30
0.0
 11
260.394
 21
69.4503
 31
0.0
  0
LINE
  8
0
 62
     0
 10
260.394
 20
69.4503
 30
0.0
 11
259.644
 21
69.3304
 31
0.0
  0
LINE
  8
0
 62
     0
 10
259.744
 20
92.6497
 30
0.0
 11
259.744
 21
91.6492
 31
0.0
  0
LINE
  8
0
 62
     0
 10
259.744
 20
91.6492
 30
0.0
 11
258.945
 21
91.6492
 31
0.0
  0
LINE
  8
0
 62
     0
 10
258.945
 20
91.6492
 30
0.0
 11
258.945
 21
88.7003
 31
0.0
  0
LINE
  8
0
 62
     0
 10
258.945
 20
88.7003
 30
0.0
 11
259.744
 21
88.7003
 31
0.0
  0
LINE
  8
0
 62
     0
 10
259.744
 20
88.7003
 30
0.0
 11
259.744
 21
87.9507
 31
0.0
  0
LINE
  8
0
 62
     0
 10
259.744
 20
87.9507
 30
0.0
 11
258.069
 21
87.9507
 31
0.0
  0
LINE
  8
0
 62
     0
 10
258.069
 20
87.9507
 30
0.0
 11
258.069
 21
91.1807
 31
0.0
  0
LINE
  8
0
 62
     0
 10
258.069
 20
91.1807
 30
0.0
 11
256.344
 21
91.1807
 31
0.0
  0
LINE
  8
0
 62
     0
 10
256.344
 20
91.1807
 30
0.0
 11
256.344
 21
92.1011
 31
0.0
  0
LINE
  8
0
 62
     0
 10
256.344
 20
92.1011
 30
0.0
 11
253.195
 21
92.1011
 31
0.0
  0
LINE
  8
0
 62
     0
 10
253.195
 20
92.1011
 30
0.0
 11
253.195
 21
91.1807
 31
0.0
  0
LINE
  8
0
 62
     0
 10
253.195
 20
91.1807
 30
0.0
 11
251.468
 21
91.1807
 31
0.0
  0
LINE
  8
0
 62
     0
 10
251.468
 20
91.1807
 30
0.0
 11
251.468
 21
87.9507
 31
0.0
  0
LINE
  8
0
 62
     0
 10
251.468
 20
87.9507
 30
0.0
 11
250.643
 21
87.9507
 31
0.0
  0
LINE
  8
0
 62
     0
 10
250.643
 20
87.9507
 30
0.0
 11
250.643
 21
85.3006
 31
0.0
  0
LINE
  8
0
 62
     0
 10
250.643
 20
85.3006
 30
0.0
 11
251.468
 21
85.3006
 31
0.0
  0
LINE
  8
0
 62
     0
 10
251.468
 20
85.3006
 30
0.0
 11
251.468
 21
79.0293
 31
0.0
  0
LINE
  8
0
 62
     0
 10
251.468
 20
79.0293
 30
0.0
 11
253.195
 21
79.0293
 31
0.0
  0
LINE
  8
0
 62
     0
 10
253.195
 20
79.0293
 30
0.0
 11
253.195
 21
78.0493
 31
0.0
  0
LINE
  8
0
 62
     0
 10
253.195
 20
78.0493
 30
0.0
 11
256.344
 21
78.0493
 31
0.0
  0
LINE
  8
0
 62
     0
 10
256.344
 20
78.0493
 30
0.0
 11
256.344
 21
79.0293
 31
0.0
  0
LINE
  8
0
 62
     0
 10
256.344
 20
79.0293
 30
0.0
 11
258.069
 21
79.0293
 31
0.0
  0
LINE
  8
0
 62
     0
 10
258.069
 20
79.0293
 30
0.0
 11
258.069
 21
83.4993
 31
0.0
  0
LINE
  8
0
 62
     0
 10
258.069
 20
83.4993
 30
0.0
 11
259.744
 21
83.4993
 31
0.0
  0
LINE
  8
0
 62
     0
 10
259.744
 20
83.4993
 30
0.0
 11
259.744
 21
82.7497
 31
0.0
  0
LINE
  8
0
 62
     0
 10
259.744
 20
82.7497
 30
0.0
 11
258.945
 21
82.7497
 31
0.0
  0
LINE
  8
0
 62
     0
 10
258.945
 20
82.7497
 30
0.0
 11
258.945
 21
79.7994
 31
0.0
  0
LINE
  8
0
 62
     0
 10
258.945
 20
79.7994
 30
0.0
 11
259.744
 21
79.7994
 31
0.0
  0
LINE
  8
0
 62
     0
 10
259.744
 20
79.7994
 30
0.0
 11
259.744
 21
78.8003
 31
0.0
  0
LINE
  8
0
 62
     0
 10
259.744
 20
78.8003
 30
0.0
 11
273.594
 21
78.8003
 31
0.0
  0
LINE
  8
0
 62
     0
 10
273.594
 20
78.8003
 30
0.0
 11
273.594
 21
79.7994
 31
0.0
  0
LINE
  8
0
 62
     0
 10
273.594
 20
79.7994
 30
0.0
 11
274.394
 21
79.7994
 31
0.0
  0
LINE
  8
0
 62
     0
 10
274.394
 20
79.7994
 30
0.0
 11
274.394
 21
82.7497
 31
0.0
  0
LINE
  8
0
 62
     0
 10
274.394
 20
82.7497
 30
0.0
 11
273.594
 21
82.7497
 31
0.0
  0
LINE
  8
0
 62
     0
 10
273.594
 20
82.7497
 30
0.0
 11
273.594
 21
83.4993
 31
0.0
  0
LINE
  8
0
 62
     0
 10
273.594
 20
83.4993
 30
0.0
 11
275.269
 21
83.4993
 31
0.0
  0
LINE
  8
0
 62
     0
 10
275.269
 20
83.4993
 30
0.0
 11
275.269
 21
79.0293
 31
0.0
  0
LINE
  8
0
 62
     0
 10
275.269
 20
79.0293
 30
0.0
 11
276.994
 21
79.0293
 31
0.0
  0
LINE
  8
0
 62
     0
 10
276.994
 20
79.0293
 30
0.0
 11
276.994
 21
78.0493
 31
0.0
  0
LINE
  8
0
 62
     0
 10
276.994
 20
78.0493
 30
0.0
 11
280.144
 21
78.0493
 31
0.0
  0
LINE
  8
0
 62
     0
 10
280.144
 20
78.0493
 30
0.0
 11
280.144
 21
79.0293
 31
0.0
  0
LINE
  8
0
 62
     0
 10
280.144
 20
79.0293
 30
0.0
 11
281.868
 21
79.0293
 31
0.0
  0
LINE
  8
0
 62
     0
 10
281.868
 20
79.0293
 30
0.0
 11
281.868
 21
85.3006
 31
0.0
  0
LINE
  8
0
 62
     0
 10
281.868
 20
85.3006
 30
0.0
 11
282.695
 21
85.3006
 31
0.0
  0
LINE
  8
0
 62
     0
 10
282.695
 20
85.3006
 30
0.0
 11
282.695
 21
87.9507
 31
0.0
  0
LINE
  8
0
 62
     0
 10
282.695
 20
87.9507
 30
0.0
 11
281.868
 21
87.9507
 31
0.0
  0
LINE
  8
0
 62
     0
 10
281.868
 20
87.9507
 30
0.0
 11
281.868
 21
91.1807
 31
0.0
  0
LINE
  8
0
 62
     0
 10
281.868
 20
91.1807
 30
0.0
 11
280.144
 21
91.1807
 31
0.0
  0
LINE
  8
0
 62
     0
 10
280.144
 20
91.1807
 30
0.0
 11
280.144
 21
92.1011
 31
0.0
  0
LINE
  8
0
 62
     0
 10
280.144
 20
92.1011
 30
0.0
 11
276.994
 21
92.1011
 31
0.0
  0
LINE
  8
0
 62
     0
 10
276.994
 20
92.1011
 30
0.0
 11
276.994
 21
91.1807
 31
0.0
  0
LINE
  8
0
 62
     0
 10
276.994
 20
91.1807
 30
0.0
 11
275.269
 21
91.1807
 31
0.0
  0
LINE
  8
0
 62
     0
 10
275.269
 20
91.1807
 30
0.0
 11
275.269
 21
87.9507
 31
0.0
  0
LINE
  8
0
 62
     0
 10
275.269
 20
87.9507
 30
0.0
 11
273.594
 21
87.9507
 31
0.0
  0
LINE
  8
0
 62
     0
 10
273.594
 20
87.9507
 30
0.0
 11
273.594
 21
88.7003
 31
0.0
  0
LINE
  8
0
 62
     0
 10
273.594
 20
88.7003
 30
0.0
 11
274.394
 21
88.7003
 31
0.0
  0
LINE
  8
0
 62
     0
 10
274.394
 20
88.7003
 30
0.0
 11
274.394
 21
91.6492
 31
0.0
  0
LINE
  8
0
 62
     0
 10
274.394
 20
91.6492
 30
0.0
 11
273.594
 21
91.6492
 31
0.0
  0
LINE
  8
0
 62
     0
 10
273.594
 20
91.6492
 30
0.0
 11
273.594
 21
92.6497
 31
0.0
  0
LINE
  8
0
 62
     0
 10
273.594
 20
92.6497
 30
0.0
 11
259.744
 21
92.6497
 31
0.0
  0
LINE
  8
0
 62
     0
 10
2.57004
 20
92.6497
 30
0.0
 11
2.57004
 21
91.6492
 31
0.0
  0
LINE
  8
0
 62
     0
 10
2.57004
 20
91.6492
 30
0.0
 11
1.7694
 21
91.6492
 31
0.0
  0
LINE
  8
0
 62
     0
 10
1.7694
 20
91.6492
 30
0.0
 11
1.7694
 21
88.7003
 31
0.0
  0
LINE
  8
0
 62
     0
 10
1.7694
 20
88.7003
 30
0.0
 11
2.57004
 21
88.7003
 31
0.0
  0
LINE
  8
0
 62
     0
 10
2.57004
 20
88.7003
 30
0.0
 11
2.57004
 21
82.7497
 31
0.0
  0
LINE
  8
0
 62
     0
 10
2.57004
 20
82.7497
 30
0.0
 11
1.7694
 21
82.7497
 31
0.0
  0
LINE
  8
0
 62
     0
 10
1.7694
 20
82.7497
 30
0.0
 11
1.7694
 21
79.7994
 31
0.0
  0
LINE
  8
0
 62
     0
 10
1.7694
 20
79.7994
 30
0.0
 11
2.57004
 21
79.7994
 31
0.0
  0
LINE
  8
0
 62
     0
 10
2.57004
 20
79.7994
 30
0.0
 11
2.57004
 21
78.8003
 31
0.0
  0
LINE
  8
0
 62
     0
 10
2.57004
 20
78.8003
 30
0.0
 11
16.4193
 21
78.8003
 31
0.0
  0
LINE
  8
0
 62
     0
 10
16.4193
 20
78.8003
 30
0.0
 11
16.4193
 21
79.7994
 31
0.0
  0
LINE
  8
0
 62
     0
 10
16.4193
 20
79.7994
 30
0.0
 11
17.22
 21
79.7994
 31
0.0
  0
LINE
  8
0
 62
     0
 10
17.22
 20
79.7994
 30
0.0
 11
17.22
 21
82.7497
 31
0.0
  0
LINE
  8
0
 62
     0
 10
17.22
 20
82.7497
 30
0.0
 11
16.4193
 21
82.7497
 31
0.0
  0
LINE
  8
0
 62
     0
 10
16.4193
 20
82.7497
 30
0.0
 11
16.4193
 21
88.7003
 31
0.0
  0
LINE
  8
0
 62
     0
 10
16.4193
 20
88.7003
 30
0.0
 11
17.22
 21
88.7003
 31
0.0
  0
LINE
  8
0
 62
     0
 10
17.22
 20
88.7003
 30
0.0
 11
17.22
 21
91.6492
 31
0.0
  0
LINE
  8
0
 62
     0
 10
17.22
 20
91.6492
 30
0.0
 11
16.4193
 21
91.6492
 31
0.0
  0
LINE
  8
0
 62
     0
 10
16.4193
 20
91.6492
 30
0.0
 11
16.4193
 21
92.6497
 31
0.0
  0
LINE
  8
0
 62
     0
 10
16.4193
 20
92.6497
 30
0.0
 11
2.57004
 21
92.6497
 31
0.0
  0
LINE
  8
0
 62
     0
 10
21.6201
 20
92.6497
 30
0.0
 11
21.6201
 21
91.6492
 31
0.0
  0
LINE
  8
0
 62
     0
 10
21.6201
 20
91.6492
 30
0.0
 11
20.8194
 21
91.6492
 31
0.0
  0
LINE
  8
0
 62
     0
 10
20.8194
 20
91.6492
 30
0.0
 11
20.8194
 21
88.7003
 31
0.0
  0
LINE
  8
0
 62
     0
 10
20.8194
 20
88.7003
 30
0.0
 11
21.6201
 21
88.7003
 31
0.0
  0
LINE
  8
0
 62
     0
 10
21.6201
 20
88.7003
 30
0.0
 11
21.6201
 21
82.7497
 31
0.0
  0
LINE
  8
0
 62
     0
 10
21.6201
 20
82.7497
 30
0.0
 11
20.8194
 21
82.7497
 31
0.0
  0
LINE
  8
0
 62
     0
 10
20.8194
 20
82.7497
 30
0.0
 11
20.8194
 21
79.7994
 31
0.0
  0
LINE
  8
0
 62
     0
 10
20.8194
 20
79.7994
 30
0.0
 11
21.6201
 21
79.7994
 31
0.0
  0
LINE
  8
0
 62
     0
 10
21.6201
 20
79.7994
 30
0.0
 11
21.6201
 21
78.8003
 31
0.0
  0
LINE
  8
0
 62
     0
 10
21.6201
 20
78.8003
 30
0.0
 11
35.4693
 21
78.8003
 31
0.0
  0
LINE
  8
0
 62
     0
 10
35.4693
 20
78.8003
 30
0.0
 11
35.4693
 21
79.7994
 31
0.0
  0
LINE
  8
0
 62
     0
 10
35.4693
 20
79.7994
 30
0.0
 11
36.2687
 21
79.7994
 31
0.0
  0
LINE
  8
0
 62
     0
 10
36.2687
 20
79.7994
 30
0.0
 11
36.2687
 21
82.7497
 31
0.0
  0
LINE
  8
0
 62
     0
 10
36.2687
 20
82.7497
 30
0.0
 11
35.4693
 21
82.7497
 31
0.0
  0
LINE
  8
0
 62
     0
 10
35.4693
 20
82.7497
 30
0.0
 11
35.4693
 21
88.7003
 31
0.0
  0
LINE
  8
0
 62
     0
 10
35.4693
 20
88.7003
 30
0.0
 11
36.2687
 21
88.7003
 31
0.0
  0
LINE
  8
0
 62
     0
 10
36.2687
 20
88.7003
 30
0.0
 11
36.2687
 21
91.6492
 31
0.0
  0
LINE
  8
0
 62
     0
 10
36.2687
 20
91.6492
 30
0.0
 11
35.4693
 21
91.6492
 31
0.0
  0
LINE
  8
0
 62
     0
 10
35.4693
 20
91.6492
 30
0.0
 11
35.4693
 21
92.6497
 31
0.0
  0
LINE
  8
0
 62
     0
 10
35.4693
 20
92.6497
 30
0.0
 11
21.6201
 21
92.6497
 31
0.0
  0
LINE
  8
0
 62
     0
 10
40.67
 20
92.6497
 30
0.0
 11
40.67
 21
91.6492
 31
0.0
  0
LINE
  8
0
 62
     0
 10
40.67
 20
91.6492
 30
0.0
 11
39.8695
 21
91.6492
 31
0.0
  0
LINE
  8
0
 62
     0
 10
39.8695
 20
91.6492
 30
0.0
 11
39.8695
 21
88.7003
 31
0.0
  0
LINE
  8
0
 62
     0
 10
39.8695
 20
88.7003
 30
0.0
 11
40.67
 21
88.7003
 31
0.0
  0
LINE
  8
0
 62
     0
 10
40.67
 20
88.7003
 30
0.0
 11
40.67
 21
82.7497
 31
0.0
  0
LINE
  8
0
 62
     0
 10
40.67
 20
82.7497
 30
0.0
 11
39.8695
 21
82.7497
 31
0.0
  0
LINE
  8
0
 62
     0
 10
39.8695
 20
82.7497
 30
0.0
 11
39.8695
 21
79.7994
 31
0.0
  0
LINE
  8
0
 62
     0
 10
39.8695
 20
79.7994
 30
0.0
 11
40.67
 21
79.7994
 31
0.0
  0
LINE
  8
0
 62
     0
 10
40.67
 20
79.7994
 30
0.0
 11
40.67
 21
78.8003
 31
0.0
  0
LINE
  8
0
 62
     0
 10
40.67
 20
78.8003
 30
0.0
 11
54.5193
 21
78.8003
 31
0.0
  0
LINE
  8
0
 62
     0
 10
54.5193
 20
78.8003
 30
0.0
 11
54.5193
 21
79.7994
 31
0.0
  0
LINE
  8
0
 62
     0
 10
54.5193
 20
79.7994
 30
0.0
 11
55.3201
 21
79.7994
 31
0.0
  0
LINE
  8
0
 62
     0
 10
55.3201
 20
79.7994
 30
0.0
 11
55.3201
 21
82.7497
 31
0.0
  0
LINE
  8
0
 62
     0
 10
55.3201
 20
82.7497
 30
0.0
 11
54.5193
 21
82.7497
 31
0.0
  0
LINE
  8
0
 62
     0
 10
54.5193
 20
82.7497
 30
0.0
 11
54.5193
 21
88.7003
 31
0.0
  0
LINE
  8
0
 62
     0
 10
54.5193
 20
88.7003
 30
0.0
 11
55.3201
 21
88.7003
 31
0.0
  0
LINE
  8
0
 62
     0
 10
55.3201
 20
88.7003
 30
0.0
 11
55.3201
 21
91.6492
 31
0.0
  0
LINE
  8
0
 62
     0
 10
55.3201
 20
91.6492
 30
0.0
 11
54.5193
 21
91.6492
 31
0.0
  0
LINE
  8
0
 62
     0
 10
54.5193
 20
91.6492
 30
0.0
 11
54.5193
 21
92.6497
 31
0.0
  0
LINE
  8
0
 62
     0
 10
54.5193
 20
92.6497
 30
0.0
 11
40.67
 21
92.6497
 31
0.0
  0
LINE
  8
0
 62
     0
 10
59.72
 20
92.6497
 30
0.0
 11
59.72
 21
91.6492
 31
0.0
  0
LINE
  8
0
 62
     0
 10
59.72
 20
91.6492
 30
0.0
 11
58.9195
 21
91.6492
 31
0.0
  0
LINE
  8
0
 62
     0
 10
58.9195
 20
91.6492
 30
0.0
 11
58.9195
 21
88.7003
 31
0.0
  0
LINE
  8
0
 62
     0
 10
58.9195
 20
88.7003
 30
0.0
 11
59.72
 21
88.7003
 31
0.0
  0
LINE
  8
0
 62
     0
 10
59.72
 20
88.7003
 30
0.0
 11
59.72
 21
82.7497
 31
0.0
  0
LINE
  8
0
 62
     0
 10
59.72
 20
82.7497
 30
0.0
 11
58.9195
 21
82.7497
 31
0.0
  0
LINE
  8
0
 62
     0
 10
58.9195
 20
82.7497
 30
0.0
 11
58.9195
 21
79.7994
 31
0.0
  0
LINE
  8
0
 62
     0
 10
58.9195
 20
79.7994
 30
0.0
 11
59.72
 21
79.7994
 31
0.0
  0
LINE
  8
0
 62
     0
 10
59.72
 20
79.7994
 30
0.0
 11
59.72
 21
78.8003
 31
0.0
  0
LINE
  8
0
 62
     0
 10
59.72
 20
78.8003
 30
0.0
 11
73.5693
 21
78.8003
 31
0.0
  0
LINE
  8
0
 62
     0
 10
73.5693
 20
78.8003
 30
0.0
 11
73.5693
 21
79.7994
 31
0.0
  0
LINE
  8
0
 62
     0
 10
73.5693
 20
79.7994
 30
0.0
 11
74.3701
 21
79.7994
 31
0.0
  0
LINE
  8
0
 62
     0
 10
74.3701
 20
79.7994
 30
0.0
 11
74.3701
 21
82.7497
 31
0.0
  0
LINE
  8
0
 62
     0
 10
74.3701
 20
82.7497
 30
0.0
 11
73.5693
 21
82.7497
 31
0.0
  0
LINE
  8
0
 62
     0
 10
73.5693
 20
82.7497
 30
0.0
 11
73.5693
 21
88.7003
 31
0.0
  0
LINE
  8
0
 62
     0
 10
73.5693
 20
88.7003
 30
0.0
 11
74.3701
 21
88.7003
 31
0.0
  0
LINE
  8
0
 62
     0
 10
74.3701
 20
88.7003
 30
0.0
 11
74.3701
 21
91.6492
 31
0.0
  0
LINE
  8
0
 62
     0
 10
74.3701
 20
91.6492
 30
0.0
 11
73.5693
 21
91.6492
 31
0.0
  0
LINE
  8
0
 62
     0
 10
73.5693
 20
91.6492
 30
0.0
 11
73.5693
 21
92.6497
 31
0.0
  0
LINE
  8
0
 62
     0
 10
73.5693
 20
92.6497
 30
0.0
 11
59.72
 21
92.6497
 31
0.0
  0
LINE
  8
0
 62
     0
 10
78.7686
 20
92.6497
 30
0.0
 11
78.7686
 21
91.6492
 31
0.0
  0
LINE
  8
0
 62
     0
 10
78.7686
 20
91.6492
 30
0.0
 11
77.9695
 21
91.6492
 31
0.0
  0
LINE
  8
0
 62
     0
 10
77.9695
 20
91.6492
 30
0.0
 11
77.9695
 21
88.7003
 31
0.0
  0
LINE
  8
0
 62
     0
 10
77.9695
 20
88.7003
 30
0.0
 11
78.7686
 21
88.7003
 31
0.0
  0
LINE
  8
0
 62
     0
 10
78.7686
 20
88.7003
 30
0.0
 11
78.7686
 21
82.7497
 31
0.0
  0
LINE
  8
0
 62
     0
 10
78.7686
 20
82.7497
 30
0.0
 11
77.9695
 21
82.7497
 31
0.0
  0
LINE
  8
0
 62
     0
 10
77.9695
 20
82.7497
 30
0.0
 11
77.9695
 21
79.7994
 31
0.0
  0
LINE
  8
0
 62
     0
 10
77.9695
 20
79.7994
 30
0.0
 11
78.7686
 21
79.7994
 31
0.0
  0
LINE
  8
0
 62
     0
 10
78.7686
 20
79.7994
 30
0.0
 11
78.7686
 21
78.8003
 31
0.0
  0
LINE
  8
0
 62
     0
 10
78.7686
 20
78.8003
 30
0.0
 11
92.6193
 21
78.8003
 31
0.0
  0
LINE
  8
0
 62
     0
 10
92.6193
 20
78.8003
 30
0.0
 11
92.6193
 21
79.7994
 31
0.0
  0
LINE
  8
0
 62
     0
 10
92.6193
 20
79.7994
 30
0.0
 11
93.4201
 21
79.7994
 31
0.0
  0
LINE
  8
0
 62
     0
 10
93.4201
 20
79.7994
 30
0.0
 11
93.4201
 21
82.7497
 31
0.0
  0
LINE
  8
0
 62
     0
 10
93.4201
 20
82.7497
 30
0.0
 11
92.6193
 21
82.7497
 31
0.0
  0
LINE
  8
0
 62
     0
 10
92.6193
 20
82.7497
 30
0.0
 11
92.6193
 21
88.7003
 31
0.0
  0
LINE
  8
0
 62
     0
 10
92.6193
 20
88.7003
 30
0.0
 11
93.4201
 21
88.7003
 31
0.0
  0
LINE
  8
0
 62
     0
 10
93.4201
 20
88.7003
 30
0.0
 11
93.4201
 21
91.6492
 31
0.0
  0
LINE
  8
0
 62
     0
 10
93.4201
 20
91.6492
 30
0.0
 11
92.6193
 21
91.6492
 31
0.0
  0
LINE
  8
0
 62
     0
 10
92.6193
 20
91.6492
 30
0.0
 11
92.6193
 21
92.6497
 31
0.0
  0
LINE
  8
0
 62
     0
 10
92.6193
 20
92.6497
 30
0.0
 11
78.7686
 21
92.6497
 31
0.0
  0
LINE
  8
0
 62
     0
 10
97.8186
 20
92.6497
 30
0.0
 11
97.8186
 21
91.6492
 31
0.0
  0
LINE
  8
0
 62
     0
 10
97.8186
 20
91.6492
 30
0.0
 11
97.0195
 21
91.6492
 31
0.0
  0
LINE
  8
0
 62
     0
 10
97.0195
 20
91.6492
 30
0.0
 11
97.0195
 21
88.7003
 31
0.0
  0
LINE
  8
0
 62
     0
 10
97.0195
 20
88.7003
 30
0.0
 11
97.8186
 21
88.7003
 31
0.0
  0
LINE
  8
0
 62
     0
 10
97.8186
 20
88.7003
 30
0.0
 11
97.8186
 21
82.7497
 31
0.0
  0
LINE
  8
0
 62
     0
 10
97.8186
 20
82.7497
 30
0.0
 11
97.0195
 21
82.7497
 31
0.0
  0
LINE
  8
0
 62
     0
 10
97.0195
 20
82.7497
 30
0.0
 11
97.0195
 21
79.7994
 31
0.0
  0
LINE
  8
0
 62
     0
 10
97.0195
 20
79.7994
 30
0.0
 11
97.8186
 21
79.7994
 31
0.0
  0
LINE
  8
0
 62
     0
 10
97.8186
 20
79.7994
 30
0.0
 11
97.8186
 21
78.8003
 31
0.0
  0
LINE
  8
0
 62
     0
 10
97.8186
 20
78.8003
 30
0.0
 11
111.669
 21
78.8003
 31
0.0
  0
LINE
  8
0
 62
     0
 10
111.669
 20
78.8003
 30
0.0
 11
111.669
 21
79.7994
 31
0.0
  0
LINE
  8
0
 62
     0
 10
111.669
 20
79.7994
 30
0.0
 11
112.47
 21
79.7994
 31
0.0
  0
LINE
  8
0
 62
     0
 10
112.47
 20
79.7994
 30
0.0
 11
112.47
 21
82.7497
 31
0.0
  0
LINE
  8
0
 62
     0
 10
112.47
 20
82.7497
 30
0.0
 11
111.669
 21
82.7497
 31
0.0
  0
LINE
  8
0
 62
     0
 10
111.669
 20
82.7497
 30
0.0
 11
111.669
 21
88.7003
 31
0.0
  0
LINE
  8
0
 62
     0
 10
111.669
 20
88.7003
 30
0.0
 11
112.47
 21
88.7003
 31
0.0
  0
LINE
  8
0
 62
     0
 10
112.47
 20
88.7003
 30
0.0
 11
112.47
 21
91.6492
 31
0.0
  0
LINE
  8
0
 62
     0
 10
112.47
 20
91.6492
 30
0.0
 11
111.669
 21
91.6492
 31
0.0
  0
LINE
  8
0
 62
     0
 10
111.669
 20
91.6492
 30
0.0
 11
111.669
 21
92.6497
 31
0.0
  0
LINE
  8
0
 62
     0
 10
111.669
 20
92.6497
 30
0.0
 11
97.8186
 21
92.6497
 31
0.0
  0
LINE
  8
0
 62
     0
 10
116.87
 20
92.6497
 30
0.0
 11
116.87
 21
91.6492
 31
0.0
  0
LINE
  8
0
 62
     0
 10
116.87
 20
91.6492
 30
0.0
 11
116.07
 21
91.6492
 31
0.0
  0
LINE
  8
0
 62
     0
 10
116.07
 20
91.6492
 30
0.0
 11
116.07
 21
88.7003
 31
0.0
  0
LINE
  8
0
 62
     0
 10
116.07
 20
88.7003
 30
0.0
 11
116.87
 21
88.7003
 31
0.0
  0
LINE
  8
0
 62
     0
 10
116.87
 20
88.7003
 30
0.0
 11
116.87
 21
82.7497
 31
0.0
  0
LINE
  8
0
 62
     0
 10
116.87
 20
82.7497
 30
0.0
 11
116.07
 21
82.7497
 31
0.0
  0
LINE
  8
0
 62
     0
 10
116.07
 20
82.7497
 30
0.0
 11
116.07
 21
79.7994
 31
0.0
  0
LINE
  8
0
 62
     0
 10
116.07
 20
79.7994
 30
0.0
 11
116.87
 21
79.7994
 31
0.0
  0
LINE
  8
0
 62
     0
 10
116.87
 20
79.7994
 30
0.0
 11
116.87
 21
78.8003
 31
0.0
  0
LINE
  8
0
 62
     0
 10
116.87
 20
78.8003
 30
0.0
 11
130.719
 21
78.8003
 31
0.0
  0
LINE
  8
0
 62
     0
 10
130.719
 20
78.8003
 30
0.0
 11
130.719
 21
79.7994
 31
0.0
  0
LINE
  8
0
 62
     0
 10
130.719
 20
79.7994
 30
0.0
 11
131.519
 21
79.7994
 31
0.0
  0
LINE
  8
0
 62
     0
 10
131.519
 20
79.7994
 30
0.0
 11
131.519
 21
82.7497
 31
0.0
  0
LINE
  8
0
 62
     0
 10
131.519
 20
82.7497
 30
0.0
 11
130.719
 21
82.7497
 31
0.0
  0
LINE
  8
0
 62
     0
 10
130.719
 20
82.7497
 30
0.0
 11
130.719
 21
88.7003
 31
0.0
  0
LINE
  8
0
 62
     0
 10
130.719
 20
88.7003
 30
0.0
 11
131.519
 21
88.7003
 31
0.0
  0
LINE
  8
0
 62
     0
 10
131.519
 20
88.7003
 30
0.0
 11
131.519
 21
91.6492
 31
0.0
  0
LINE
  8
0
 62
     0
 10
131.519
 20
91.6492
 30
0.0
 11
130.719
 21
91.6492
 31
0.0
  0
LINE
  8
0
 62
     0
 10
130.719
 20
91.6492
 30
0.0
 11
130.719
 21
92.6497
 31
0.0
  0
LINE
  8
0
 62
     0
 10
130.719
 20
92.6497
 30
0.0
 11
116.87
 21
92.6497
 31
0.0
  0
LINE
  8
0
 62
     0
 10
135.919
 20
92.6497
 30
0.0
 11
135.919
 21
91.6492
 31
0.0
  0
LINE
  8
0
 62
     0
 10
135.919
 20
91.6492
 30
0.0
 11
135.12
 21
91.6492
 31
0.0
  0
LINE
  8
0
 62
     0
 10
135.12
 20
91.6492
 30
0.0
 11
135.12
 21
88.7003
 31
0.0
  0
LINE
  8
0
 62
     0
 10
135.12
 20
88.7003
 30
0.0
 11
135.919
 21
88.7003
 31
0.0
  0
LINE
  8
0
 62
     0
 10
135.919
 20
88.7003
 30
0.0
 11
135.919
 21
82.7497
 31
0.0
  0
LINE
  8
0
 62
     0
 10
135.919
 20
82.7497
 30
0.0
 11
135.12
 21
82.7497
 31
0.0
  0
LINE
  8
0
 62
     0
 10
135.12
 20
82.7497
 30
0.0
 11
135.12
 21
79.7994
 31
0.0
  0
LINE
  8
0
 62
     0
 10
135.12
 20
79.7994
 30
0.0
 11
135.919
 21
79.7994
 31
0.0
  0
LINE
  8
0
 62
     0
 10
135.919
 20
79.7994
 30
0.0
 11
135.919
 21
78.8003
 31
0.0
  0
LINE
  8
0
 62
     0
 10
135.919
 20
78.8003
 30
0.0
 11
149.769
 21
78.8003
 31
0.0
  0
LINE
  8
0
 62
     0
 10
149.769
 20
78.8003
 30
0.0
 11
149.769
 21
79.7994
 31
0.0
  0
LINE
  8
0
 62
     0
 10
149.769
 20
79.7994
 30
0.0
 11
150.57
 21
79.7994
 31
0.0
  0
LINE
  8
0
 62
     0
 10
150.57
 20
79.7994
 30
0.0
 11
150.57
 21
82.7497
 31
0.0
  0
LINE
  8
0
 62
     0
 10
150.57
 20
82.7497
 30
0.0
 11
149.769
 21
82.7497
 31
0.0
  0
LINE
  8
0
 62
     0
 10
149.769
 20
82.7497
 30
0.0
 11
149.769
 21
88.7003
 31
0.0
  0
LINE
  8
0
 62
     0
 10
149.769
 20
88.7003
 30
0.0
 11
150.57
 21
88.7003
 31
0.0
  0
LINE
  8
0
 62
     0
 10
150.57
 20
88.7003
 30
0.0
 11
150.57
 21
91.6492
 31
0.0
  0
LINE
  8
0
 62
     0
 10
150.57
 20
91.6492
 30
0.0
 11
149.769
 21
91.6492
 31
0.0
  0
LINE
  8
0
 62
     0
 10
149.769
 20
91.6492
 30
0.0
 11
149.769
 21
92.6497
 31
0.0
  0
LINE
  8
0
 62
     0
 10
149.769
 20
92.6497
 30
0.0
 11
135.919
 21
92.6497
 31
0.0
  0
LINE
  8
0
 62
     0
 10
154.969
 20
92.6497
 30
0.0
 11
154.969
 21
91.6492
 31
0.0
  0
LINE
  8
0
 62
     0
 10
154.969
 20
91.6492
 30
0.0
 11
154.17
 21
91.6492
 31
0.0
  0
LINE
  8
0
 62
     0
 10
154.17
 20
91.6492
 30
0.0
 11
154.17
 21
88.7003
 31
0.0
  0
LINE
  8
0
 62
     0
 10
154.17
 20
88.7003
 30
0.0
 11
154.969
 21
88.7003
 31
0.0
  0
LINE
  8
0
 62
     0
 10
154.969
 20
88.7003
 30
0.0
 11
154.969
 21
82.7497
 31
0.0
  0
LINE
  8
0
 62
     0
 10
154.969
 20
82.7497
 30
0.0
 11
154.17
 21
82.7497
 31
0.0
  0
LINE
  8
0
 62
     0
 10
154.17
 20
82.7497
 30
0.0
 11
154.17
 21
79.7994
 31
0.0
  0
LINE
  8
0
 62
     0
 10
154.17
 20
79.7994
 30
0.0
 11
154.969
 21
79.7994
 31
0.0
  0
LINE
  8
0
 62
     0
 10
154.969
 20
79.7994
 30
0.0
 11
154.969
 21
78.8003
 31
0.0
  0
LINE
  8
0
 62
     0
 10
154.969
 20
78.8003
 30
0.0
 11
168.819
 21
78.8003
 31
0.0
  0
LINE
  8
0
 62
     0
 10
168.819
 20
78.8003
 30
0.0
 11
168.819
 21
79.7994
 31
0.0
  0
LINE
  8
0
 62
     0
 10
168.819
 20
79.7994
 30
0.0
 11
169.62
 21
79.7994
 31
0.0
  0
LINE
  8
0
 62
     0
 10
169.62
 20
79.7994
 30
0.0
 11
169.62
 21
82.7497
 31
0.0
  0
LINE
  8
0
 62
     0
 10
169.62
 20
82.7497
 30
0.0
 11
168.819
 21
82.7497
 31
0.0
  0
LINE
  8
0
 62
     0
 10
168.819
 20
82.7497
 30
0.0
 11
168.819
 21
88.7003
 31
0.0
  0
LINE
  8
0
 62
     0
 10
168.819
 20
88.7003
 30
0.0
 11
169.62
 21
88.7003
 31
0.0
  0
LINE
  8
0
 62
     0
 10
169.62
 20
88.7003
 30
0.0
 11
169.62
 21
91.6492
 31
0.0
  0
LINE
  8
0
 62
     0
 10
169.62
 20
91.6492
 30
0.0
 11
168.819
 21
91.6492
 31
0.0
  0
LINE
  8
0
 62
     0
 10
168.819
 20
91.6492
 30
0.0
 11
168.819
 21
92.6497
 31
0.0
  0
LINE
  8
0
 62
     0
 10
168.819
 20
92.6497
 30
0.0
 11
154.969
 21
92.6497
 31
0.0
  0
LINE
  8
0
 62
     0
 10
174.019
 20
92.6497
 30
0.0
 11
174.019
 21
91.6492
 31
0.0
  0
LINE
  8
0
 62
     0
 10
174.019
 20
91.6492
 30
0.0
 11
173.22
 21
91.6492
 31
0.0
  0
LINE
  8
0
 62
     0
 10
173.22
 20
91.6492
 30
0.0
 11
173.22
 21
88.7003
 31
0.0
  0
LINE
  8
0
 62
     0
 10
173.22
 20
88.7003
 30
0.0
 11
174.019
 21
88.7003
 31
0.0
  0
LINE
  8
0
 62
     0
 10
174.019
 20
88.7003
 30
0.0
 11
174.019
 21
82.7497
 31
0.0
  0
LINE
  8
0
 62
     0
 10
174.019
 20
82.7497
 30
0.0
 11
173.22
 21
82.7497
 31
0.0
  0
LINE
  8
0
 62
     0
 10
173.22
 20
82.7497
 30
0.0
 11
173.22
 21
79.7994
 31
0.0
  0
LINE
  8
0
 62
     0
 10
173.22
 20
79.7994
 30
0.0
 11
174.019
 21
79.7994
 31
0.0
  0
LINE
  8
0
 62
     0
 10
174.019
 20
79.7994
 30
0.0
 11
174.019
 21
78.8003
 31
0.0
  0
LINE
  8
0
 62
     0
 10
174.019
 20
78.8003
 30
0.0
 11
187.869
 21
78.8003
 31
0.0
  0
LINE
  8
0
 62
     0
 10
187.869
 20
78.8003
 30
0.0
 11
187.869
 21
79.7994
 31
0.0
  0
LINE
  8
0
 62
     0
 10
187.869
 20
79.7994
 30
0.0
 11
188.669
 21
79.7994
 31
0.0
  0
LINE
  8
0
 62
     0
 10
188.669
 20
79.7994
 30
0.0
 11
188.669
 21
82.7497
 31
0.0
  0
LINE
  8
0
 62
     0
 10
188.669
 20
82.7497
 30
0.0
 11
187.869
 21
82.7497
 31
0.0
  0
LINE
  8
0
 62
     0
 10
187.869
 20
82.7497
 30
0.0
 11
187.869
 21
88.7003
 31
0.0
  0
LINE
  8
0
 62
     0
 10
187.869
 20
88.7003
 30
0.0
 11
188.669
 21
88.7003
 31
0.0
  0
LINE
  8
0
 62
     0
 10
188.669
 20
88.7003
 30
0.0
 11
188.669
 21
91.6492
 31
0.0
  0
LINE
  8
0
 62
     0
 10
188.669
 20
91.6492
 30
0.0
 11
187.869
 21
91.6492
 31
0.0
  0
LINE
  8
0
 62
     0
 10
187.869
 20
91.6492
 30
0.0
 11
187.869
 21
92.6497
 31
0.0
  0
LINE
  8
0
 62
     0
 10
187.869
 20
92.6497
 30
0.0
 11
174.019
 21
92.6497
 31
0.0
  0
LINE
  8
0
 62
     0
 10
193.07
 20
92.6497
 30
0.0
 11
193.07
 21
91.6492
 31
0.0
  0
LINE
  8
0
 62
     0
 10
193.07
 20
91.6492
 30
0.0
 11
192.27
 21
91.6492
 31
0.0
  0
LINE
  8
0
 62
     0
 10
192.27
 20
91.6492
 30
0.0
 11
192.27
 21
88.7003
 31
0.0
  0
LINE
  8
0
 62
     0
 10
192.27
 20
88.7003
 30
0.0
 11
193.07
 21
88.7003
 31
0.0
  0
LINE
  8
0
 62
     0
 10
193.07
 20
88.7003
 30
0.0
 11
193.07
 21
82.7497
 31
0.0
  0
LINE
  8
0
 62
     0
 10
193.07
 20
82.7497
 30
0.0
 11
192.27
 21
82.7497
 31
0.0
  0
LINE
  8
0
 62
     0
 10
192.27
 20
82.7497
 30
0.0
 11
192.27
 21
79.7994
 31
0.0
  0
LINE
  8
0
 62
     0
 10
192.27
 20
79.7994
 30
0.0
 11
193.07
 21
79.7994
 31
0.0
  0
LINE
  8
0
 62
     0
 10
193.07
 20
79.7994
 30
0.0
 11
193.07
 21
78.8003
 31
0.0
  0
LINE
  8
0
 62
     0
 10
193.07
 20
78.8003
 30
0.0
 11
206.919
 21
78.8003
 31
0.0
  0
LINE
  8
0
 62
     0
 10
206.919
 20
78.8003
 30
0.0
 11
206.919
 21
79.7994
 31
0.0
  0
LINE
  8
0
 62
     0
 10
206.919
 20
79.7994
 30
0.0
 11
207.719
 21
79.7994
 31
0.0
  0
LINE
  8
0
 62
     0
 10
207.719
 20
79.7994
 30
0.0
 11
207.719
 21
82.7497
 31
0.0
  0
LINE
  8
0
 62
     0
 10
207.719
 20
82.7497
 30
0.0
 11
206.919
 21
82.7497
 31
0.0
  0
LINE
  8
0
 62
     0
 10
206.919
 20
82.7497
 30
0.0
 11
206.919
 21
88.7003
 31
0.0
  0
LINE
  8
0
 62
     0
 10
206.919
 20
88.7003
 30
0.0
 11
207.719
 21
88.7003
 31
0.0
  0
LINE
  8
0
 62
     0
 10
207.719
 20
88.7003
 30
0.0
 11
207.719
 21
91.6492
 31
0.0
  0
LINE
  8
0
 62
     0
 10
207.719
 20
91.6492
 30
0.0
 11
206.919
 21
91.6492
 31
0.0
  0
LINE
  8
0
 62
     0
 10
206.919
 20
91.6492
 30
0.0
 11
206.919
 21
92.6497
 31
0.0
  0
LINE
  8
0
 62
     0
 10
206.919
 20
92.6497
 30
0.0
 11
193.07
 21
92.6497
 31
0.0
  0
LINE
  8
0
 62
     0
 10
212.12
 20
92.6497
 30
0.0
 11
212.12
 21
91.6492
 31
0.0
  0
LINE
  8
0
 62
     0
 10
212.12
 20
91.6492
 30
0.0
 11
211.32
 21
91.6492
 31
0.0
  0
LINE
  8
0
 62
     0
 10
211.32
 20
91.6492
 30
0.0
 11
211.32
 21
88.7003
 31
0.0
  0
LINE
  8
0
 62
     0
 10
211.32
 20
88.7003
 30
0.0
 11
212.12
 21
88.7003
 31
0.0
  0
LINE
  8
0
 62
     0
 10
212.12
 20
88.7003
 30
0.0
 11
212.12
 21
82.7497
 31
0.0
  0
LINE
  8
0
 62
     0
 10
212.12
 20
82.7497
 30
0.0
 11
211.32
 21
82.7497
 31
0.0
  0
LINE
  8
0
 62
     0
 10
211.32
 20
82.7497
 30
0.0
 11
211.32
 21
79.7994
 31
0.0
  0
LINE
  8
0
 62
     0
 10
211.32
 20
79.7994
 30
0.0
 11
212.12
 21
79.7994
 31
0.0
  0
LINE
  8
0
 62
     0
 10
212.12
 20
79.7994
 30
0.0
 11
212.12
 21
78.8003
 31
0.0
  0
LINE
  8
0
 62
     0
 10
212.12
 20
78.8003
 30
0.0
 11
225.969
 21
78.8003
 31
0.0
  0
LINE
  8
0
 62
     0
 10
225.969
 20
78.8003
 30
0.0
 11
225.969
 21
79.7994
 31
0.0
  0
LINE
  8
0
 62
     0
 10
225.969
 20
79.7994
 30
0.0
 11
226.769
 21
79.7994
 31
0.0
  0
LINE
  8
0
 62
     0
 10
226.769
 20
79.7994
 30
0.0
 11
226.769
 21
82.7497
 31
0.0
  0
LINE
  8
0
 62
     0
 10
226.769
 20
82.7497
 30
0.0
 11
225.969
 21
82.7497
 31
0.0
  0
LINE
  8
0
 62
     0
 10
225.969
 20
82.7497
 30
0.0
 11
225.969
 21
88.7003
 31
0.0
  0
LINE
  8
0
 62
     0
 10
225.969
 20
88.7003
 30
0.0
 11
226.769
 21
88.7003
 31
0.0
  0
LINE
  8
0
 62
     0
 10
226.769
 20
88.7003
 30
0.0
 11
226.769
 21
91.6492
 31
0.0
  0
LINE
  8
0
 62
     0
 10
226.769
 20
91.6492
 30
0.0
 11
225.969
 21
91.6492
 31
0.0
  0
LINE
  8
0
 62
     0
 10
225.969
 20
91.6492
 30
0.0
 11
225.969
 21
92.6497
 31
0.0
  0
LINE
  8
0
 62
     0
 10
225.969
 20
92.6497
 30
0.0
 11
212.12
 21
92.6497
 31
0.0
  0
LINE
  8
0
 62
     0
 10
231.169
 20
92.6497
 30
0.0
 11
231.169
 21
91.6492
 31
0.0
  0
LINE
  8
0
 62
     0
 10
231.169
 20
91.6492
 30
0.0
 11
230.37
 21
91.6492
 31
0.0
  0
LINE
  8
0
 62
     0
 10
230.37
 20
91.6492
 30
0.0
 11
230.37
 21
88.7003
 31
0.0
  0
LINE
  8
0
 62
     0
 10
230.37
 20
88.7003
 30
0.0
 11
231.169
 21
88.7003
 31
0.0
  0
LINE
  8
0
 62
     0
 10
231.169
 20
88.7003
 30
0.0
 11
231.169
 21
82.7497
 31
0.0
  0
LINE
  8
0
 62
     0
 10
231.169
 20
82.7497
 30
0.0
 11
230.37
 21
82.7497
 31
0.0
  0
LINE
  8
0
 62
     0
 10
230.37
 20
82.7497
 30
0.0
 11
230.37
 21
79.7994
 31
0.0
  0
LINE
  8
0
 62
     0
 10
230.37
 20
79.7994
 30
0.0
 11
231.169
 21
79.7994
 31
0.0
  0
LINE
  8
0
 62
     0
 10
231.169
 20
79.7994
 30
0.0
 11
231.169
 21
78.8003
 31
0.0
  0
LINE
  8
0
 62
     0
 10
231.169
 20
78.8003
 30
0.0
 11
245.019
 21
78.8003
 31
0.0
  0
LINE
  8
0
 62
     0
 10
245.019
 20
78.8003
 30
0.0
 11
245.019
 21
79.7994
 31
0.0
  0
LINE
  8
0
 62
     0
 10
245.019
 20
79.7994
 30
0.0
 11
245.82
 21
79.7994
 31
0.0
  0
LINE
  8
0
 62
     0
 10
245.82
 20
79.7994
 30
0.0
 11
245.82
 21
82.7497
 31
0.0
  0
LINE
  8
0
 62
     0
 10
245.82
 20
82.7497
 30
0.0
 11
245.019
 21
82.7497
 31
0.0
  0
LINE
  8
0
 62
     0
 10
245.019
 20
82.7497
 30
0.0
 11
245.019
 21
88.7003
 31
0.0
  0
LINE
  8
0
 62
     0
 10
245.019
 20
88.7003
 30
0.0
 11
245.82
 21
88.7003
 31
0.0
  0
LINE
  8
0
 62
     0
 10
245.82
 20
88.7003
 30
0.0
 11
245.82
 21
91.6492
 31
0.0
  0
LINE
  8
0
 62
     0
 10
245.82
 20
91.6492
 30
0.0
 11
245.019
 21
91.6492
 31
0.0
  0
LINE
  8
0
 62
     0
 10
245.019
 20
91.6492
 30
0.0
 11
245.019
 21
92.6497
 31
0.0
  0
LINE
  8
0
 62
     0
 10
245.019
 20
92.6497
 30
0.0
 11
231.169
 21
92.6497
 31
0.0
  0
ENDSEC
  0
EOF
