<?xml version="1.0"?>
<!-- Generated by SVGo -->
<svg width="295.752mm" height="105.252mm"
     viewBox="0.000 0.000 295.752 105.252"
     xmlns="http://www.w3.org/2000/svg" 
     xmlns:xlink="http://www.w3.org/1999/xlink">
<polygon points="288.639,5.088 288.796,5.095 288.952,5.112 289.106,5.143 289.257,5.186 289.404,5.240 289.546,5.305 289.683,5.382 289.815,5.470 289.938,5.567 290.053,5.673 290.159,5.789 290.257,5.912 290.344,6.043 290.421,6.180 290.486,6.322 290.541,6.470 290.584,6.622 290.614,6.776 290.632,6.931 290.639,7.088 290.639,59.401 287.138,59.400 286.388,59.519 285.714,59.864 285.176,60.400 284.832,61.076 284.714,61.826 284.714,61.826 284.832,62.576 285.176,63.251 285.714,63.788 286.388,64.132 287.138,64.251 290.639,64.251 290.639,98.164 290.632,98.320 290.614,98.477 290.584,98.630 290.541,98.782 290.486,98.929 290.421,99.072 290.344,99.209 290.257,99.340 290.159,99.462 290.053,99.578 289.938,99.684 289.815,99.782 289.683,99.870 289.546,99.947 289.404,100.011 289.257,100.066 289.106,100.108 288.952,100.139 288.796,100.157 288.638,100.163 7.114,100.164 6.957,100.157 6.801,100.139 6.647,100.108 6.495,100.066 6.348,100.011 6.206,99.947 6.069,99.870 5.938,99.782 5.815,99.684 5.699,99.578 5.593,99.462 5.495,99.340 5.408,99.209 5.331,99.072 5.266,98.929 5.211,98.782 5.169,98.630 5.138,98.477 5.120,98.320 5.113,98.164 5.113,64.251 8.615,64.251 9.364,64.132 10.039,63.788 10.576,63.251 10.920,62.576 11.039,61.828 11.039,61.826 10.920,61.076 10.576,60.400 10.039,59.864 9.364,59.519 8.615,59.401 5.113,59.400 5.114,7.088 5.120,6.931 5.138,6.776 5.169,6.622 5.211,6.470 5.266,6.322 5.331,6.180 5.408,6.043 5.495,5.912 5.593,5.789 5.699,5.673 5.815,5.567 5.938,5.470 6.069,5.382 6.206,5.305 6.348,5.240 6.495,5.186 6.647,5.143 6.801,5.112 6.957,5.095 7.114,5.087" style="fill:none;stroke-width:0.050000mm;stroke:black"/>
<polygon points="107.614,83.800 107.614,84.800 106.814,84.800 106.814,87.751 107.614,87.751 107.614,88.501 105.939,88.501 105.939,85.270 104.213,85.270 104.213,84.350 101.062,84.350 101.062,85.270 99.338,85.270 99.338,88.501 98.513,88.501 98.513,91.150 99.338,91.150 99.338,97.420 101.062,97.420 101.062,98.400 104.213,98.400 104.213,97.420 105.939,97.420 105.939,92.950 107.614,92.950 107.614,93.700 106.814,93.700 106.814,96.650 107.614,96.650 107.614,97.650 121.463,97.650 121.463,96.650 122.263,96.650 122.263,93.700 121.463,93.700 121.463,92.950 123.138,92.950 123.138,97.420 124.864,97.420 124.864,98.400 128.014,98.400 128.014,97.420 129.738,97.420 129.738,91.150 130.562,91.150 130.562,88.501 129.738,88.501 129.738,85.270 128.014,85.270 128.014,84.350 124.864,84.350 124.864,85.270 123.138,85.270 123.138,88.501 121.463,88.501 121.463,87.751 122.263,87.751 122.263,84.800 121.463,84.800 121.463,83.800" style="fill:none;stroke-width:0.050000mm;stroke:black"/>
<polygon points="145.714,83.800 145.714,84.800 144.913,84.800 144.913,87.751 145.714,87.751 145.714,88.501 144.038,88.501 144.038,85.270 142.313,85.270 142.313,84.350 139.163,84.350 139.163,85.270 137.438,85.270 137.438,88.501 136.613,88.501 136.613,91.150 137.438,91.150 137.438,97.420 139.163,97.420 139.163,98.400 142.313,98.400 142.313,97.420 144.038,97.420 144.038,92.950 145.714,92.950 145.714,93.700 144.913,93.700 144.913,96.650 145.714,96.650 145.714,97.650 159.563,97.650 159.563,96.650 160.363,96.650 160.363,93.700 159.563,93.700 159.563,92.950 161.238,92.950 161.238,97.420 162.964,97.420 162.964,98.400 166.113,98.400 166.113,97.420 167.839,97.420 167.839,91.150 168.663,91.150 168.663,88.501 167.839,88.501 167.839,85.270 166.113,85.270 166.113,84.350 162.964,84.350 162.964,85.270 161.238,85.270 161.238,88.501 159.563,88.501 159.563,87.751 160.363,87.751 160.363,84.800 159.563,84.800 159.563,83.800" style="fill:none;stroke-width:0.050000mm;stroke:black"/>
<polygon points="29.032,83.800 29.032,84.800 28.232,84.800 28.232,87.751 29.032,87.751 29.032,93.700 28.232,93.700 28.232,96.650 29.032,96.650 29.032,97.650 42.882,97.650 42.882,96.650 43.681,96.650 43.681,93.700 42.882,93.700 42.882,87.751 43.681,87.751 43.681,84.800 42.882,84.800 42.882,83.800" style="fill:none;stroke-width:0.050000mm;stroke:black"/>
<polygon points="52.845,83.800 52.845,84.800 52.044,84.800 52.044,87.751 52.845,87.751 52.845,93.700 52.044,93.700 52.044,96.650 52.845,96.650 52.845,97.650 66.695,97.650 66.695,96.650 67.495,96.650 67.495,93.700 66.695,93.700 66.695,87.751 67.495,87.751 67.495,84.800 66.695,84.800 66.695,83.800" style="fill:none;stroke-width:0.050000mm;stroke:black"/>
<polygon points="76.657,83.800 76.657,84.800 75.856,84.800 75.856,87.751 76.657,87.751 76.657,93.700 75.856,93.700 75.856,96.650 76.657,96.650 76.657,97.650 90.507,97.650 90.507,96.650 91.306,96.650 91.306,93.700 90.507,93.700 90.507,87.751 91.306,87.751 91.306,84.800 90.507,84.800 90.507,83.800" style="fill:none;stroke-width:0.050000mm;stroke:black"/>
<polygon points="176.670,83.800 176.670,84.800 175.870,84.800 175.870,87.751 176.670,87.751 176.670,93.700 175.870,93.700 175.870,96.650 176.670,96.650 176.670,97.650 190.519,97.650 190.519,96.650 191.320,96.650 191.320,93.700 190.519,93.700 190.519,87.751 191.320,87.751 191.320,84.800 190.519,84.800 190.519,83.800" style="fill:none;stroke-width:0.050000mm;stroke:black"/>
<polygon points="198.101,83.800 198.101,84.800 197.300,84.800 197.300,87.751 198.101,87.751 198.101,89.615 197.837,89.100 197.301,88.564 196.625,88.219 195.877,88.100 195.127,88.219 194.450,88.564 193.914,89.100 193.570,89.776 193.452,90.526 193.570,91.275 193.914,91.951 194.450,92.487 195.127,92.832 195.877,92.951 196.625,92.832 197.301,92.487 197.837,91.951 198.101,91.436 198.101,93.700 197.300,93.700 197.300,96.650 198.101,96.650 198.101,97.650 211.950,97.650 211.950,96.650 212.750,96.650 212.750,93.700 211.950,93.700 211.950,87.751 212.750,87.751 212.750,84.800 211.950,84.800 211.950,83.800" style="fill:none;stroke-width:0.050000mm;stroke:black"/>
<polygon points="217.151,83.800 217.151,84.800 216.351,84.800 216.351,87.751 217.151,87.751 217.151,93.700 216.351,93.700 216.351,96.650 217.151,96.650 217.151,97.650 231.000,97.650 231.000,96.650 231.800,96.650 231.800,93.700 231.000,93.700 231.000,87.751 231.800,87.751 231.800,84.800 231.000,84.800 231.000,83.800" style="fill:none;stroke-width:0.050000mm;stroke:black"/>
<polygon points="236.200,83.800 236.200,84.800 235.401,84.800 235.401,87.751 236.200,87.751 236.200,93.700 235.401,93.700 235.401,96.650 236.200,96.650 236.200,97.650 250.050,97.650 250.050,96.650 250.851,96.650 250.851,93.700 250.050,93.700 250.050,87.751 250.851,87.751 250.851,84.800 250.050,84.800 250.050,83.800" style="fill:none;stroke-width:0.050000mm;stroke:black"/>
<polygon points="255.250,83.800 255.250,84.800 254.450,84.800 254.450,87.751 255.250,87.751 255.250,93.700 254.450,93.700 254.450,96.650 255.250,96.650 255.250,97.650 269.101,97.650 269.101,96.650 269.900,96.650 269.900,93.700 269.101,93.700 269.101,87.751 269.900,87.751 269.900,84.800 269.101,84.800 269.101,83.800" style="fill:none;stroke-width:0.050000mm;stroke:black"/>
<polygon points="29.032,64.751 29.032,65.751 28.232,65.751 28.232,68.700 29.032,68.700 29.032,74.650 28.232,74.650 28.232,77.600 29.032,77.600 29.032,78.600 42.882,78.600 42.882,77.600 43.681,77.600 43.681,74.650 42.882,74.650 42.882,68.700 43.681,68.700 43.681,65.751 42.882,65.751 42.882,64.751" style="fill:none;stroke-width:0.050000mm;stroke:black"/>
<polygon points="50.464,64.751 50.464,65.751 49.663,65.751 49.663,68.700 50.464,68.700 50.464,74.650 49.663,74.650 49.663,77.600 50.464,77.600 50.464,78.600 64.314,78.600 64.314,77.600 65.114,77.600 65.114,74.650 64.314,74.650 64.314,68.700 65.114,68.700 65.114,65.751 64.314,65.751 64.314,64.751" style="fill:none;stroke-width:0.050000mm;stroke:black"/>
<polygon points="69.514,64.751 69.514,65.751 68.713,65.751 68.713,68.700 69.514,68.700 69.514,74.650 68.713,74.650 68.713,77.600 69.514,77.600 69.514,78.600 83.364,78.600 83.364,77.600 84.163,77.600 84.163,74.650 83.364,74.650 83.364,68.700 84.163,68.700 84.163,65.751 83.364,65.751 83.364,64.751" style="fill:none;stroke-width:0.050000mm;stroke:black"/>
<polygon points="88.564,64.751 88.564,65.751 87.764,65.751 87.764,68.700 88.564,68.700 88.564,74.650 87.764,74.650 87.764,77.600 88.564,77.600 88.564,78.600 102.413,78.600 102.413,77.600 103.213,77.600 103.213,74.650 102.413,74.650 102.413,68.700 103.213,68.700 103.213,65.751 102.413,65.751 102.413,64.751" style="fill:none;stroke-width:0.050000mm;stroke:black"/>
<polygon points="107.614,64.751 107.614,65.751 106.814,65.751 106.814,68.700 107.614,68.700 107.614,74.650 106.814,74.650 106.814,77.600 107.614,77.600 107.614,78.600 121.463,78.600 121.463,77.600 122.263,77.600 122.263,74.650 121.463,74.650 121.463,68.700 122.263,68.700 122.263,65.751 121.463,65.751 121.463,64.751" style="fill:none;stroke-width:0.050000mm;stroke:black"/>
<polygon points="126.663,64.751 126.663,65.751 125.864,65.751 125.864,68.700 126.663,68.700 126.663,74.650 125.864,74.650 125.864,77.600 126.663,77.600 126.663,78.600 140.514,78.600 140.514,77.600 141.313,77.600 141.313,74.650 140.514,74.650 140.514,68.700 141.313,68.700 141.313,65.751 140.514,65.751 140.514,64.751" style="fill:none;stroke-width:0.050000mm;stroke:black"/>
<polygon points="145.714,64.751 145.714,65.751 144.913,65.751 144.913,68.700 145.714,68.700 145.714,74.650 144.913,74.650 144.913,77.600 145.714,77.600 145.714,78.600 159.563,78.600 159.563,77.600 160.363,77.600 160.363,74.650 159.563,74.650 159.563,68.700 160.363,68.700 160.363,65.751 159.563,65.751 159.563,64.751" style="fill:none;stroke-width:0.050000mm;stroke:black"/>
<polygon points="164.764,64.751 164.764,65.751 163.964,65.751 163.964,68.700 164.764,68.700 164.764,74.650 163.964,74.650 163.964,77.600 164.764,77.600 164.764,78.600 178.613,78.600 178.613,77.600 179.413,77.600 179.413,74.650 178.613,74.650 178.613,68.700 179.413,68.700 179.413,65.751 178.613,65.751 178.613,64.751" style="fill:none;stroke-width:0.050000mm;stroke:black"/>
<polygon points="183.813,64.751 183.813,65.751 183.014,65.751 183.014,68.700 183.813,68.700 183.813,74.650 183.014,74.650 183.014,77.600 183.813,77.600 183.813,78.600 197.663,78.600 197.663,77.600 198.464,77.600 198.464,74.650 197.663,74.650 197.663,68.700 198.464,68.700 198.464,65.751 197.663,65.751 197.663,64.751" style="fill:none;stroke-width:0.050000mm;stroke:black"/>
<polygon points="202.863,64.751 202.863,65.751 202.063,65.751 202.063,68.700 202.863,68.700 202.863,74.650 202.063,74.650 202.063,77.600 202.863,77.600 202.863,78.600 216.714,78.600 216.714,77.600 217.514,77.600 217.514,74.650 216.714,74.650 216.714,68.700 217.514,68.700 217.514,65.751 216.714,65.751 216.714,64.751" style="fill:none;stroke-width:0.050000mm;stroke:black"/>
<polygon points="221.913,64.751 221.913,65.751 221.113,65.751 221.113,68.700 221.913,68.700 221.913,74.650 221.113,74.650 221.113,77.600 221.913,77.600 221.913,78.600 235.764,78.600 235.764,77.600 236.563,77.600 236.563,74.650 235.764,74.650 235.764,68.700 236.563,68.700 236.563,65.751 235.764,65.751 235.764,64.751" style="fill:none;stroke-width:0.050000mm;stroke:black"/>
<polygon points="248.106,64.751 248.106,65.751 247.307,65.751 247.307,68.700 248.106,68.700 248.106,74.650 247.307,74.650 247.307,77.600 248.106,77.600 248.106,78.600 261.957,78.600 261.957,77.600 262.756,77.600 262.756,74.650 261.957,74.650 261.957,68.700 262.756,68.700 262.756,65.751 261.957,65.751 261.957,64.751" style="fill:none;stroke-width:0.050000mm;stroke:black"/>
<polygon points="262.394,45.701 262.394,46.701 261.594,46.701 261.594,49.650 262.394,49.650 262.394,50.400 260.719,50.400 260.719,47.171 258.993,47.171 258.993,46.251 255.844,46.251 255.844,47.171 254.120,47.171 254.120,50.400 253.295,50.400 253.295,53.050 254.120,53.050 254.120,59.320 255.844,59.320 255.844,60.300 258.993,60.300 258.993,59.320 260.719,59.320 260.719,54.850 262.394,54.850 262.394,55.600 261.594,55.600 261.594,58.550 262.394,58.550 262.394,59.550 276.244,59.550 276.244,58.550 277.044,58.550 277.044,55.600 276.244,55.600 276.244,54.850 277.919,54.850 277.919,59.320 279.644,59.320 279.644,60.300 282.794,60.300 282.794,59.320 284.519,59.320 284.519,53.050 285.344,53.050 285.344,50.400 284.519,50.400 284.519,47.171 282.794,47.171 282.794,46.251 279.644,46.251 279.644,47.171 277.919,47.171 277.919,50.400 276.244,50.400 276.244,49.650 277.044,49.650 277.044,46.701 276.244,46.701 276.244,45.701" style="fill:none;stroke-width:0.050000mm;stroke:black"/>
<polygon points="14.745,45.701 14.745,46.701 13.945,46.701 13.945,49.650 14.745,49.650 14.745,55.600 13.945,55.600 13.945,58.550 14.745,58.550 14.745,59.550 28.595,59.550 28.595,58.550 29.395,58.550 29.395,55.600 28.595,55.600 28.595,49.650 29.395,49.650 29.395,46.701 28.595,46.701 28.595,45.701" style="fill:none;stroke-width:0.050000mm;stroke:black"/>
<polygon points="40.939,45.701 40.939,46.701 40.139,46.701 40.139,49.650 40.939,49.650 40.939,55.600 40.139,55.600 40.139,58.550 40.939,58.550 40.939,59.550 54.788,59.550 54.788,58.550 55.589,58.550 55.589,55.600 54.788,55.600 54.788,49.650 55.589,49.650 55.589,46.701 54.788,46.701 54.788,45.701" style="fill:none;stroke-width:0.050000mm;stroke:black"/>
<polygon points="59.989,45.701 59.989,46.701 59.188,46.701 59.188,49.650 59.989,49.650 59.989,55.600 59.188,55.600 59.188,58.550 59.989,58.550 59.989,59.550 73.838,59.550 73.838,58.550 74.638,58.550 74.638,55.600 73.838,55.600 73.838,49.650 74.638,49.650 74.638,46.701 73.838,46.701 73.838,45.701" style="fill:none;stroke-width:0.050000mm;stroke:black"/>
<polygon points="79.038,45.701 79.038,46.701 78.239,46.701 78.239,49.650 79.038,49.650 79.038,55.600 78.239,55.600 78.239,58.550 79.038,58.550 79.038,59.550 92.888,59.550 92.888,58.550 93.688,58.550 93.688,55.600 92.888,55.600 92.888,49.650 93.688,49.650 93.688,46.701 92.888,46.701 92.888,45.701" style="fill:none;stroke-width:0.050000mm;stroke:black"/>
<polygon points="98.088,45.701 98.088,46.701 97.288,46.701 97.288,49.650 98.088,49.650 98.088,55.600 97.288,55.600 97.288,58.550 98.088,58.550 98.088,59.550 111.938,59.550 111.938,58.550 112.737,58.550 112.737,55.600 111.938,55.600 111.938,49.650 112.737,49.650 112.737,46.701 111.938,46.701 111.938,45.701" style="fill:none;stroke-width:0.050000mm;stroke:black"/>
<polygon points="117.138,45.701 117.138,46.701 116.338,46.701 116.338,49.650 117.138,49.650 117.138,55.600 116.338,55.600 116.338,58.550 117.138,58.550 117.138,59.550 130.988,59.550 130.988,58.550 131.788,58.550 131.788,55.600 130.988,55.600 130.988,49.650 131.788,49.650 131.788,46.701 130.988,46.701 130.988,45.701" style="fill:none;stroke-width:0.050000mm;stroke:black"/>
<polygon points="136.188,45.701 136.188,46.701 135.389,46.701 135.389,49.650 136.188,49.650 136.188,55.600 135.389,55.600 135.389,58.550 136.188,58.550 136.188,59.550 150.038,59.550 150.038,58.550 150.839,58.550 150.839,55.600 150.038,55.600 150.038,49.650 150.839,49.650 150.839,46.701 150.038,46.701 150.038,45.701" style="fill:none;stroke-width:0.050000mm;stroke:black"/>
<polygon points="155.238,45.701 155.238,46.701 154.438,46.701 154.438,49.650 155.238,49.650 155.238,55.600 154.438,55.600 154.438,58.550 155.238,58.550 155.238,59.550 169.089,59.550 169.089,58.550 169.889,58.550 169.889,55.600 169.089,55.600 169.089,49.650 169.889,49.650 169.889,46.701 169.089,46.701 169.089,45.701" style="fill:none;stroke-width:0.050000mm;stroke:black"/>
<polygon points="174.288,45.701 174.288,46.701 173.488,46.701 173.488,49.650 174.288,49.650 174.288,55.600 173.488,55.600 173.488,58.550 174.288,58.550 174.288,59.550 188.139,59.550 188.139,58.550 188.938,58.550 188.938,55.600 188.139,55.600 188.139,49.650 188.938,49.650 188.938,46.701 188.139,46.701 188.139,45.701" style="fill:none;stroke-width:0.050000mm;stroke:black"/>
<polygon points="193.339,45.701 193.339,46.701 192.538,46.701 192.538,49.650 193.339,49.650 193.339,55.600 192.538,55.600 192.538,58.550 193.339,58.550 193.339,59.550 207.188,59.550 207.188,58.550 207.988,58.550 207.988,55.600 207.188,55.600 207.188,49.650 207.988,49.650 207.988,46.701 207.188,46.701 207.188,45.701" style="fill:none;stroke-width:0.050000mm;stroke:black"/>
<polygon points="212.389,45.701 212.389,46.701 211.589,46.701 211.589,49.650 212.389,49.650 212.389,55.600 211.589,55.600 211.589,58.550 212.389,58.550 212.389,59.550 226.238,59.550 226.238,58.550 227.038,58.550 227.038,55.600 226.238,55.600 226.238,49.650 227.038,49.650 227.038,46.701 226.238,46.701 226.238,45.701" style="fill:none;stroke-width:0.050000mm;stroke:black"/>
<polygon points="231.438,45.701 231.438,46.701 230.639,46.701 230.639,49.650 231.438,49.650 231.438,55.600 230.639,55.600 230.639,58.550 231.438,58.550 231.438,59.550 245.288,59.550 245.288,58.550 246.089,58.550 246.089,55.600 245.288,55.600 245.288,49.650 246.089,49.650 246.089,46.701 245.288,46.701 245.288,45.701" style="fill:none;stroke-width:0.050000mm;stroke:black"/>
<polygon points="132.827,50.320 132.151,50.665 131.615,51.201 131.269,51.876 131.151,52.626 131.269,53.376 131.615,54.052 132.151,54.588 132.827,54.933 133.577,55.050 134.325,54.933 135.002,54.588 135.538,54.052 135.882,53.376 136.002,52.626 135.882,51.876 135.538,51.201 135.002,50.665 134.325,50.320 133.577,50.201" style="fill:none;stroke-width:0.050000mm;stroke:black"/>
<polygon points="12.364,26.651 12.364,27.651 11.564,27.651 11.564,30.601 12.364,30.601 12.364,36.550 11.564,36.550 11.564,39.501 12.364,39.501 12.364,40.501 26.214,40.501 26.214,39.501 27.014,39.501 27.014,36.550 26.214,36.550 26.214,30.601 27.014,30.601 27.014,27.651 26.214,27.651 26.214,26.651" style="fill:none;stroke-width:0.050000mm;stroke:black"/>
<polygon points="36.175,26.651 36.175,27.651 35.376,27.651 35.376,30.601 36.175,30.601 36.175,36.550 35.376,36.550 35.376,39.501 36.175,39.501 36.175,40.501 50.026,40.501 50.026,39.501 50.826,39.501 50.826,36.550 50.026,36.550 50.026,30.601 50.826,30.601 50.826,27.651 50.026,27.651 50.026,26.651" style="fill:none;stroke-width:0.050000mm;stroke:black"/>
<polygon points="55.226,26.651 55.226,27.651 54.425,27.651 54.425,30.601 55.226,30.601 55.226,36.550 54.425,36.550 54.425,39.501 55.226,39.501 55.226,40.501 69.076,40.501 69.076,39.501 69.876,39.501 69.876,36.550 69.076,36.550 69.076,30.601 69.876,30.601 69.876,27.651 69.076,27.651 69.076,26.651" style="fill:none;stroke-width:0.050000mm;stroke:black"/>
<polygon points="74.276,26.651 74.276,27.651 73.475,27.651 73.475,30.601 74.276,30.601 74.276,36.550 73.475,36.550 73.475,39.501 74.276,39.501 74.276,40.501 88.126,40.501 88.126,39.501 88.925,39.501 88.925,36.550 88.126,36.550 88.126,30.601 88.925,30.601 88.925,27.651 88.126,27.651 88.126,26.651" style="fill:none;stroke-width:0.050000mm;stroke:black"/>
<polygon points="93.326,26.651 93.326,27.651 92.526,27.651 92.526,30.601 93.326,30.601 93.326,36.550 92.526,36.550 92.526,39.501 93.326,39.501 93.326,40.501 107.175,40.501 107.175,39.501 107.975,39.501 107.975,36.550 107.175,36.550 107.175,30.601 107.975,30.601 107.975,27.651 107.175,27.651 107.175,26.651" style="fill:none;stroke-width:0.050000mm;stroke:black"/>
<polygon points="112.376,26.651 112.376,27.651 111.576,27.651 111.576,30.601 112.376,30.601 112.376,36.550 111.576,36.550 111.576,39.501 112.376,39.501 112.376,40.501 126.225,40.501 126.225,39.501 127.026,39.501 127.026,36.550 126.225,36.550 126.225,30.601 127.026,30.601 127.026,27.651 126.225,27.651 126.225,26.651" style="fill:none;stroke-width:0.050000mm;stroke:black"/>
<polygon points="131.425,26.651 131.425,27.651 130.625,27.651 130.625,30.601 131.425,30.601 131.425,36.550 130.625,36.550 130.625,39.501 131.425,39.501 131.425,40.501 145.276,40.501 145.276,39.501 146.075,39.501 146.075,36.550 145.276,36.550 145.276,30.601 146.075,30.601 146.075,27.651 145.276,27.651 145.276,26.651" style="fill:none;stroke-width:0.050000mm;stroke:black"/>
<polygon points="150.476,26.651 150.476,27.651 149.675,27.651 149.675,30.601 150.476,30.601 150.476,36.550 149.675,36.550 149.675,39.501 150.476,39.501 150.476,40.501 164.325,40.501 164.325,39.501 165.125,39.501 165.125,36.550 164.325,36.550 164.325,30.601 165.125,30.601 165.125,27.651 164.325,27.651 164.325,26.651" style="fill:none;stroke-width:0.050000mm;stroke:black"/>
<polygon points="169.526,26.651 169.526,27.651 168.726,27.651 168.726,30.601 169.526,30.601 169.526,36.550 168.726,36.550 168.726,39.501 169.526,39.501 169.526,40.501 183.375,40.501 183.375,39.501 184.175,39.501 184.175,36.550 183.375,36.550 183.375,30.601 184.175,30.601 184.175,27.651 183.375,27.651 183.375,26.651" style="fill:none;stroke-width:0.050000mm;stroke:black"/>
<polygon points="188.575,26.651 188.575,27.651 187.776,27.651 187.776,30.601 188.575,30.601 188.575,36.550 187.776,36.550 187.776,39.501 188.575,39.501 188.575,40.501 202.425,40.501 202.425,39.501 203.226,39.501 203.226,36.550 202.425,36.550 202.425,30.601 203.226,30.601 203.226,27.651 202.425,27.651 202.425,26.651" style="fill:none;stroke-width:0.050000mm;stroke:black"/>
<polygon points="207.625,26.651 207.625,27.651 206.825,27.651 206.825,30.601 207.625,30.601 207.625,36.550 206.825,36.550 206.825,39.501 207.625,39.501 207.625,40.501 221.476,40.501 221.476,39.501 222.276,39.501 222.276,36.550 221.476,36.550 221.476,30.601 222.276,30.601 222.276,27.651 221.476,27.651 221.476,26.651" style="fill:none;stroke-width:0.050000mm;stroke:black"/>
<polygon points="226.675,26.651 226.675,27.651 225.875,27.651 225.875,30.601 226.675,30.601 226.675,36.550 225.875,36.550 225.875,39.501 226.675,39.501 226.675,40.501 240.526,40.501 240.526,39.501 241.325,39.501 241.325,36.550 240.526,36.550 240.526,30.601 241.325,30.601 241.325,27.651 240.526,27.651 240.526,26.651" style="fill:none;stroke-width:0.050000mm;stroke:black"/>
<polygon points="245.726,26.651 245.726,27.651 244.925,27.651 244.925,30.601 245.726,30.601 245.726,36.550 244.925,36.550 244.925,39.501 245.726,39.501 245.726,40.501 259.575,40.501 259.575,39.501 260.375,39.501 260.375,36.550 259.575,36.550 259.575,30.601 260.375,30.601 260.375,27.651 259.575,27.651 259.575,26.651" style="fill:none;stroke-width:0.050000mm;stroke:black"/>
<polygon points="269.538,26.651 269.538,27.651 268.738,27.651 268.738,30.601 269.538,30.601 269.538,36.550 268.738,36.550 268.738,39.501 269.538,39.501 269.538,40.501 283.388,40.501 283.388,39.501 284.188,39.501 284.188,36.550 283.388,36.550 283.388,30.601 284.188,30.601 284.188,27.651 283.388,27.651 283.388,26.651" style="fill:none;stroke-width:0.050000mm;stroke:black"/>
<polygon points="29.827,30.919 29.151,31.264 28.615,31.800 28.270,32.475 28.152,33.227 28.270,33.975 28.615,34.651 29.151,35.188 29.827,35.532 30.577,35.650 31.326,35.532 32.002,35.188 32.538,34.651 32.883,33.975 33.002,33.227 32.883,32.475 32.538,31.800 32.002,31.264 31.326,30.919 30.577,30.800" style="fill:none;stroke-width:0.050000mm;stroke:black"/>
<polygon points="264.676,30.919 264.000,31.264 263.464,31.800 263.119,32.475 263.001,33.227 263.119,33.975 263.464,34.651 264.000,35.188 264.676,35.532 265.426,35.650 266.175,35.532 266.851,35.188 267.387,34.651 267.733,33.975 267.851,33.227 267.733,32.475 267.387,31.800 266.851,31.264 266.175,30.919 265.426,30.800" style="fill:none;stroke-width:0.050000mm;stroke:black"/>
<polygon points="264.775,7.600 264.775,8.601 263.976,8.601 263.976,11.550 264.775,11.550 264.775,12.300 263.101,12.300 263.101,9.070 261.375,9.070 261.375,8.149 258.226,8.149 258.226,9.070 256.500,9.070 256.500,12.300 255.675,12.300 255.675,14.950 256.500,14.950 256.500,21.221 258.226,21.221 258.226,22.200 261.375,22.200 261.375,21.221 263.101,21.221 263.101,16.750 264.775,16.750 264.775,17.500 263.976,17.500 263.976,20.450 264.775,20.450 264.775,21.450 278.625,21.450 278.625,20.450 279.425,20.450 279.425,17.500 278.625,17.500 278.625,16.750 280.300,16.750 280.300,21.221 282.025,21.221 282.025,22.200 285.175,22.200 285.175,21.221 286.900,21.221 286.900,14.950 287.726,14.950 287.726,12.300 286.900,12.300 286.900,9.070 285.175,9.070 285.175,8.149 282.025,8.149 282.025,9.070 280.300,9.070 280.300,12.300 278.625,12.300 278.625,11.550 279.425,11.550 279.425,8.601 278.625,8.601 278.625,7.600" style="fill:none;stroke-width:0.050000mm;stroke:black"/>
<polygon points="7.601,7.600 7.601,8.601 6.801,8.601 6.801,11.550 7.601,11.550 7.601,17.500 6.801,17.500 6.801,20.450 7.601,20.450 7.601,21.450 21.451,21.450 21.451,20.450 22.251,20.450 22.251,17.500 21.451,17.500 21.451,11.550 22.251,11.550 22.251,8.601 21.451,8.601 21.451,7.600" style="fill:none;stroke-width:0.050000mm;stroke:black"/>
<polygon points="26.651,7.600 26.651,8.601 25.851,8.601 25.851,11.550 26.651,11.550 26.651,17.500 25.851,17.500 25.851,20.450 26.651,20.450 26.651,21.450 40.501,21.450 40.501,20.450 41.300,20.450 41.300,17.500 40.501,17.500 40.501,11.550 41.300,11.550 41.300,8.601 40.501,8.601 40.501,7.600" style="fill:none;stroke-width:0.050000mm;stroke:black"/>
<polygon points="45.701,7.600 45.701,8.601 44.901,8.601 44.901,11.550 45.701,11.550 45.701,17.500 44.901,17.500 44.901,20.450 45.701,20.450 45.701,21.450 59.550,21.450 59.550,20.450 60.351,20.450 60.351,17.500 59.550,17.500 59.550,11.550 60.351,11.550 60.351,8.601 59.550,8.601 59.550,7.600" style="fill:none;stroke-width:0.050000mm;stroke:black"/>
<polygon points="64.751,7.600 64.751,8.601 63.951,8.601 63.951,11.550 64.751,11.550 64.751,17.500 63.951,17.500 63.951,20.450 64.751,20.450 64.751,21.450 78.600,21.450 78.600,20.450 79.401,20.450 79.401,17.500 78.600,17.500 78.600,11.550 79.401,11.550 79.401,8.601 78.600,8.601 78.600,7.600" style="fill:none;stroke-width:0.050000mm;stroke:black"/>
<polygon points="83.800,7.600 83.800,8.601 83.001,8.601 83.001,11.550 83.800,11.550 83.800,17.500 83.001,17.500 83.001,20.450 83.800,20.450 83.800,21.450 97.651,21.450 97.651,20.450 98.451,20.450 98.451,17.500 97.651,17.500 97.651,11.550 98.451,11.550 98.451,8.601 97.651,8.601 97.651,7.600" style="fill:none;stroke-width:0.050000mm;stroke:black"/>
<polygon points="102.850,7.600 102.850,8.601 102.050,8.601 102.050,11.550 102.850,11.550 102.850,17.500 102.050,17.500 102.050,20.450 102.850,20.450 102.850,21.450 116.701,21.450 116.701,20.450 117.501,20.450 117.501,17.500 116.701,17.500 116.701,11.550 117.501,11.550 117.501,8.601 116.701,8.601 116.701,7.600" style="fill:none;stroke-width:0.050000mm;stroke:black"/>
<polygon points="121.901,7.600 121.901,8.601 121.100,8.601 121.100,11.550 121.901,11.550 121.901,17.500 121.100,17.500 121.100,20.450 121.901,20.450 121.901,21.450 135.750,21.450 135.750,20.450 136.550,20.450 136.550,17.500 135.750,17.500 135.750,11.550 136.550,11.550 136.550,8.601 135.750,8.601 135.750,7.600" style="fill:none;stroke-width:0.050000mm;stroke:black"/>
<polygon points="140.950,7.600 140.950,8.601 140.151,8.601 140.151,11.550 140.950,11.550 140.950,17.500 140.151,17.500 140.151,20.450 140.950,20.450 140.950,21.450 154.800,21.450 154.800,20.450 155.601,20.450 155.601,17.500 154.800,17.500 154.800,11.550 155.601,11.550 155.601,8.601 154.800,8.601 154.800,7.600" style="fill:none;stroke-width:0.050000mm;stroke:black"/>
<polygon points="160.000,7.600 160.000,8.601 159.200,8.601 159.200,11.550 160.000,11.550 160.000,17.500 159.200,17.500 159.200,20.450 160.000,20.450 160.000,21.450 173.851,21.450 173.851,20.450 174.651,20.450 174.651,17.500 173.851,17.500 173.851,11.550 174.651,11.550 174.651,8.601 173.851,8.601 173.851,7.600" style="fill:none;stroke-width:0.050000mm;stroke:black"/>
<polygon points="179.050,7.600 179.050,8.601 178.250,8.601 178.250,11.550 179.050,11.550 179.050,17.500 178.250,17.500 178.250,20.450 179.050,20.450 179.050,21.450 192.901,21.450 192.901,20.450 193.700,20.450 193.700,17.500 192.901,17.500 192.901,11.550 193.700,11.550 193.700,8.601 192.901,8.601 192.901,7.600" style="fill:none;stroke-width:0.050000mm;stroke:black"/>
<polygon points="198.101,7.600 198.101,8.601 197.300,8.601 197.300,11.550 198.101,11.550 198.101,17.500 197.300,17.500 197.300,20.450 198.101,20.450 198.101,21.450 211.950,21.450 211.950,20.450 212.750,20.450 212.750,17.500 211.950,17.500 211.950,11.550 212.750,11.550 212.750,8.601 211.950,8.601 211.950,7.600" style="fill:none;stroke-width:0.050000mm;stroke:black"/>
<polygon points="217.151,7.600 217.151,8.601 216.351,8.601 216.351,11.550 217.151,11.550 217.151,17.500 216.351,17.500 216.351,20.450 217.151,20.450 217.151,21.450 231.000,21.450 231.000,20.450 231.800,20.450 231.800,17.500 231.000,17.500 231.000,11.550 231.800,11.550 231.800,8.601 231.000,8.601 231.000,7.600" style="fill:none;stroke-width:0.050000mm;stroke:black"/>
<polygon points="236.200,7.600 236.200,8.601 235.401,8.601 235.401,11.550 236.200,11.550 236.200,17.500 235.401,17.500 235.401,20.450 236.200,20.450 236.200,21.450 250.050,21.450 250.050,20.450 250.851,20.450 250.851,17.500 250.050,17.500 250.050,11.550 250.851,11.550 250.851,8.601 250.050,8.601 250.050,7.600" style="fill:none;stroke-width:0.050000mm;stroke:black"/>
</svg>
